%TF.GenerationSoftware,KiCad,Pcbnew,7.0.1*%
%TF.CreationDate,2023-04-20T14:44:11+09:00*%
%TF.ProjectId,dcc-adapter-board-kato-1.310-21mtc,6463632d-6164-4617-9074-65722d626f61,rev?*%
%TF.SameCoordinates,Original*%
%TF.FileFunction,Drillmap*%
%TF.FilePolarity,Positive*%
%FSLAX45Y45*%
G04 Gerber Fmt 4.5, Leading zero omitted, Abs format (unit mm)*
G04 Created by KiCad (PCBNEW 7.0.1) date 2023-04-20 14:44:11*
%MOMM*%
%LPD*%
G01*
G04 APERTURE LIST*
%ADD10C,0.100000*%
%ADD11C,0.200000*%
%ADD12C,0.040000*%
%ADD13C,0.060000*%
%ADD14C,0.210000*%
G04 APERTURE END LIST*
D10*
X6350000Y-2540000D02*
X12300000Y-2540000D01*
X12300000Y-4140000D01*
X6350000Y-4140000D01*
X6350000Y-2540000D01*
D11*
D12*
X6736862Y-3057196D02*
X6776862Y-3097196D01*
X6776862Y-3057196D02*
X6736862Y-3097196D01*
X6820000Y-3950000D02*
X6860000Y-3990000D01*
X6860000Y-3950000D02*
X6820000Y-3990000D01*
X6950000Y-3480000D02*
X6990000Y-3520000D01*
X6990000Y-3480000D02*
X6950000Y-3520000D01*
X7240000Y-3777550D02*
X7280000Y-3817550D01*
X7280000Y-3777550D02*
X7240000Y-3817550D01*
X7450000Y-2790000D02*
X7490000Y-2830000D01*
X7490000Y-2790000D02*
X7450000Y-2830000D01*
X7530000Y-3960000D02*
X7570000Y-4000000D01*
X7570000Y-3960000D02*
X7530000Y-4000000D01*
X7650000Y-3775050D02*
X7690000Y-3815050D01*
X7690000Y-3775050D02*
X7650000Y-3815050D01*
X7720000Y-2790000D02*
X7760000Y-2830000D01*
X7760000Y-2790000D02*
X7720000Y-2830000D01*
X7720000Y-2980000D02*
X7760000Y-3020000D01*
X7760000Y-2980000D02*
X7720000Y-3020000D01*
X7740000Y-3930000D02*
X7780000Y-3970000D01*
X7780000Y-3930000D02*
X7740000Y-3970000D01*
X8070000Y-3290000D02*
X8110000Y-3330000D01*
X8110000Y-3290000D02*
X8070000Y-3330000D01*
X8309950Y-3190000D02*
X8349950Y-3230000D01*
X8349950Y-3190000D02*
X8309950Y-3230000D01*
X8310000Y-3290000D02*
X8350000Y-3330000D01*
X8350000Y-3290000D02*
X8310000Y-3330000D01*
X9140000Y-2930000D02*
X9180000Y-2970000D01*
X9180000Y-2930000D02*
X9140000Y-2970000D01*
X9150000Y-2800000D02*
X9190000Y-2840000D01*
X9190000Y-2800000D02*
X9150000Y-2840000D01*
X9160000Y-3440000D02*
X9200000Y-3480000D01*
X9200000Y-3440000D02*
X9160000Y-3480000D01*
X9160000Y-3570000D02*
X9200000Y-3610000D01*
X9200000Y-3570000D02*
X9160000Y-3610000D01*
X9445000Y-3435000D02*
X9485000Y-3475000D01*
X9485000Y-3435000D02*
X9445000Y-3475000D01*
X9590000Y-3050000D02*
X9630000Y-3090000D01*
X9630000Y-3050000D02*
X9590000Y-3090000D01*
X9765000Y-2945000D02*
X9805000Y-2985000D01*
X9805000Y-2945000D02*
X9765000Y-2985000D01*
X10500000Y-3840000D02*
X10540000Y-3880000D01*
X10540000Y-3840000D02*
X10500000Y-3880000D01*
X11190000Y-2950000D02*
X11230000Y-2990000D01*
X11230000Y-2950000D02*
X11190000Y-2990000D01*
X11720000Y-3180000D02*
X11760000Y-3220000D01*
X11760000Y-3180000D02*
X11720000Y-3220000D01*
X11750000Y-2690000D02*
X11790000Y-2730000D01*
X11790000Y-2690000D02*
X11750000Y-2730000D01*
X11860000Y-3677500D02*
X11900000Y-3717500D01*
X11900000Y-3677500D02*
X11860000Y-3717500D01*
D13*
X7420000Y-3120000D02*
G75*
G03*
X7420000Y-3120000I-30000J0D01*
G01*
X7420000Y-3480000D02*
G75*
G03*
X7420000Y-3480000I-30000J0D01*
G01*
D14*
X8050000Y-3535000D02*
X8050000Y-3745000D01*
X7945000Y-3640000D02*
X8155000Y-3640000D01*
X10600000Y-2935000D02*
X10600000Y-3145000D01*
X10495000Y-3040000D02*
X10705000Y-3040000D01*
D11*
X6592619Y-4457524D02*
X6592619Y-4257524D01*
X6592619Y-4257524D02*
X6640238Y-4257524D01*
X6640238Y-4257524D02*
X6668809Y-4267048D01*
X6668809Y-4267048D02*
X6687857Y-4286095D01*
X6687857Y-4286095D02*
X6697381Y-4305143D01*
X6697381Y-4305143D02*
X6706905Y-4343238D01*
X6706905Y-4343238D02*
X6706905Y-4371810D01*
X6706905Y-4371810D02*
X6697381Y-4409905D01*
X6697381Y-4409905D02*
X6687857Y-4428952D01*
X6687857Y-4428952D02*
X6668809Y-4448000D01*
X6668809Y-4448000D02*
X6640238Y-4457524D01*
X6640238Y-4457524D02*
X6592619Y-4457524D01*
X6792619Y-4457524D02*
X6792619Y-4324190D01*
X6792619Y-4362286D02*
X6802143Y-4343238D01*
X6802143Y-4343238D02*
X6811667Y-4333714D01*
X6811667Y-4333714D02*
X6830714Y-4324190D01*
X6830714Y-4324190D02*
X6849762Y-4324190D01*
X6916428Y-4457524D02*
X6916428Y-4324190D01*
X6916428Y-4257524D02*
X6906905Y-4267048D01*
X6906905Y-4267048D02*
X6916428Y-4276571D01*
X6916428Y-4276571D02*
X6925952Y-4267048D01*
X6925952Y-4267048D02*
X6916428Y-4257524D01*
X6916428Y-4257524D02*
X6916428Y-4276571D01*
X7040238Y-4457524D02*
X7021190Y-4448000D01*
X7021190Y-4448000D02*
X7011667Y-4428952D01*
X7011667Y-4428952D02*
X7011667Y-4257524D01*
X7145000Y-4457524D02*
X7125952Y-4448000D01*
X7125952Y-4448000D02*
X7116428Y-4428952D01*
X7116428Y-4428952D02*
X7116428Y-4257524D01*
X7373571Y-4457524D02*
X7373571Y-4257524D01*
X7373571Y-4257524D02*
X7440238Y-4400381D01*
X7440238Y-4400381D02*
X7506905Y-4257524D01*
X7506905Y-4257524D02*
X7506905Y-4457524D01*
X7687857Y-4457524D02*
X7687857Y-4352762D01*
X7687857Y-4352762D02*
X7678333Y-4333714D01*
X7678333Y-4333714D02*
X7659286Y-4324190D01*
X7659286Y-4324190D02*
X7621190Y-4324190D01*
X7621190Y-4324190D02*
X7602143Y-4333714D01*
X7687857Y-4448000D02*
X7668809Y-4457524D01*
X7668809Y-4457524D02*
X7621190Y-4457524D01*
X7621190Y-4457524D02*
X7602143Y-4448000D01*
X7602143Y-4448000D02*
X7592619Y-4428952D01*
X7592619Y-4428952D02*
X7592619Y-4409905D01*
X7592619Y-4409905D02*
X7602143Y-4390857D01*
X7602143Y-4390857D02*
X7621190Y-4381333D01*
X7621190Y-4381333D02*
X7668809Y-4381333D01*
X7668809Y-4381333D02*
X7687857Y-4371810D01*
X7783095Y-4324190D02*
X7783095Y-4524190D01*
X7783095Y-4333714D02*
X7802143Y-4324190D01*
X7802143Y-4324190D02*
X7840238Y-4324190D01*
X7840238Y-4324190D02*
X7859286Y-4333714D01*
X7859286Y-4333714D02*
X7868809Y-4343238D01*
X7868809Y-4343238D02*
X7878333Y-4362286D01*
X7878333Y-4362286D02*
X7878333Y-4419429D01*
X7878333Y-4419429D02*
X7868809Y-4438476D01*
X7868809Y-4438476D02*
X7859286Y-4448000D01*
X7859286Y-4448000D02*
X7840238Y-4457524D01*
X7840238Y-4457524D02*
X7802143Y-4457524D01*
X7802143Y-4457524D02*
X7783095Y-4448000D01*
X7964048Y-4438476D02*
X7973571Y-4448000D01*
X7973571Y-4448000D02*
X7964048Y-4457524D01*
X7964048Y-4457524D02*
X7954524Y-4448000D01*
X7954524Y-4448000D02*
X7964048Y-4438476D01*
X7964048Y-4438476D02*
X7964048Y-4457524D01*
X7964048Y-4333714D02*
X7973571Y-4343238D01*
X7973571Y-4343238D02*
X7964048Y-4352762D01*
X7964048Y-4352762D02*
X7954524Y-4343238D01*
X7954524Y-4343238D02*
X7964048Y-4333714D01*
X7964048Y-4333714D02*
X7964048Y-4352762D01*
D12*
X6305000Y-4765000D02*
X6345000Y-4805000D01*
X6345000Y-4765000D02*
X6305000Y-4805000D01*
D11*
X6630714Y-4677524D02*
X6649762Y-4677524D01*
X6649762Y-4677524D02*
X6668809Y-4687048D01*
X6668809Y-4687048D02*
X6678333Y-4696571D01*
X6678333Y-4696571D02*
X6687857Y-4715619D01*
X6687857Y-4715619D02*
X6697381Y-4753714D01*
X6697381Y-4753714D02*
X6697381Y-4801333D01*
X6697381Y-4801333D02*
X6687857Y-4839429D01*
X6687857Y-4839429D02*
X6678333Y-4858476D01*
X6678333Y-4858476D02*
X6668809Y-4868000D01*
X6668809Y-4868000D02*
X6649762Y-4877524D01*
X6649762Y-4877524D02*
X6630714Y-4877524D01*
X6630714Y-4877524D02*
X6611667Y-4868000D01*
X6611667Y-4868000D02*
X6602143Y-4858476D01*
X6602143Y-4858476D02*
X6592619Y-4839429D01*
X6592619Y-4839429D02*
X6583095Y-4801333D01*
X6583095Y-4801333D02*
X6583095Y-4753714D01*
X6583095Y-4753714D02*
X6592619Y-4715619D01*
X6592619Y-4715619D02*
X6602143Y-4696571D01*
X6602143Y-4696571D02*
X6611667Y-4687048D01*
X6611667Y-4687048D02*
X6630714Y-4677524D01*
X6783095Y-4858476D02*
X6792619Y-4868000D01*
X6792619Y-4868000D02*
X6783095Y-4877524D01*
X6783095Y-4877524D02*
X6773571Y-4868000D01*
X6773571Y-4868000D02*
X6783095Y-4858476D01*
X6783095Y-4858476D02*
X6783095Y-4877524D01*
X6964048Y-4744190D02*
X6964048Y-4877524D01*
X6916428Y-4668000D02*
X6868809Y-4810857D01*
X6868809Y-4810857D02*
X6992619Y-4810857D01*
X7106905Y-4677524D02*
X7125952Y-4677524D01*
X7125952Y-4677524D02*
X7145000Y-4687048D01*
X7145000Y-4687048D02*
X7154524Y-4696571D01*
X7154524Y-4696571D02*
X7164048Y-4715619D01*
X7164048Y-4715619D02*
X7173571Y-4753714D01*
X7173571Y-4753714D02*
X7173571Y-4801333D01*
X7173571Y-4801333D02*
X7164048Y-4839429D01*
X7164048Y-4839429D02*
X7154524Y-4858476D01*
X7154524Y-4858476D02*
X7145000Y-4868000D01*
X7145000Y-4868000D02*
X7125952Y-4877524D01*
X7125952Y-4877524D02*
X7106905Y-4877524D01*
X7106905Y-4877524D02*
X7087857Y-4868000D01*
X7087857Y-4868000D02*
X7078333Y-4858476D01*
X7078333Y-4858476D02*
X7068809Y-4839429D01*
X7068809Y-4839429D02*
X7059286Y-4801333D01*
X7059286Y-4801333D02*
X7059286Y-4753714D01*
X7059286Y-4753714D02*
X7068809Y-4715619D01*
X7068809Y-4715619D02*
X7078333Y-4696571D01*
X7078333Y-4696571D02*
X7087857Y-4687048D01*
X7087857Y-4687048D02*
X7106905Y-4677524D01*
X7297381Y-4677524D02*
X7316429Y-4677524D01*
X7316429Y-4677524D02*
X7335476Y-4687048D01*
X7335476Y-4687048D02*
X7345000Y-4696571D01*
X7345000Y-4696571D02*
X7354524Y-4715619D01*
X7354524Y-4715619D02*
X7364048Y-4753714D01*
X7364048Y-4753714D02*
X7364048Y-4801333D01*
X7364048Y-4801333D02*
X7354524Y-4839429D01*
X7354524Y-4839429D02*
X7345000Y-4858476D01*
X7345000Y-4858476D02*
X7335476Y-4868000D01*
X7335476Y-4868000D02*
X7316429Y-4877524D01*
X7316429Y-4877524D02*
X7297381Y-4877524D01*
X7297381Y-4877524D02*
X7278333Y-4868000D01*
X7278333Y-4868000D02*
X7268809Y-4858476D01*
X7268809Y-4858476D02*
X7259286Y-4839429D01*
X7259286Y-4839429D02*
X7249762Y-4801333D01*
X7249762Y-4801333D02*
X7249762Y-4753714D01*
X7249762Y-4753714D02*
X7259286Y-4715619D01*
X7259286Y-4715619D02*
X7268809Y-4696571D01*
X7268809Y-4696571D02*
X7278333Y-4687048D01*
X7278333Y-4687048D02*
X7297381Y-4677524D01*
X7449762Y-4877524D02*
X7449762Y-4744190D01*
X7449762Y-4763238D02*
X7459286Y-4753714D01*
X7459286Y-4753714D02*
X7478333Y-4744190D01*
X7478333Y-4744190D02*
X7506905Y-4744190D01*
X7506905Y-4744190D02*
X7525952Y-4753714D01*
X7525952Y-4753714D02*
X7535476Y-4772762D01*
X7535476Y-4772762D02*
X7535476Y-4877524D01*
X7535476Y-4772762D02*
X7545000Y-4753714D01*
X7545000Y-4753714D02*
X7564048Y-4744190D01*
X7564048Y-4744190D02*
X7592619Y-4744190D01*
X7592619Y-4744190D02*
X7611667Y-4753714D01*
X7611667Y-4753714D02*
X7621190Y-4772762D01*
X7621190Y-4772762D02*
X7621190Y-4877524D01*
X7716429Y-4877524D02*
X7716429Y-4744190D01*
X7716429Y-4763238D02*
X7725952Y-4753714D01*
X7725952Y-4753714D02*
X7745000Y-4744190D01*
X7745000Y-4744190D02*
X7773571Y-4744190D01*
X7773571Y-4744190D02*
X7792619Y-4753714D01*
X7792619Y-4753714D02*
X7802143Y-4772762D01*
X7802143Y-4772762D02*
X7802143Y-4877524D01*
X7802143Y-4772762D02*
X7811667Y-4753714D01*
X7811667Y-4753714D02*
X7830714Y-4744190D01*
X7830714Y-4744190D02*
X7859286Y-4744190D01*
X7859286Y-4744190D02*
X7878333Y-4753714D01*
X7878333Y-4753714D02*
X7887857Y-4772762D01*
X7887857Y-4772762D02*
X7887857Y-4877524D01*
X8278333Y-4668000D02*
X8106905Y-4925143D01*
X8535476Y-4677524D02*
X8554524Y-4677524D01*
X8554524Y-4677524D02*
X8573572Y-4687048D01*
X8573572Y-4687048D02*
X8583095Y-4696571D01*
X8583095Y-4696571D02*
X8592619Y-4715619D01*
X8592619Y-4715619D02*
X8602143Y-4753714D01*
X8602143Y-4753714D02*
X8602143Y-4801333D01*
X8602143Y-4801333D02*
X8592619Y-4839429D01*
X8592619Y-4839429D02*
X8583095Y-4858476D01*
X8583095Y-4858476D02*
X8573572Y-4868000D01*
X8573572Y-4868000D02*
X8554524Y-4877524D01*
X8554524Y-4877524D02*
X8535476Y-4877524D01*
X8535476Y-4877524D02*
X8516429Y-4868000D01*
X8516429Y-4868000D02*
X8506905Y-4858476D01*
X8506905Y-4858476D02*
X8497381Y-4839429D01*
X8497381Y-4839429D02*
X8487857Y-4801333D01*
X8487857Y-4801333D02*
X8487857Y-4753714D01*
X8487857Y-4753714D02*
X8497381Y-4715619D01*
X8497381Y-4715619D02*
X8506905Y-4696571D01*
X8506905Y-4696571D02*
X8516429Y-4687048D01*
X8516429Y-4687048D02*
X8535476Y-4677524D01*
X8687857Y-4858476D02*
X8697381Y-4868000D01*
X8697381Y-4868000D02*
X8687857Y-4877524D01*
X8687857Y-4877524D02*
X8678334Y-4868000D01*
X8678334Y-4868000D02*
X8687857Y-4858476D01*
X8687857Y-4858476D02*
X8687857Y-4877524D01*
X8821191Y-4677524D02*
X8840238Y-4677524D01*
X8840238Y-4677524D02*
X8859286Y-4687048D01*
X8859286Y-4687048D02*
X8868810Y-4696571D01*
X8868810Y-4696571D02*
X8878334Y-4715619D01*
X8878334Y-4715619D02*
X8887857Y-4753714D01*
X8887857Y-4753714D02*
X8887857Y-4801333D01*
X8887857Y-4801333D02*
X8878334Y-4839429D01*
X8878334Y-4839429D02*
X8868810Y-4858476D01*
X8868810Y-4858476D02*
X8859286Y-4868000D01*
X8859286Y-4868000D02*
X8840238Y-4877524D01*
X8840238Y-4877524D02*
X8821191Y-4877524D01*
X8821191Y-4877524D02*
X8802143Y-4868000D01*
X8802143Y-4868000D02*
X8792619Y-4858476D01*
X8792619Y-4858476D02*
X8783095Y-4839429D01*
X8783095Y-4839429D02*
X8773572Y-4801333D01*
X8773572Y-4801333D02*
X8773572Y-4753714D01*
X8773572Y-4753714D02*
X8783095Y-4715619D01*
X8783095Y-4715619D02*
X8792619Y-4696571D01*
X8792619Y-4696571D02*
X8802143Y-4687048D01*
X8802143Y-4687048D02*
X8821191Y-4677524D01*
X9078334Y-4877524D02*
X8964048Y-4877524D01*
X9021191Y-4877524D02*
X9021191Y-4677524D01*
X9021191Y-4677524D02*
X9002143Y-4706095D01*
X9002143Y-4706095D02*
X8983095Y-4725143D01*
X8983095Y-4725143D02*
X8964048Y-4734667D01*
X9259286Y-4677524D02*
X9164048Y-4677524D01*
X9164048Y-4677524D02*
X9154524Y-4772762D01*
X9154524Y-4772762D02*
X9164048Y-4763238D01*
X9164048Y-4763238D02*
X9183095Y-4753714D01*
X9183095Y-4753714D02*
X9230715Y-4753714D01*
X9230715Y-4753714D02*
X9249762Y-4763238D01*
X9249762Y-4763238D02*
X9259286Y-4772762D01*
X9259286Y-4772762D02*
X9268810Y-4791810D01*
X9268810Y-4791810D02*
X9268810Y-4839429D01*
X9268810Y-4839429D02*
X9259286Y-4858476D01*
X9259286Y-4858476D02*
X9249762Y-4868000D01*
X9249762Y-4868000D02*
X9230715Y-4877524D01*
X9230715Y-4877524D02*
X9183095Y-4877524D01*
X9183095Y-4877524D02*
X9164048Y-4868000D01*
X9164048Y-4868000D02*
X9154524Y-4858476D01*
X9335476Y-4677524D02*
X9468810Y-4677524D01*
X9468810Y-4677524D02*
X9383095Y-4877524D01*
X9535476Y-4677524D02*
X9535476Y-4715619D01*
X9611667Y-4677524D02*
X9611667Y-4715619D01*
X9906905Y-4953714D02*
X9897381Y-4944190D01*
X9897381Y-4944190D02*
X9878334Y-4915619D01*
X9878334Y-4915619D02*
X9868810Y-4896571D01*
X9868810Y-4896571D02*
X9859286Y-4868000D01*
X9859286Y-4868000D02*
X9849762Y-4820381D01*
X9849762Y-4820381D02*
X9849762Y-4782286D01*
X9849762Y-4782286D02*
X9859286Y-4734667D01*
X9859286Y-4734667D02*
X9868810Y-4706095D01*
X9868810Y-4706095D02*
X9878334Y-4687048D01*
X9878334Y-4687048D02*
X9897381Y-4658476D01*
X9897381Y-4658476D02*
X9906905Y-4648952D01*
X9973572Y-4696571D02*
X9983096Y-4687048D01*
X9983096Y-4687048D02*
X10002143Y-4677524D01*
X10002143Y-4677524D02*
X10049762Y-4677524D01*
X10049762Y-4677524D02*
X10068810Y-4687048D01*
X10068810Y-4687048D02*
X10078334Y-4696571D01*
X10078334Y-4696571D02*
X10087857Y-4715619D01*
X10087857Y-4715619D02*
X10087857Y-4734667D01*
X10087857Y-4734667D02*
X10078334Y-4763238D01*
X10078334Y-4763238D02*
X9964048Y-4877524D01*
X9964048Y-4877524D02*
X10087857Y-4877524D01*
X10268810Y-4677524D02*
X10173572Y-4677524D01*
X10173572Y-4677524D02*
X10164048Y-4772762D01*
X10164048Y-4772762D02*
X10173572Y-4763238D01*
X10173572Y-4763238D02*
X10192619Y-4753714D01*
X10192619Y-4753714D02*
X10240238Y-4753714D01*
X10240238Y-4753714D02*
X10259286Y-4763238D01*
X10259286Y-4763238D02*
X10268810Y-4772762D01*
X10268810Y-4772762D02*
X10278334Y-4791810D01*
X10278334Y-4791810D02*
X10278334Y-4839429D01*
X10278334Y-4839429D02*
X10268810Y-4858476D01*
X10268810Y-4858476D02*
X10259286Y-4868000D01*
X10259286Y-4868000D02*
X10240238Y-4877524D01*
X10240238Y-4877524D02*
X10192619Y-4877524D01*
X10192619Y-4877524D02*
X10173572Y-4868000D01*
X10173572Y-4868000D02*
X10164048Y-4858476D01*
X10516429Y-4877524D02*
X10516429Y-4677524D01*
X10602143Y-4877524D02*
X10602143Y-4772762D01*
X10602143Y-4772762D02*
X10592619Y-4753714D01*
X10592619Y-4753714D02*
X10573572Y-4744190D01*
X10573572Y-4744190D02*
X10545000Y-4744190D01*
X10545000Y-4744190D02*
X10525953Y-4753714D01*
X10525953Y-4753714D02*
X10516429Y-4763238D01*
X10725953Y-4877524D02*
X10706905Y-4868000D01*
X10706905Y-4868000D02*
X10697381Y-4858476D01*
X10697381Y-4858476D02*
X10687858Y-4839429D01*
X10687858Y-4839429D02*
X10687858Y-4782286D01*
X10687858Y-4782286D02*
X10697381Y-4763238D01*
X10697381Y-4763238D02*
X10706905Y-4753714D01*
X10706905Y-4753714D02*
X10725953Y-4744190D01*
X10725953Y-4744190D02*
X10754524Y-4744190D01*
X10754524Y-4744190D02*
X10773572Y-4753714D01*
X10773572Y-4753714D02*
X10783096Y-4763238D01*
X10783096Y-4763238D02*
X10792619Y-4782286D01*
X10792619Y-4782286D02*
X10792619Y-4839429D01*
X10792619Y-4839429D02*
X10783096Y-4858476D01*
X10783096Y-4858476D02*
X10773572Y-4868000D01*
X10773572Y-4868000D02*
X10754524Y-4877524D01*
X10754524Y-4877524D02*
X10725953Y-4877524D01*
X10906905Y-4877524D02*
X10887858Y-4868000D01*
X10887858Y-4868000D02*
X10878334Y-4848952D01*
X10878334Y-4848952D02*
X10878334Y-4677524D01*
X11059286Y-4868000D02*
X11040239Y-4877524D01*
X11040239Y-4877524D02*
X11002143Y-4877524D01*
X11002143Y-4877524D02*
X10983096Y-4868000D01*
X10983096Y-4868000D02*
X10973572Y-4848952D01*
X10973572Y-4848952D02*
X10973572Y-4772762D01*
X10973572Y-4772762D02*
X10983096Y-4753714D01*
X10983096Y-4753714D02*
X11002143Y-4744190D01*
X11002143Y-4744190D02*
X11040239Y-4744190D01*
X11040239Y-4744190D02*
X11059286Y-4753714D01*
X11059286Y-4753714D02*
X11068810Y-4772762D01*
X11068810Y-4772762D02*
X11068810Y-4791810D01*
X11068810Y-4791810D02*
X10973572Y-4810857D01*
X11145000Y-4868000D02*
X11164048Y-4877524D01*
X11164048Y-4877524D02*
X11202143Y-4877524D01*
X11202143Y-4877524D02*
X11221191Y-4868000D01*
X11221191Y-4868000D02*
X11230715Y-4848952D01*
X11230715Y-4848952D02*
X11230715Y-4839429D01*
X11230715Y-4839429D02*
X11221191Y-4820381D01*
X11221191Y-4820381D02*
X11202143Y-4810857D01*
X11202143Y-4810857D02*
X11173572Y-4810857D01*
X11173572Y-4810857D02*
X11154524Y-4801333D01*
X11154524Y-4801333D02*
X11145000Y-4782286D01*
X11145000Y-4782286D02*
X11145000Y-4772762D01*
X11145000Y-4772762D02*
X11154524Y-4753714D01*
X11154524Y-4753714D02*
X11173572Y-4744190D01*
X11173572Y-4744190D02*
X11202143Y-4744190D01*
X11202143Y-4744190D02*
X11221191Y-4753714D01*
X11297381Y-4953714D02*
X11306905Y-4944190D01*
X11306905Y-4944190D02*
X11325953Y-4915619D01*
X11325953Y-4915619D02*
X11335477Y-4896571D01*
X11335477Y-4896571D02*
X11345000Y-4868000D01*
X11345000Y-4868000D02*
X11354524Y-4820381D01*
X11354524Y-4820381D02*
X11354524Y-4782286D01*
X11354524Y-4782286D02*
X11345000Y-4734667D01*
X11345000Y-4734667D02*
X11335477Y-4706095D01*
X11335477Y-4706095D02*
X11325953Y-4687048D01*
X11325953Y-4687048D02*
X11306905Y-4658476D01*
X11306905Y-4658476D02*
X11297381Y-4648952D01*
D13*
X6345000Y-5049000D02*
G75*
G03*
X6345000Y-5049000I-30000J0D01*
G01*
D11*
X6630714Y-4941524D02*
X6649762Y-4941524D01*
X6649762Y-4941524D02*
X6668809Y-4951048D01*
X6668809Y-4951048D02*
X6678333Y-4960571D01*
X6678333Y-4960571D02*
X6687857Y-4979619D01*
X6687857Y-4979619D02*
X6697381Y-5017714D01*
X6697381Y-5017714D02*
X6697381Y-5065333D01*
X6697381Y-5065333D02*
X6687857Y-5103429D01*
X6687857Y-5103429D02*
X6678333Y-5122476D01*
X6678333Y-5122476D02*
X6668809Y-5132000D01*
X6668809Y-5132000D02*
X6649762Y-5141524D01*
X6649762Y-5141524D02*
X6630714Y-5141524D01*
X6630714Y-5141524D02*
X6611667Y-5132000D01*
X6611667Y-5132000D02*
X6602143Y-5122476D01*
X6602143Y-5122476D02*
X6592619Y-5103429D01*
X6592619Y-5103429D02*
X6583095Y-5065333D01*
X6583095Y-5065333D02*
X6583095Y-5017714D01*
X6583095Y-5017714D02*
X6592619Y-4979619D01*
X6592619Y-4979619D02*
X6602143Y-4960571D01*
X6602143Y-4960571D02*
X6611667Y-4951048D01*
X6611667Y-4951048D02*
X6630714Y-4941524D01*
X6783095Y-5122476D02*
X6792619Y-5132000D01*
X6792619Y-5132000D02*
X6783095Y-5141524D01*
X6783095Y-5141524D02*
X6773571Y-5132000D01*
X6773571Y-5132000D02*
X6783095Y-5122476D01*
X6783095Y-5122476D02*
X6783095Y-5141524D01*
X6964048Y-4941524D02*
X6925952Y-4941524D01*
X6925952Y-4941524D02*
X6906905Y-4951048D01*
X6906905Y-4951048D02*
X6897381Y-4960571D01*
X6897381Y-4960571D02*
X6878333Y-4989143D01*
X6878333Y-4989143D02*
X6868809Y-5027238D01*
X6868809Y-5027238D02*
X6868809Y-5103429D01*
X6868809Y-5103429D02*
X6878333Y-5122476D01*
X6878333Y-5122476D02*
X6887857Y-5132000D01*
X6887857Y-5132000D02*
X6906905Y-5141524D01*
X6906905Y-5141524D02*
X6945000Y-5141524D01*
X6945000Y-5141524D02*
X6964048Y-5132000D01*
X6964048Y-5132000D02*
X6973571Y-5122476D01*
X6973571Y-5122476D02*
X6983095Y-5103429D01*
X6983095Y-5103429D02*
X6983095Y-5055810D01*
X6983095Y-5055810D02*
X6973571Y-5036762D01*
X6973571Y-5036762D02*
X6964048Y-5027238D01*
X6964048Y-5027238D02*
X6945000Y-5017714D01*
X6945000Y-5017714D02*
X6906905Y-5017714D01*
X6906905Y-5017714D02*
X6887857Y-5027238D01*
X6887857Y-5027238D02*
X6878333Y-5036762D01*
X6878333Y-5036762D02*
X6868809Y-5055810D01*
X7106905Y-4941524D02*
X7125952Y-4941524D01*
X7125952Y-4941524D02*
X7145000Y-4951048D01*
X7145000Y-4951048D02*
X7154524Y-4960571D01*
X7154524Y-4960571D02*
X7164048Y-4979619D01*
X7164048Y-4979619D02*
X7173571Y-5017714D01*
X7173571Y-5017714D02*
X7173571Y-5065333D01*
X7173571Y-5065333D02*
X7164048Y-5103429D01*
X7164048Y-5103429D02*
X7154524Y-5122476D01*
X7154524Y-5122476D02*
X7145000Y-5132000D01*
X7145000Y-5132000D02*
X7125952Y-5141524D01*
X7125952Y-5141524D02*
X7106905Y-5141524D01*
X7106905Y-5141524D02*
X7087857Y-5132000D01*
X7087857Y-5132000D02*
X7078333Y-5122476D01*
X7078333Y-5122476D02*
X7068809Y-5103429D01*
X7068809Y-5103429D02*
X7059286Y-5065333D01*
X7059286Y-5065333D02*
X7059286Y-5017714D01*
X7059286Y-5017714D02*
X7068809Y-4979619D01*
X7068809Y-4979619D02*
X7078333Y-4960571D01*
X7078333Y-4960571D02*
X7087857Y-4951048D01*
X7087857Y-4951048D02*
X7106905Y-4941524D01*
X7297381Y-4941524D02*
X7316429Y-4941524D01*
X7316429Y-4941524D02*
X7335476Y-4951048D01*
X7335476Y-4951048D02*
X7345000Y-4960571D01*
X7345000Y-4960571D02*
X7354524Y-4979619D01*
X7354524Y-4979619D02*
X7364048Y-5017714D01*
X7364048Y-5017714D02*
X7364048Y-5065333D01*
X7364048Y-5065333D02*
X7354524Y-5103429D01*
X7354524Y-5103429D02*
X7345000Y-5122476D01*
X7345000Y-5122476D02*
X7335476Y-5132000D01*
X7335476Y-5132000D02*
X7316429Y-5141524D01*
X7316429Y-5141524D02*
X7297381Y-5141524D01*
X7297381Y-5141524D02*
X7278333Y-5132000D01*
X7278333Y-5132000D02*
X7268809Y-5122476D01*
X7268809Y-5122476D02*
X7259286Y-5103429D01*
X7259286Y-5103429D02*
X7249762Y-5065333D01*
X7249762Y-5065333D02*
X7249762Y-5017714D01*
X7249762Y-5017714D02*
X7259286Y-4979619D01*
X7259286Y-4979619D02*
X7268809Y-4960571D01*
X7268809Y-4960571D02*
X7278333Y-4951048D01*
X7278333Y-4951048D02*
X7297381Y-4941524D01*
X7449762Y-5141524D02*
X7449762Y-5008190D01*
X7449762Y-5027238D02*
X7459286Y-5017714D01*
X7459286Y-5017714D02*
X7478333Y-5008190D01*
X7478333Y-5008190D02*
X7506905Y-5008190D01*
X7506905Y-5008190D02*
X7525952Y-5017714D01*
X7525952Y-5017714D02*
X7535476Y-5036762D01*
X7535476Y-5036762D02*
X7535476Y-5141524D01*
X7535476Y-5036762D02*
X7545000Y-5017714D01*
X7545000Y-5017714D02*
X7564048Y-5008190D01*
X7564048Y-5008190D02*
X7592619Y-5008190D01*
X7592619Y-5008190D02*
X7611667Y-5017714D01*
X7611667Y-5017714D02*
X7621190Y-5036762D01*
X7621190Y-5036762D02*
X7621190Y-5141524D01*
X7716429Y-5141524D02*
X7716429Y-5008190D01*
X7716429Y-5027238D02*
X7725952Y-5017714D01*
X7725952Y-5017714D02*
X7745000Y-5008190D01*
X7745000Y-5008190D02*
X7773571Y-5008190D01*
X7773571Y-5008190D02*
X7792619Y-5017714D01*
X7792619Y-5017714D02*
X7802143Y-5036762D01*
X7802143Y-5036762D02*
X7802143Y-5141524D01*
X7802143Y-5036762D02*
X7811667Y-5017714D01*
X7811667Y-5017714D02*
X7830714Y-5008190D01*
X7830714Y-5008190D02*
X7859286Y-5008190D01*
X7859286Y-5008190D02*
X7878333Y-5017714D01*
X7878333Y-5017714D02*
X7887857Y-5036762D01*
X7887857Y-5036762D02*
X7887857Y-5141524D01*
X8278333Y-4932000D02*
X8106905Y-5189143D01*
X8535476Y-4941524D02*
X8554524Y-4941524D01*
X8554524Y-4941524D02*
X8573572Y-4951048D01*
X8573572Y-4951048D02*
X8583095Y-4960571D01*
X8583095Y-4960571D02*
X8592619Y-4979619D01*
X8592619Y-4979619D02*
X8602143Y-5017714D01*
X8602143Y-5017714D02*
X8602143Y-5065333D01*
X8602143Y-5065333D02*
X8592619Y-5103429D01*
X8592619Y-5103429D02*
X8583095Y-5122476D01*
X8583095Y-5122476D02*
X8573572Y-5132000D01*
X8573572Y-5132000D02*
X8554524Y-5141524D01*
X8554524Y-5141524D02*
X8535476Y-5141524D01*
X8535476Y-5141524D02*
X8516429Y-5132000D01*
X8516429Y-5132000D02*
X8506905Y-5122476D01*
X8506905Y-5122476D02*
X8497381Y-5103429D01*
X8497381Y-5103429D02*
X8487857Y-5065333D01*
X8487857Y-5065333D02*
X8487857Y-5017714D01*
X8487857Y-5017714D02*
X8497381Y-4979619D01*
X8497381Y-4979619D02*
X8506905Y-4960571D01*
X8506905Y-4960571D02*
X8516429Y-4951048D01*
X8516429Y-4951048D02*
X8535476Y-4941524D01*
X8687857Y-5122476D02*
X8697381Y-5132000D01*
X8697381Y-5132000D02*
X8687857Y-5141524D01*
X8687857Y-5141524D02*
X8678334Y-5132000D01*
X8678334Y-5132000D02*
X8687857Y-5122476D01*
X8687857Y-5122476D02*
X8687857Y-5141524D01*
X8821191Y-4941524D02*
X8840238Y-4941524D01*
X8840238Y-4941524D02*
X8859286Y-4951048D01*
X8859286Y-4951048D02*
X8868810Y-4960571D01*
X8868810Y-4960571D02*
X8878334Y-4979619D01*
X8878334Y-4979619D02*
X8887857Y-5017714D01*
X8887857Y-5017714D02*
X8887857Y-5065333D01*
X8887857Y-5065333D02*
X8878334Y-5103429D01*
X8878334Y-5103429D02*
X8868810Y-5122476D01*
X8868810Y-5122476D02*
X8859286Y-5132000D01*
X8859286Y-5132000D02*
X8840238Y-5141524D01*
X8840238Y-5141524D02*
X8821191Y-5141524D01*
X8821191Y-5141524D02*
X8802143Y-5132000D01*
X8802143Y-5132000D02*
X8792619Y-5122476D01*
X8792619Y-5122476D02*
X8783095Y-5103429D01*
X8783095Y-5103429D02*
X8773572Y-5065333D01*
X8773572Y-5065333D02*
X8773572Y-5017714D01*
X8773572Y-5017714D02*
X8783095Y-4979619D01*
X8783095Y-4979619D02*
X8792619Y-4960571D01*
X8792619Y-4960571D02*
X8802143Y-4951048D01*
X8802143Y-4951048D02*
X8821191Y-4941524D01*
X8964048Y-4960571D02*
X8973572Y-4951048D01*
X8973572Y-4951048D02*
X8992619Y-4941524D01*
X8992619Y-4941524D02*
X9040238Y-4941524D01*
X9040238Y-4941524D02*
X9059286Y-4951048D01*
X9059286Y-4951048D02*
X9068810Y-4960571D01*
X9068810Y-4960571D02*
X9078334Y-4979619D01*
X9078334Y-4979619D02*
X9078334Y-4998667D01*
X9078334Y-4998667D02*
X9068810Y-5027238D01*
X9068810Y-5027238D02*
X8954524Y-5141524D01*
X8954524Y-5141524D02*
X9078334Y-5141524D01*
X9145000Y-4941524D02*
X9268810Y-4941524D01*
X9268810Y-4941524D02*
X9202143Y-5017714D01*
X9202143Y-5017714D02*
X9230715Y-5017714D01*
X9230715Y-5017714D02*
X9249762Y-5027238D01*
X9249762Y-5027238D02*
X9259286Y-5036762D01*
X9259286Y-5036762D02*
X9268810Y-5055810D01*
X9268810Y-5055810D02*
X9268810Y-5103429D01*
X9268810Y-5103429D02*
X9259286Y-5122476D01*
X9259286Y-5122476D02*
X9249762Y-5132000D01*
X9249762Y-5132000D02*
X9230715Y-5141524D01*
X9230715Y-5141524D02*
X9173572Y-5141524D01*
X9173572Y-5141524D02*
X9154524Y-5132000D01*
X9154524Y-5132000D02*
X9145000Y-5122476D01*
X9440238Y-4941524D02*
X9402143Y-4941524D01*
X9402143Y-4941524D02*
X9383095Y-4951048D01*
X9383095Y-4951048D02*
X9373572Y-4960571D01*
X9373572Y-4960571D02*
X9354524Y-4989143D01*
X9354524Y-4989143D02*
X9345000Y-5027238D01*
X9345000Y-5027238D02*
X9345000Y-5103429D01*
X9345000Y-5103429D02*
X9354524Y-5122476D01*
X9354524Y-5122476D02*
X9364048Y-5132000D01*
X9364048Y-5132000D02*
X9383095Y-5141524D01*
X9383095Y-5141524D02*
X9421191Y-5141524D01*
X9421191Y-5141524D02*
X9440238Y-5132000D01*
X9440238Y-5132000D02*
X9449762Y-5122476D01*
X9449762Y-5122476D02*
X9459286Y-5103429D01*
X9459286Y-5103429D02*
X9459286Y-5055810D01*
X9459286Y-5055810D02*
X9449762Y-5036762D01*
X9449762Y-5036762D02*
X9440238Y-5027238D01*
X9440238Y-5027238D02*
X9421191Y-5017714D01*
X9421191Y-5017714D02*
X9383095Y-5017714D01*
X9383095Y-5017714D02*
X9364048Y-5027238D01*
X9364048Y-5027238D02*
X9354524Y-5036762D01*
X9354524Y-5036762D02*
X9345000Y-5055810D01*
X9535476Y-4941524D02*
X9535476Y-4979619D01*
X9611667Y-4941524D02*
X9611667Y-4979619D01*
X9906905Y-5217714D02*
X9897381Y-5208190D01*
X9897381Y-5208190D02*
X9878334Y-5179619D01*
X9878334Y-5179619D02*
X9868810Y-5160571D01*
X9868810Y-5160571D02*
X9859286Y-5132000D01*
X9859286Y-5132000D02*
X9849762Y-5084381D01*
X9849762Y-5084381D02*
X9849762Y-5046286D01*
X9849762Y-5046286D02*
X9859286Y-4998667D01*
X9859286Y-4998667D02*
X9868810Y-4970095D01*
X9868810Y-4970095D02*
X9878334Y-4951048D01*
X9878334Y-4951048D02*
X9897381Y-4922476D01*
X9897381Y-4922476D02*
X9906905Y-4912952D01*
X9973572Y-4960571D02*
X9983096Y-4951048D01*
X9983096Y-4951048D02*
X10002143Y-4941524D01*
X10002143Y-4941524D02*
X10049762Y-4941524D01*
X10049762Y-4941524D02*
X10068810Y-4951048D01*
X10068810Y-4951048D02*
X10078334Y-4960571D01*
X10078334Y-4960571D02*
X10087857Y-4979619D01*
X10087857Y-4979619D02*
X10087857Y-4998667D01*
X10087857Y-4998667D02*
X10078334Y-5027238D01*
X10078334Y-5027238D02*
X9964048Y-5141524D01*
X9964048Y-5141524D02*
X10087857Y-5141524D01*
X10325953Y-5141524D02*
X10325953Y-4941524D01*
X10411667Y-5141524D02*
X10411667Y-5036762D01*
X10411667Y-5036762D02*
X10402143Y-5017714D01*
X10402143Y-5017714D02*
X10383096Y-5008190D01*
X10383096Y-5008190D02*
X10354524Y-5008190D01*
X10354524Y-5008190D02*
X10335477Y-5017714D01*
X10335477Y-5017714D02*
X10325953Y-5027238D01*
X10535477Y-5141524D02*
X10516429Y-5132000D01*
X10516429Y-5132000D02*
X10506905Y-5122476D01*
X10506905Y-5122476D02*
X10497381Y-5103429D01*
X10497381Y-5103429D02*
X10497381Y-5046286D01*
X10497381Y-5046286D02*
X10506905Y-5027238D01*
X10506905Y-5027238D02*
X10516429Y-5017714D01*
X10516429Y-5017714D02*
X10535477Y-5008190D01*
X10535477Y-5008190D02*
X10564048Y-5008190D01*
X10564048Y-5008190D02*
X10583096Y-5017714D01*
X10583096Y-5017714D02*
X10592619Y-5027238D01*
X10592619Y-5027238D02*
X10602143Y-5046286D01*
X10602143Y-5046286D02*
X10602143Y-5103429D01*
X10602143Y-5103429D02*
X10592619Y-5122476D01*
X10592619Y-5122476D02*
X10583096Y-5132000D01*
X10583096Y-5132000D02*
X10564048Y-5141524D01*
X10564048Y-5141524D02*
X10535477Y-5141524D01*
X10716429Y-5141524D02*
X10697381Y-5132000D01*
X10697381Y-5132000D02*
X10687858Y-5112952D01*
X10687858Y-5112952D02*
X10687858Y-4941524D01*
X10868810Y-5132000D02*
X10849762Y-5141524D01*
X10849762Y-5141524D02*
X10811667Y-5141524D01*
X10811667Y-5141524D02*
X10792619Y-5132000D01*
X10792619Y-5132000D02*
X10783096Y-5112952D01*
X10783096Y-5112952D02*
X10783096Y-5036762D01*
X10783096Y-5036762D02*
X10792619Y-5017714D01*
X10792619Y-5017714D02*
X10811667Y-5008190D01*
X10811667Y-5008190D02*
X10849762Y-5008190D01*
X10849762Y-5008190D02*
X10868810Y-5017714D01*
X10868810Y-5017714D02*
X10878334Y-5036762D01*
X10878334Y-5036762D02*
X10878334Y-5055810D01*
X10878334Y-5055810D02*
X10783096Y-5074857D01*
X10954524Y-5132000D02*
X10973572Y-5141524D01*
X10973572Y-5141524D02*
X11011667Y-5141524D01*
X11011667Y-5141524D02*
X11030715Y-5132000D01*
X11030715Y-5132000D02*
X11040239Y-5112952D01*
X11040239Y-5112952D02*
X11040239Y-5103429D01*
X11040239Y-5103429D02*
X11030715Y-5084381D01*
X11030715Y-5084381D02*
X11011667Y-5074857D01*
X11011667Y-5074857D02*
X10983096Y-5074857D01*
X10983096Y-5074857D02*
X10964048Y-5065333D01*
X10964048Y-5065333D02*
X10954524Y-5046286D01*
X10954524Y-5046286D02*
X10954524Y-5036762D01*
X10954524Y-5036762D02*
X10964048Y-5017714D01*
X10964048Y-5017714D02*
X10983096Y-5008190D01*
X10983096Y-5008190D02*
X11011667Y-5008190D01*
X11011667Y-5008190D02*
X11030715Y-5017714D01*
X11106905Y-5217714D02*
X11116429Y-5208190D01*
X11116429Y-5208190D02*
X11135477Y-5179619D01*
X11135477Y-5179619D02*
X11145000Y-5160571D01*
X11145000Y-5160571D02*
X11154524Y-5132000D01*
X11154524Y-5132000D02*
X11164048Y-5084381D01*
X11164048Y-5084381D02*
X11164048Y-5046286D01*
X11164048Y-5046286D02*
X11154524Y-4998667D01*
X11154524Y-4998667D02*
X11145000Y-4970095D01*
X11145000Y-4970095D02*
X11135477Y-4951048D01*
X11135477Y-4951048D02*
X11116429Y-4922476D01*
X11116429Y-4922476D02*
X11106905Y-4912952D01*
X6245000Y-5213000D02*
X6245000Y-5413000D01*
X6145000Y-5313000D02*
X6345000Y-5313000D01*
X6583095Y-5224571D02*
X6592619Y-5215048D01*
X6592619Y-5215048D02*
X6611667Y-5205524D01*
X6611667Y-5205524D02*
X6659286Y-5205524D01*
X6659286Y-5205524D02*
X6678333Y-5215048D01*
X6678333Y-5215048D02*
X6687857Y-5224571D01*
X6687857Y-5224571D02*
X6697381Y-5243619D01*
X6697381Y-5243619D02*
X6697381Y-5262667D01*
X6697381Y-5262667D02*
X6687857Y-5291238D01*
X6687857Y-5291238D02*
X6573571Y-5405524D01*
X6573571Y-5405524D02*
X6697381Y-5405524D01*
X6783095Y-5386476D02*
X6792619Y-5396000D01*
X6792619Y-5396000D02*
X6783095Y-5405524D01*
X6783095Y-5405524D02*
X6773571Y-5396000D01*
X6773571Y-5396000D02*
X6783095Y-5386476D01*
X6783095Y-5386476D02*
X6783095Y-5405524D01*
X6983095Y-5405524D02*
X6868809Y-5405524D01*
X6925952Y-5405524D02*
X6925952Y-5205524D01*
X6925952Y-5205524D02*
X6906905Y-5234095D01*
X6906905Y-5234095D02*
X6887857Y-5253143D01*
X6887857Y-5253143D02*
X6868809Y-5262667D01*
X7106905Y-5205524D02*
X7125952Y-5205524D01*
X7125952Y-5205524D02*
X7145000Y-5215048D01*
X7145000Y-5215048D02*
X7154524Y-5224571D01*
X7154524Y-5224571D02*
X7164048Y-5243619D01*
X7164048Y-5243619D02*
X7173571Y-5281714D01*
X7173571Y-5281714D02*
X7173571Y-5329333D01*
X7173571Y-5329333D02*
X7164048Y-5367429D01*
X7164048Y-5367429D02*
X7154524Y-5386476D01*
X7154524Y-5386476D02*
X7145000Y-5396000D01*
X7145000Y-5396000D02*
X7125952Y-5405524D01*
X7125952Y-5405524D02*
X7106905Y-5405524D01*
X7106905Y-5405524D02*
X7087857Y-5396000D01*
X7087857Y-5396000D02*
X7078333Y-5386476D01*
X7078333Y-5386476D02*
X7068809Y-5367429D01*
X7068809Y-5367429D02*
X7059286Y-5329333D01*
X7059286Y-5329333D02*
X7059286Y-5281714D01*
X7059286Y-5281714D02*
X7068809Y-5243619D01*
X7068809Y-5243619D02*
X7078333Y-5224571D01*
X7078333Y-5224571D02*
X7087857Y-5215048D01*
X7087857Y-5215048D02*
X7106905Y-5205524D01*
X7297381Y-5205524D02*
X7316429Y-5205524D01*
X7316429Y-5205524D02*
X7335476Y-5215048D01*
X7335476Y-5215048D02*
X7345000Y-5224571D01*
X7345000Y-5224571D02*
X7354524Y-5243619D01*
X7354524Y-5243619D02*
X7364048Y-5281714D01*
X7364048Y-5281714D02*
X7364048Y-5329333D01*
X7364048Y-5329333D02*
X7354524Y-5367429D01*
X7354524Y-5367429D02*
X7345000Y-5386476D01*
X7345000Y-5386476D02*
X7335476Y-5396000D01*
X7335476Y-5396000D02*
X7316429Y-5405524D01*
X7316429Y-5405524D02*
X7297381Y-5405524D01*
X7297381Y-5405524D02*
X7278333Y-5396000D01*
X7278333Y-5396000D02*
X7268809Y-5386476D01*
X7268809Y-5386476D02*
X7259286Y-5367429D01*
X7259286Y-5367429D02*
X7249762Y-5329333D01*
X7249762Y-5329333D02*
X7249762Y-5281714D01*
X7249762Y-5281714D02*
X7259286Y-5243619D01*
X7259286Y-5243619D02*
X7268809Y-5224571D01*
X7268809Y-5224571D02*
X7278333Y-5215048D01*
X7278333Y-5215048D02*
X7297381Y-5205524D01*
X7449762Y-5405524D02*
X7449762Y-5272190D01*
X7449762Y-5291238D02*
X7459286Y-5281714D01*
X7459286Y-5281714D02*
X7478333Y-5272190D01*
X7478333Y-5272190D02*
X7506905Y-5272190D01*
X7506905Y-5272190D02*
X7525952Y-5281714D01*
X7525952Y-5281714D02*
X7535476Y-5300762D01*
X7535476Y-5300762D02*
X7535476Y-5405524D01*
X7535476Y-5300762D02*
X7545000Y-5281714D01*
X7545000Y-5281714D02*
X7564048Y-5272190D01*
X7564048Y-5272190D02*
X7592619Y-5272190D01*
X7592619Y-5272190D02*
X7611667Y-5281714D01*
X7611667Y-5281714D02*
X7621190Y-5300762D01*
X7621190Y-5300762D02*
X7621190Y-5405524D01*
X7716429Y-5405524D02*
X7716429Y-5272190D01*
X7716429Y-5291238D02*
X7725952Y-5281714D01*
X7725952Y-5281714D02*
X7745000Y-5272190D01*
X7745000Y-5272190D02*
X7773571Y-5272190D01*
X7773571Y-5272190D02*
X7792619Y-5281714D01*
X7792619Y-5281714D02*
X7802143Y-5300762D01*
X7802143Y-5300762D02*
X7802143Y-5405524D01*
X7802143Y-5300762D02*
X7811667Y-5281714D01*
X7811667Y-5281714D02*
X7830714Y-5272190D01*
X7830714Y-5272190D02*
X7859286Y-5272190D01*
X7859286Y-5272190D02*
X7878333Y-5281714D01*
X7878333Y-5281714D02*
X7887857Y-5300762D01*
X7887857Y-5300762D02*
X7887857Y-5405524D01*
X8278333Y-5196000D02*
X8106905Y-5453143D01*
X8535476Y-5205524D02*
X8554524Y-5205524D01*
X8554524Y-5205524D02*
X8573572Y-5215048D01*
X8573572Y-5215048D02*
X8583095Y-5224571D01*
X8583095Y-5224571D02*
X8592619Y-5243619D01*
X8592619Y-5243619D02*
X8602143Y-5281714D01*
X8602143Y-5281714D02*
X8602143Y-5329333D01*
X8602143Y-5329333D02*
X8592619Y-5367429D01*
X8592619Y-5367429D02*
X8583095Y-5386476D01*
X8583095Y-5386476D02*
X8573572Y-5396000D01*
X8573572Y-5396000D02*
X8554524Y-5405524D01*
X8554524Y-5405524D02*
X8535476Y-5405524D01*
X8535476Y-5405524D02*
X8516429Y-5396000D01*
X8516429Y-5396000D02*
X8506905Y-5386476D01*
X8506905Y-5386476D02*
X8497381Y-5367429D01*
X8497381Y-5367429D02*
X8487857Y-5329333D01*
X8487857Y-5329333D02*
X8487857Y-5281714D01*
X8487857Y-5281714D02*
X8497381Y-5243619D01*
X8497381Y-5243619D02*
X8506905Y-5224571D01*
X8506905Y-5224571D02*
X8516429Y-5215048D01*
X8516429Y-5215048D02*
X8535476Y-5205524D01*
X8687857Y-5386476D02*
X8697381Y-5396000D01*
X8697381Y-5396000D02*
X8687857Y-5405524D01*
X8687857Y-5405524D02*
X8678334Y-5396000D01*
X8678334Y-5396000D02*
X8687857Y-5386476D01*
X8687857Y-5386476D02*
X8687857Y-5405524D01*
X8821191Y-5205524D02*
X8840238Y-5205524D01*
X8840238Y-5205524D02*
X8859286Y-5215048D01*
X8859286Y-5215048D02*
X8868810Y-5224571D01*
X8868810Y-5224571D02*
X8878334Y-5243619D01*
X8878334Y-5243619D02*
X8887857Y-5281714D01*
X8887857Y-5281714D02*
X8887857Y-5329333D01*
X8887857Y-5329333D02*
X8878334Y-5367429D01*
X8878334Y-5367429D02*
X8868810Y-5386476D01*
X8868810Y-5386476D02*
X8859286Y-5396000D01*
X8859286Y-5396000D02*
X8840238Y-5405524D01*
X8840238Y-5405524D02*
X8821191Y-5405524D01*
X8821191Y-5405524D02*
X8802143Y-5396000D01*
X8802143Y-5396000D02*
X8792619Y-5386476D01*
X8792619Y-5386476D02*
X8783095Y-5367429D01*
X8783095Y-5367429D02*
X8773572Y-5329333D01*
X8773572Y-5329333D02*
X8773572Y-5281714D01*
X8773572Y-5281714D02*
X8783095Y-5243619D01*
X8783095Y-5243619D02*
X8792619Y-5224571D01*
X8792619Y-5224571D02*
X8802143Y-5215048D01*
X8802143Y-5215048D02*
X8821191Y-5205524D01*
X9002143Y-5291238D02*
X8983095Y-5281714D01*
X8983095Y-5281714D02*
X8973572Y-5272190D01*
X8973572Y-5272190D02*
X8964048Y-5253143D01*
X8964048Y-5253143D02*
X8964048Y-5243619D01*
X8964048Y-5243619D02*
X8973572Y-5224571D01*
X8973572Y-5224571D02*
X8983095Y-5215048D01*
X8983095Y-5215048D02*
X9002143Y-5205524D01*
X9002143Y-5205524D02*
X9040238Y-5205524D01*
X9040238Y-5205524D02*
X9059286Y-5215048D01*
X9059286Y-5215048D02*
X9068810Y-5224571D01*
X9068810Y-5224571D02*
X9078334Y-5243619D01*
X9078334Y-5243619D02*
X9078334Y-5253143D01*
X9078334Y-5253143D02*
X9068810Y-5272190D01*
X9068810Y-5272190D02*
X9059286Y-5281714D01*
X9059286Y-5281714D02*
X9040238Y-5291238D01*
X9040238Y-5291238D02*
X9002143Y-5291238D01*
X9002143Y-5291238D02*
X8983095Y-5300762D01*
X8983095Y-5300762D02*
X8973572Y-5310286D01*
X8973572Y-5310286D02*
X8964048Y-5329333D01*
X8964048Y-5329333D02*
X8964048Y-5367429D01*
X8964048Y-5367429D02*
X8973572Y-5386476D01*
X8973572Y-5386476D02*
X8983095Y-5396000D01*
X8983095Y-5396000D02*
X9002143Y-5405524D01*
X9002143Y-5405524D02*
X9040238Y-5405524D01*
X9040238Y-5405524D02*
X9059286Y-5396000D01*
X9059286Y-5396000D02*
X9068810Y-5386476D01*
X9068810Y-5386476D02*
X9078334Y-5367429D01*
X9078334Y-5367429D02*
X9078334Y-5329333D01*
X9078334Y-5329333D02*
X9068810Y-5310286D01*
X9068810Y-5310286D02*
X9059286Y-5300762D01*
X9059286Y-5300762D02*
X9040238Y-5291238D01*
X9154524Y-5224571D02*
X9164048Y-5215048D01*
X9164048Y-5215048D02*
X9183095Y-5205524D01*
X9183095Y-5205524D02*
X9230715Y-5205524D01*
X9230715Y-5205524D02*
X9249762Y-5215048D01*
X9249762Y-5215048D02*
X9259286Y-5224571D01*
X9259286Y-5224571D02*
X9268810Y-5243619D01*
X9268810Y-5243619D02*
X9268810Y-5262667D01*
X9268810Y-5262667D02*
X9259286Y-5291238D01*
X9259286Y-5291238D02*
X9145000Y-5405524D01*
X9145000Y-5405524D02*
X9268810Y-5405524D01*
X9335476Y-5205524D02*
X9468810Y-5205524D01*
X9468810Y-5205524D02*
X9383095Y-5405524D01*
X9535476Y-5205524D02*
X9535476Y-5243619D01*
X9611667Y-5205524D02*
X9611667Y-5243619D01*
X9906905Y-5481714D02*
X9897381Y-5472190D01*
X9897381Y-5472190D02*
X9878334Y-5443619D01*
X9878334Y-5443619D02*
X9868810Y-5424571D01*
X9868810Y-5424571D02*
X9859286Y-5396000D01*
X9859286Y-5396000D02*
X9849762Y-5348381D01*
X9849762Y-5348381D02*
X9849762Y-5310286D01*
X9849762Y-5310286D02*
X9859286Y-5262667D01*
X9859286Y-5262667D02*
X9868810Y-5234095D01*
X9868810Y-5234095D02*
X9878334Y-5215048D01*
X9878334Y-5215048D02*
X9897381Y-5186476D01*
X9897381Y-5186476D02*
X9906905Y-5176952D01*
X9973572Y-5224571D02*
X9983096Y-5215048D01*
X9983096Y-5215048D02*
X10002143Y-5205524D01*
X10002143Y-5205524D02*
X10049762Y-5205524D01*
X10049762Y-5205524D02*
X10068810Y-5215048D01*
X10068810Y-5215048D02*
X10078334Y-5224571D01*
X10078334Y-5224571D02*
X10087857Y-5243619D01*
X10087857Y-5243619D02*
X10087857Y-5262667D01*
X10087857Y-5262667D02*
X10078334Y-5291238D01*
X10078334Y-5291238D02*
X9964048Y-5405524D01*
X9964048Y-5405524D02*
X10087857Y-5405524D01*
X10325953Y-5405524D02*
X10325953Y-5205524D01*
X10411667Y-5405524D02*
X10411667Y-5300762D01*
X10411667Y-5300762D02*
X10402143Y-5281714D01*
X10402143Y-5281714D02*
X10383096Y-5272190D01*
X10383096Y-5272190D02*
X10354524Y-5272190D01*
X10354524Y-5272190D02*
X10335477Y-5281714D01*
X10335477Y-5281714D02*
X10325953Y-5291238D01*
X10535477Y-5405524D02*
X10516429Y-5396000D01*
X10516429Y-5396000D02*
X10506905Y-5386476D01*
X10506905Y-5386476D02*
X10497381Y-5367429D01*
X10497381Y-5367429D02*
X10497381Y-5310286D01*
X10497381Y-5310286D02*
X10506905Y-5291238D01*
X10506905Y-5291238D02*
X10516429Y-5281714D01*
X10516429Y-5281714D02*
X10535477Y-5272190D01*
X10535477Y-5272190D02*
X10564048Y-5272190D01*
X10564048Y-5272190D02*
X10583096Y-5281714D01*
X10583096Y-5281714D02*
X10592619Y-5291238D01*
X10592619Y-5291238D02*
X10602143Y-5310286D01*
X10602143Y-5310286D02*
X10602143Y-5367429D01*
X10602143Y-5367429D02*
X10592619Y-5386476D01*
X10592619Y-5386476D02*
X10583096Y-5396000D01*
X10583096Y-5396000D02*
X10564048Y-5405524D01*
X10564048Y-5405524D02*
X10535477Y-5405524D01*
X10716429Y-5405524D02*
X10697381Y-5396000D01*
X10697381Y-5396000D02*
X10687858Y-5376952D01*
X10687858Y-5376952D02*
X10687858Y-5205524D01*
X10868810Y-5396000D02*
X10849762Y-5405524D01*
X10849762Y-5405524D02*
X10811667Y-5405524D01*
X10811667Y-5405524D02*
X10792619Y-5396000D01*
X10792619Y-5396000D02*
X10783096Y-5376952D01*
X10783096Y-5376952D02*
X10783096Y-5300762D01*
X10783096Y-5300762D02*
X10792619Y-5281714D01*
X10792619Y-5281714D02*
X10811667Y-5272190D01*
X10811667Y-5272190D02*
X10849762Y-5272190D01*
X10849762Y-5272190D02*
X10868810Y-5281714D01*
X10868810Y-5281714D02*
X10878334Y-5300762D01*
X10878334Y-5300762D02*
X10878334Y-5319810D01*
X10878334Y-5319810D02*
X10783096Y-5338857D01*
X10954524Y-5396000D02*
X10973572Y-5405524D01*
X10973572Y-5405524D02*
X11011667Y-5405524D01*
X11011667Y-5405524D02*
X11030715Y-5396000D01*
X11030715Y-5396000D02*
X11040239Y-5376952D01*
X11040239Y-5376952D02*
X11040239Y-5367429D01*
X11040239Y-5367429D02*
X11030715Y-5348381D01*
X11030715Y-5348381D02*
X11011667Y-5338857D01*
X11011667Y-5338857D02*
X10983096Y-5338857D01*
X10983096Y-5338857D02*
X10964048Y-5329333D01*
X10964048Y-5329333D02*
X10954524Y-5310286D01*
X10954524Y-5310286D02*
X10954524Y-5300762D01*
X10954524Y-5300762D02*
X10964048Y-5281714D01*
X10964048Y-5281714D02*
X10983096Y-5272190D01*
X10983096Y-5272190D02*
X11011667Y-5272190D01*
X11011667Y-5272190D02*
X11030715Y-5281714D01*
X11106905Y-5481714D02*
X11116429Y-5472190D01*
X11116429Y-5472190D02*
X11135477Y-5443619D01*
X11135477Y-5443619D02*
X11145000Y-5424571D01*
X11145000Y-5424571D02*
X11154524Y-5396000D01*
X11154524Y-5396000D02*
X11164048Y-5348381D01*
X11164048Y-5348381D02*
X11164048Y-5310286D01*
X11164048Y-5310286D02*
X11154524Y-5262667D01*
X11154524Y-5262667D02*
X11145000Y-5234095D01*
X11145000Y-5234095D02*
X11135477Y-5215048D01*
X11135477Y-5215048D02*
X11116429Y-5186476D01*
X11116429Y-5186476D02*
X11106905Y-5176952D01*
M02*
