M48
; DRILL file {KiCad 7.0.1} date Thu Apr 20 14:44:09 2023
; FORMAT={-:-/ absolute / inch / decimal}
; #@! TF.CreationDate,2023-04-20T14:44:09+09:00
; #@! TF.GenerationSoftware,Kicad,Pcbnew,7.0.1
; #@! TF.FileFunction,Plated,1,2,PTH
FMAT,2
INCH
; #@! TA.AperFunction,Plated,PTH,ViaDrill
T1C0.0157
; #@! TA.AperFunction,Plated,PTH,ComponentDrill
T2C0.0236
; #@! TA.AperFunction,Plated,PTH,ComponentDrill
T3C0.0827
%
G90
G05
T1
X2.6602Y-1.2115
X2.6929Y-1.563
X2.7441Y-1.378
X2.8583Y-1.4951
X2.9409Y-1.1063
X2.9724Y-1.5669
X3.0197Y-1.4941
X3.0472Y-1.1063
X3.0472Y-1.1811
X3.0551Y-1.5551
X3.185Y-1.3031
X3.2795Y-1.2638
X3.2795Y-1.3031
X3.6063Y-1.1614
X3.6102Y-1.1102
X3.6142Y-1.3622
X3.6142Y-1.4134
X3.7264Y-1.3602
X3.7835Y-1.2087
X3.8524Y-1.1673
X4.1417Y-1.5197
X4.4134Y-1.1693
X4.622Y-1.2598
X4.6339Y-1.0669
X4.6772Y-1.4557
T2
X2.9094Y-1.2283
X2.9094Y-1.3701
T3
X3.1693Y-1.4331
X4.1732Y-1.1969
T0
M30
