%TF.GenerationSoftware,KiCad,Pcbnew,7.0.1*%
%TF.CreationDate,2023-06-14T02:20:09+09:00*%
%TF.ProjectId,dcc-adapter-board-kato-1.310-21mtc,6463632d-6164-4617-9074-65722d626f61,rev?*%
%TF.SameCoordinates,Original*%
%TF.FileFunction,AssemblyDrawing,Top*%
%FSLAX46Y46*%
G04 Gerber Fmt 4.6, Leading zero omitted, Abs format (unit mm)*
G04 Created by KiCad (PCBNEW 7.0.1) date 2023-06-14 02:20:09*
%MOMM*%
%LPD*%
G01*
G04 APERTURE LIST*
%ADD10C,0.150000*%
%ADD11C,0.060000*%
%ADD12C,0.050000*%
%ADD13C,0.100000*%
G04 APERTURE END LIST*
D10*
%TO.C,21MTC1*%
X85497714Y-40876857D02*
X85545333Y-40829238D01*
X85545333Y-40829238D02*
X85640571Y-40781619D01*
X85640571Y-40781619D02*
X85878666Y-40781619D01*
X85878666Y-40781619D02*
X85973904Y-40829238D01*
X85973904Y-40829238D02*
X86021523Y-40876857D01*
X86021523Y-40876857D02*
X86069142Y-40972095D01*
X86069142Y-40972095D02*
X86069142Y-41067333D01*
X86069142Y-41067333D02*
X86021523Y-41210190D01*
X86021523Y-41210190D02*
X85450095Y-41781619D01*
X85450095Y-41781619D02*
X86069142Y-41781619D01*
X87021523Y-41781619D02*
X86450095Y-41781619D01*
X86735809Y-41781619D02*
X86735809Y-40781619D01*
X86735809Y-40781619D02*
X86640571Y-40924476D01*
X86640571Y-40924476D02*
X86545333Y-41019714D01*
X86545333Y-41019714D02*
X86450095Y-41067333D01*
X87450095Y-41781619D02*
X87450095Y-40781619D01*
X87450095Y-40781619D02*
X87783428Y-41495904D01*
X87783428Y-41495904D02*
X88116761Y-40781619D01*
X88116761Y-40781619D02*
X88116761Y-41781619D01*
X88450095Y-40781619D02*
X89021523Y-40781619D01*
X88735809Y-41781619D02*
X88735809Y-40781619D01*
X89926285Y-41686380D02*
X89878666Y-41734000D01*
X89878666Y-41734000D02*
X89735809Y-41781619D01*
X89735809Y-41781619D02*
X89640571Y-41781619D01*
X89640571Y-41781619D02*
X89497714Y-41734000D01*
X89497714Y-41734000D02*
X89402476Y-41638761D01*
X89402476Y-41638761D02*
X89354857Y-41543523D01*
X89354857Y-41543523D02*
X89307238Y-41353047D01*
X89307238Y-41353047D02*
X89307238Y-41210190D01*
X89307238Y-41210190D02*
X89354857Y-41019714D01*
X89354857Y-41019714D02*
X89402476Y-40924476D01*
X89402476Y-40924476D02*
X89497714Y-40829238D01*
X89497714Y-40829238D02*
X89640571Y-40781619D01*
X89640571Y-40781619D02*
X89735809Y-40781619D01*
X89735809Y-40781619D02*
X89878666Y-40829238D01*
X89878666Y-40829238D02*
X89926285Y-40876857D01*
X87269857Y-35964475D02*
X87222238Y-35916856D01*
X87222238Y-35916856D02*
X87174619Y-35821618D01*
X87174619Y-35821618D02*
X87174619Y-35583523D01*
X87174619Y-35583523D02*
X87222238Y-35488285D01*
X87222238Y-35488285D02*
X87269857Y-35440666D01*
X87269857Y-35440666D02*
X87365095Y-35393047D01*
X87365095Y-35393047D02*
X87460333Y-35393047D01*
X87460333Y-35393047D02*
X87603190Y-35440666D01*
X87603190Y-35440666D02*
X88174619Y-36012094D01*
X88174619Y-36012094D02*
X88174619Y-35393047D01*
X88174619Y-34440666D02*
X88174619Y-35012094D01*
X88174619Y-34726380D02*
X87174619Y-34726380D01*
X87174619Y-34726380D02*
X87317476Y-34821618D01*
X87317476Y-34821618D02*
X87412714Y-34916856D01*
X87412714Y-34916856D02*
X87460333Y-35012094D01*
X88174619Y-34012094D02*
X87174619Y-34012094D01*
X87174619Y-34012094D02*
X87888904Y-33678761D01*
X87888904Y-33678761D02*
X87174619Y-33345428D01*
X87174619Y-33345428D02*
X88174619Y-33345428D01*
X87174619Y-33012094D02*
X87174619Y-32440666D01*
X88174619Y-32726380D02*
X87174619Y-32726380D01*
X88079380Y-31535904D02*
X88127000Y-31583523D01*
X88127000Y-31583523D02*
X88174619Y-31726380D01*
X88174619Y-31726380D02*
X88174619Y-31821618D01*
X88174619Y-31821618D02*
X88127000Y-31964475D01*
X88127000Y-31964475D02*
X88031761Y-32059713D01*
X88031761Y-32059713D02*
X87936523Y-32107332D01*
X87936523Y-32107332D02*
X87746047Y-32154951D01*
X87746047Y-32154951D02*
X87603190Y-32154951D01*
X87603190Y-32154951D02*
X87412714Y-32107332D01*
X87412714Y-32107332D02*
X87317476Y-32059713D01*
X87317476Y-32059713D02*
X87222238Y-31964475D01*
X87222238Y-31964475D02*
X87174619Y-31821618D01*
X87174619Y-31821618D02*
X87174619Y-31726380D01*
X87174619Y-31726380D02*
X87222238Y-31583523D01*
X87222238Y-31583523D02*
X87269857Y-31535904D01*
X88174619Y-30583523D02*
X88174619Y-31154951D01*
X88174619Y-30869237D02*
X87174619Y-30869237D01*
X87174619Y-30869237D02*
X87317476Y-30964475D01*
X87317476Y-30964475D02*
X87412714Y-31059713D01*
X87412714Y-31059713D02*
X87460333Y-31154951D01*
%TO.C,R_{Front_Right}1*%
X117792619Y-37577976D02*
X117316428Y-37911309D01*
X117792619Y-38149404D02*
X116792619Y-38149404D01*
X116792619Y-38149404D02*
X116792619Y-37768452D01*
X116792619Y-37768452D02*
X116840238Y-37673214D01*
X116840238Y-37673214D02*
X116887857Y-37625595D01*
X116887857Y-37625595D02*
X116983095Y-37577976D01*
X116983095Y-37577976D02*
X117125952Y-37577976D01*
X117125952Y-37577976D02*
X117221190Y-37625595D01*
X117221190Y-37625595D02*
X117268809Y-37673214D01*
X117268809Y-37673214D02*
X117316428Y-37768452D01*
X117316428Y-37768452D02*
X117316428Y-38149404D01*
D11*
X116085047Y-39140831D02*
X115894571Y-39274164D01*
X116085047Y-39369402D02*
X115685047Y-39369402D01*
X115685047Y-39369402D02*
X115685047Y-39217021D01*
X115685047Y-39217021D02*
X115704095Y-39178926D01*
X115704095Y-39178926D02*
X115723142Y-39159879D01*
X115723142Y-39159879D02*
X115761238Y-39140831D01*
X115761238Y-39140831D02*
X115818380Y-39140831D01*
X115818380Y-39140831D02*
X115856476Y-39159879D01*
X115856476Y-39159879D02*
X115875523Y-39178926D01*
X115875523Y-39178926D02*
X115894571Y-39217021D01*
X115894571Y-39217021D02*
X115894571Y-39369402D01*
X116016666Y-38904641D02*
X116016666Y-38997974D01*
X116163333Y-38997974D02*
X115883333Y-38997974D01*
X115883333Y-38997974D02*
X115883333Y-38864641D01*
X116163333Y-38757974D02*
X115976666Y-38757974D01*
X116030000Y-38757974D02*
X116003333Y-38744641D01*
X116003333Y-38744641D02*
X115990000Y-38731307D01*
X115990000Y-38731307D02*
X115976666Y-38704641D01*
X115976666Y-38704641D02*
X115976666Y-38677974D01*
X116163333Y-38544641D02*
X116150000Y-38571308D01*
X116150000Y-38571308D02*
X116136666Y-38584641D01*
X116136666Y-38584641D02*
X116110000Y-38597974D01*
X116110000Y-38597974D02*
X116030000Y-38597974D01*
X116030000Y-38597974D02*
X116003333Y-38584641D01*
X116003333Y-38584641D02*
X115990000Y-38571308D01*
X115990000Y-38571308D02*
X115976666Y-38544641D01*
X115976666Y-38544641D02*
X115976666Y-38504641D01*
X115976666Y-38504641D02*
X115990000Y-38477974D01*
X115990000Y-38477974D02*
X116003333Y-38464641D01*
X116003333Y-38464641D02*
X116030000Y-38451308D01*
X116030000Y-38451308D02*
X116110000Y-38451308D01*
X116110000Y-38451308D02*
X116136666Y-38464641D01*
X116136666Y-38464641D02*
X116150000Y-38477974D01*
X116150000Y-38477974D02*
X116163333Y-38504641D01*
X116163333Y-38504641D02*
X116163333Y-38544641D01*
X115976666Y-38331308D02*
X116163333Y-38331308D01*
X116003333Y-38331308D02*
X115990000Y-38317975D01*
X115990000Y-38317975D02*
X115976666Y-38291308D01*
X115976666Y-38291308D02*
X115976666Y-38251308D01*
X115976666Y-38251308D02*
X115990000Y-38224641D01*
X115990000Y-38224641D02*
X116016666Y-38211308D01*
X116016666Y-38211308D02*
X116163333Y-38211308D01*
X115976666Y-38117975D02*
X115976666Y-38011308D01*
X115883333Y-38077975D02*
X116123333Y-38077975D01*
X116123333Y-38077975D02*
X116150000Y-38064642D01*
X116150000Y-38064642D02*
X116163333Y-38037975D01*
X116163333Y-38037975D02*
X116163333Y-38011308D01*
X116190000Y-37984642D02*
X116190000Y-37771308D01*
X116163333Y-37544642D02*
X116030000Y-37637975D01*
X116163333Y-37704642D02*
X115883333Y-37704642D01*
X115883333Y-37704642D02*
X115883333Y-37597975D01*
X115883333Y-37597975D02*
X115896666Y-37571309D01*
X115896666Y-37571309D02*
X115910000Y-37557975D01*
X115910000Y-37557975D02*
X115936666Y-37544642D01*
X115936666Y-37544642D02*
X115976666Y-37544642D01*
X115976666Y-37544642D02*
X116003333Y-37557975D01*
X116003333Y-37557975D02*
X116016666Y-37571309D01*
X116016666Y-37571309D02*
X116030000Y-37597975D01*
X116030000Y-37597975D02*
X116030000Y-37704642D01*
X116163333Y-37424642D02*
X115976666Y-37424642D01*
X115883333Y-37424642D02*
X115896666Y-37437975D01*
X115896666Y-37437975D02*
X115910000Y-37424642D01*
X115910000Y-37424642D02*
X115896666Y-37411309D01*
X115896666Y-37411309D02*
X115883333Y-37424642D01*
X115883333Y-37424642D02*
X115910000Y-37424642D01*
X115976666Y-37171309D02*
X116203333Y-37171309D01*
X116203333Y-37171309D02*
X116230000Y-37184642D01*
X116230000Y-37184642D02*
X116243333Y-37197976D01*
X116243333Y-37197976D02*
X116256666Y-37224642D01*
X116256666Y-37224642D02*
X116256666Y-37264642D01*
X116256666Y-37264642D02*
X116243333Y-37291309D01*
X116150000Y-37171309D02*
X116163333Y-37197976D01*
X116163333Y-37197976D02*
X116163333Y-37251309D01*
X116163333Y-37251309D02*
X116150000Y-37277976D01*
X116150000Y-37277976D02*
X116136666Y-37291309D01*
X116136666Y-37291309D02*
X116110000Y-37304642D01*
X116110000Y-37304642D02*
X116030000Y-37304642D01*
X116030000Y-37304642D02*
X116003333Y-37291309D01*
X116003333Y-37291309D02*
X115990000Y-37277976D01*
X115990000Y-37277976D02*
X115976666Y-37251309D01*
X115976666Y-37251309D02*
X115976666Y-37197976D01*
X115976666Y-37197976D02*
X115990000Y-37171309D01*
X116163333Y-37037976D02*
X115883333Y-37037976D01*
X116163333Y-36917976D02*
X116016666Y-36917976D01*
X116016666Y-36917976D02*
X115990000Y-36931309D01*
X115990000Y-36931309D02*
X115976666Y-36957976D01*
X115976666Y-36957976D02*
X115976666Y-36997976D01*
X115976666Y-36997976D02*
X115990000Y-37024643D01*
X115990000Y-37024643D02*
X116003333Y-37037976D01*
X115976666Y-36824643D02*
X115976666Y-36717976D01*
X115883333Y-36784643D02*
X116123333Y-36784643D01*
X116123333Y-36784643D02*
X116150000Y-36771310D01*
X116150000Y-36771310D02*
X116163333Y-36744643D01*
X116163333Y-36744643D02*
X116163333Y-36717976D01*
X116085047Y-36386548D02*
X116085047Y-36615119D01*
X116085047Y-36500833D02*
X115685047Y-36500833D01*
X115685047Y-36500833D02*
X115742190Y-36538929D01*
X115742190Y-36538929D02*
X115780285Y-36577024D01*
X115780285Y-36577024D02*
X115799333Y-36615119D01*
D10*
%TO.C,Speaker_{2}1*%
X82392857Y-30102619D02*
X82392857Y-30816904D01*
X82392857Y-30816904D02*
X82345238Y-30959761D01*
X82345238Y-30959761D02*
X82250000Y-31055000D01*
X82250000Y-31055000D02*
X82107143Y-31102619D01*
X82107143Y-31102619D02*
X82011905Y-31102619D01*
X78678571Y-28515000D02*
X78821428Y-28562619D01*
X78821428Y-28562619D02*
X79059523Y-28562619D01*
X79059523Y-28562619D02*
X79154761Y-28515000D01*
X79154761Y-28515000D02*
X79202380Y-28467380D01*
X79202380Y-28467380D02*
X79249999Y-28372142D01*
X79249999Y-28372142D02*
X79249999Y-28276904D01*
X79249999Y-28276904D02*
X79202380Y-28181666D01*
X79202380Y-28181666D02*
X79154761Y-28134047D01*
X79154761Y-28134047D02*
X79059523Y-28086428D01*
X79059523Y-28086428D02*
X78869047Y-28038809D01*
X78869047Y-28038809D02*
X78773809Y-27991190D01*
X78773809Y-27991190D02*
X78726190Y-27943571D01*
X78726190Y-27943571D02*
X78678571Y-27848333D01*
X78678571Y-27848333D02*
X78678571Y-27753095D01*
X78678571Y-27753095D02*
X78726190Y-27657857D01*
X78726190Y-27657857D02*
X78773809Y-27610238D01*
X78773809Y-27610238D02*
X78869047Y-27562619D01*
X78869047Y-27562619D02*
X79107142Y-27562619D01*
X79107142Y-27562619D02*
X79249999Y-27610238D01*
X79678571Y-27895952D02*
X79678571Y-28895952D01*
X79678571Y-27943571D02*
X79773809Y-27895952D01*
X79773809Y-27895952D02*
X79964285Y-27895952D01*
X79964285Y-27895952D02*
X80059523Y-27943571D01*
X80059523Y-27943571D02*
X80107142Y-27991190D01*
X80107142Y-27991190D02*
X80154761Y-28086428D01*
X80154761Y-28086428D02*
X80154761Y-28372142D01*
X80154761Y-28372142D02*
X80107142Y-28467380D01*
X80107142Y-28467380D02*
X80059523Y-28515000D01*
X80059523Y-28515000D02*
X79964285Y-28562619D01*
X79964285Y-28562619D02*
X79773809Y-28562619D01*
X79773809Y-28562619D02*
X79678571Y-28515000D01*
X80964285Y-28515000D02*
X80869047Y-28562619D01*
X80869047Y-28562619D02*
X80678571Y-28562619D01*
X80678571Y-28562619D02*
X80583333Y-28515000D01*
X80583333Y-28515000D02*
X80535714Y-28419761D01*
X80535714Y-28419761D02*
X80535714Y-28038809D01*
X80535714Y-28038809D02*
X80583333Y-27943571D01*
X80583333Y-27943571D02*
X80678571Y-27895952D01*
X80678571Y-27895952D02*
X80869047Y-27895952D01*
X80869047Y-27895952D02*
X80964285Y-27943571D01*
X80964285Y-27943571D02*
X81011904Y-28038809D01*
X81011904Y-28038809D02*
X81011904Y-28134047D01*
X81011904Y-28134047D02*
X80535714Y-28229285D01*
X81869047Y-28562619D02*
X81869047Y-28038809D01*
X81869047Y-28038809D02*
X81821428Y-27943571D01*
X81821428Y-27943571D02*
X81726190Y-27895952D01*
X81726190Y-27895952D02*
X81535714Y-27895952D01*
X81535714Y-27895952D02*
X81440476Y-27943571D01*
X81869047Y-28515000D02*
X81773809Y-28562619D01*
X81773809Y-28562619D02*
X81535714Y-28562619D01*
X81535714Y-28562619D02*
X81440476Y-28515000D01*
X81440476Y-28515000D02*
X81392857Y-28419761D01*
X81392857Y-28419761D02*
X81392857Y-28324523D01*
X81392857Y-28324523D02*
X81440476Y-28229285D01*
X81440476Y-28229285D02*
X81535714Y-28181666D01*
X81535714Y-28181666D02*
X81773809Y-28181666D01*
X81773809Y-28181666D02*
X81869047Y-28134047D01*
X82345238Y-28562619D02*
X82345238Y-27562619D01*
X82440476Y-28181666D02*
X82726190Y-28562619D01*
X82726190Y-27895952D02*
X82345238Y-28276904D01*
X83535714Y-28515000D02*
X83440476Y-28562619D01*
X83440476Y-28562619D02*
X83250000Y-28562619D01*
X83250000Y-28562619D02*
X83154762Y-28515000D01*
X83154762Y-28515000D02*
X83107143Y-28419761D01*
X83107143Y-28419761D02*
X83107143Y-28038809D01*
X83107143Y-28038809D02*
X83154762Y-27943571D01*
X83154762Y-27943571D02*
X83250000Y-27895952D01*
X83250000Y-27895952D02*
X83440476Y-27895952D01*
X83440476Y-27895952D02*
X83535714Y-27943571D01*
X83535714Y-27943571D02*
X83583333Y-28038809D01*
X83583333Y-28038809D02*
X83583333Y-28134047D01*
X83583333Y-28134047D02*
X83107143Y-28229285D01*
X84011905Y-28562619D02*
X84011905Y-27895952D01*
X84011905Y-28086428D02*
X84059524Y-27991190D01*
X84059524Y-27991190D02*
X84107143Y-27943571D01*
X84107143Y-27943571D02*
X84202381Y-27895952D01*
X84202381Y-27895952D02*
X84297619Y-27895952D01*
X84526191Y-28125000D02*
X84559524Y-28091666D01*
X84559524Y-28091666D02*
X84626191Y-28058333D01*
X84626191Y-28058333D02*
X84792858Y-28058333D01*
X84792858Y-28058333D02*
X84859524Y-28091666D01*
X84859524Y-28091666D02*
X84892858Y-28125000D01*
X84892858Y-28125000D02*
X84926191Y-28191666D01*
X84926191Y-28191666D02*
X84926191Y-28258333D01*
X84926191Y-28258333D02*
X84892858Y-28358333D01*
X84892858Y-28358333D02*
X84492858Y-28758333D01*
X84492858Y-28758333D02*
X84926191Y-28758333D01*
X85821429Y-28562619D02*
X85250001Y-28562619D01*
X85535715Y-28562619D02*
X85535715Y-27562619D01*
X85535715Y-27562619D02*
X85440477Y-27705476D01*
X85440477Y-27705476D02*
X85345239Y-27800714D01*
X85345239Y-27800714D02*
X85250001Y-27848333D01*
%TO.C,Rail_{Right}1*%
X80642857Y-38612619D02*
X80642857Y-39326904D01*
X80642857Y-39326904D02*
X80595238Y-39469761D01*
X80595238Y-39469761D02*
X80500000Y-39565000D01*
X80500000Y-39565000D02*
X80357143Y-39612619D01*
X80357143Y-39612619D02*
X80261905Y-39612619D01*
X78080333Y-36453366D02*
X77753666Y-35986700D01*
X77520333Y-36453366D02*
X77520333Y-35473366D01*
X77520333Y-35473366D02*
X77893666Y-35473366D01*
X77893666Y-35473366D02*
X77987000Y-35520033D01*
X77987000Y-35520033D02*
X78033666Y-35566700D01*
X78033666Y-35566700D02*
X78080333Y-35660033D01*
X78080333Y-35660033D02*
X78080333Y-35800033D01*
X78080333Y-35800033D02*
X78033666Y-35893366D01*
X78033666Y-35893366D02*
X77987000Y-35940033D01*
X77987000Y-35940033D02*
X77893666Y-35986700D01*
X77893666Y-35986700D02*
X77520333Y-35986700D01*
X78920333Y-36453366D02*
X78920333Y-35940033D01*
X78920333Y-35940033D02*
X78873666Y-35846700D01*
X78873666Y-35846700D02*
X78780333Y-35800033D01*
X78780333Y-35800033D02*
X78593666Y-35800033D01*
X78593666Y-35800033D02*
X78500333Y-35846700D01*
X78920333Y-36406700D02*
X78827000Y-36453366D01*
X78827000Y-36453366D02*
X78593666Y-36453366D01*
X78593666Y-36453366D02*
X78500333Y-36406700D01*
X78500333Y-36406700D02*
X78453666Y-36313366D01*
X78453666Y-36313366D02*
X78453666Y-36220033D01*
X78453666Y-36220033D02*
X78500333Y-36126700D01*
X78500333Y-36126700D02*
X78593666Y-36080033D01*
X78593666Y-36080033D02*
X78827000Y-36080033D01*
X78827000Y-36080033D02*
X78920333Y-36033366D01*
X79387000Y-36453366D02*
X79387000Y-35800033D01*
X79387000Y-35473366D02*
X79340333Y-35520033D01*
X79340333Y-35520033D02*
X79387000Y-35566700D01*
X79387000Y-35566700D02*
X79433667Y-35520033D01*
X79433667Y-35520033D02*
X79387000Y-35473366D01*
X79387000Y-35473366D02*
X79387000Y-35566700D01*
X79993667Y-36453366D02*
X79900334Y-36406700D01*
X79900334Y-36406700D02*
X79853667Y-36313366D01*
X79853667Y-36313366D02*
X79853667Y-35473366D01*
X80689000Y-36645166D02*
X80460333Y-36318500D01*
X80297000Y-36645166D02*
X80297000Y-35959166D01*
X80297000Y-35959166D02*
X80558333Y-35959166D01*
X80558333Y-35959166D02*
X80623667Y-35991833D01*
X80623667Y-35991833D02*
X80656333Y-36024500D01*
X80656333Y-36024500D02*
X80689000Y-36089833D01*
X80689000Y-36089833D02*
X80689000Y-36187833D01*
X80689000Y-36187833D02*
X80656333Y-36253166D01*
X80656333Y-36253166D02*
X80623667Y-36285833D01*
X80623667Y-36285833D02*
X80558333Y-36318500D01*
X80558333Y-36318500D02*
X80297000Y-36318500D01*
X80983000Y-36645166D02*
X80983000Y-36187833D01*
X80983000Y-35959166D02*
X80950333Y-35991833D01*
X80950333Y-35991833D02*
X80983000Y-36024500D01*
X80983000Y-36024500D02*
X81015667Y-35991833D01*
X81015667Y-35991833D02*
X80983000Y-35959166D01*
X80983000Y-35959166D02*
X80983000Y-36024500D01*
X81603667Y-36187833D02*
X81603667Y-36743166D01*
X81603667Y-36743166D02*
X81571000Y-36808500D01*
X81571000Y-36808500D02*
X81538334Y-36841166D01*
X81538334Y-36841166D02*
X81473000Y-36873833D01*
X81473000Y-36873833D02*
X81375000Y-36873833D01*
X81375000Y-36873833D02*
X81309667Y-36841166D01*
X81603667Y-36612500D02*
X81538334Y-36645166D01*
X81538334Y-36645166D02*
X81407667Y-36645166D01*
X81407667Y-36645166D02*
X81342334Y-36612500D01*
X81342334Y-36612500D02*
X81309667Y-36579833D01*
X81309667Y-36579833D02*
X81277000Y-36514500D01*
X81277000Y-36514500D02*
X81277000Y-36318500D01*
X81277000Y-36318500D02*
X81309667Y-36253166D01*
X81309667Y-36253166D02*
X81342334Y-36220500D01*
X81342334Y-36220500D02*
X81407667Y-36187833D01*
X81407667Y-36187833D02*
X81538334Y-36187833D01*
X81538334Y-36187833D02*
X81603667Y-36220500D01*
X81930334Y-36645166D02*
X81930334Y-35959166D01*
X82224334Y-36645166D02*
X82224334Y-36285833D01*
X82224334Y-36285833D02*
X82191667Y-36220500D01*
X82191667Y-36220500D02*
X82126334Y-36187833D01*
X82126334Y-36187833D02*
X82028334Y-36187833D01*
X82028334Y-36187833D02*
X81963001Y-36220500D01*
X81963001Y-36220500D02*
X81930334Y-36253166D01*
X82453001Y-36187833D02*
X82714334Y-36187833D01*
X82551001Y-35959166D02*
X82551001Y-36547166D01*
X82551001Y-36547166D02*
X82583668Y-36612500D01*
X82583668Y-36612500D02*
X82649001Y-36645166D01*
X82649001Y-36645166D02*
X82714334Y-36645166D01*
X83526334Y-36453366D02*
X82966334Y-36453366D01*
X83246334Y-36453366D02*
X83246334Y-35473366D01*
X83246334Y-35473366D02*
X83153001Y-35613366D01*
X83153001Y-35613366D02*
X83059668Y-35706700D01*
X83059668Y-35706700D02*
X82966334Y-35753366D01*
%TO.C,R_{Rear}1*%
X72992619Y-33077976D02*
X72516428Y-33411309D01*
X72992619Y-33649404D02*
X71992619Y-33649404D01*
X71992619Y-33649404D02*
X71992619Y-33268452D01*
X71992619Y-33268452D02*
X72040238Y-33173214D01*
X72040238Y-33173214D02*
X72087857Y-33125595D01*
X72087857Y-33125595D02*
X72183095Y-33077976D01*
X72183095Y-33077976D02*
X72325952Y-33077976D01*
X72325952Y-33077976D02*
X72421190Y-33125595D01*
X72421190Y-33125595D02*
X72468809Y-33173214D01*
X72468809Y-33173214D02*
X72516428Y-33268452D01*
X72516428Y-33268452D02*
X72516428Y-33649404D01*
D11*
X71285047Y-33927499D02*
X71094571Y-34060832D01*
X71285047Y-34156070D02*
X70885047Y-34156070D01*
X70885047Y-34156070D02*
X70885047Y-34003689D01*
X70885047Y-34003689D02*
X70904095Y-33965594D01*
X70904095Y-33965594D02*
X70923142Y-33946547D01*
X70923142Y-33946547D02*
X70961238Y-33927499D01*
X70961238Y-33927499D02*
X71018380Y-33927499D01*
X71018380Y-33927499D02*
X71056476Y-33946547D01*
X71056476Y-33946547D02*
X71075523Y-33965594D01*
X71075523Y-33965594D02*
X71094571Y-34003689D01*
X71094571Y-34003689D02*
X71094571Y-34156070D01*
X71363333Y-33624642D02*
X71230000Y-33717975D01*
X71363333Y-33784642D02*
X71083333Y-33784642D01*
X71083333Y-33784642D02*
X71083333Y-33677975D01*
X71083333Y-33677975D02*
X71096666Y-33651309D01*
X71096666Y-33651309D02*
X71110000Y-33637975D01*
X71110000Y-33637975D02*
X71136666Y-33624642D01*
X71136666Y-33624642D02*
X71176666Y-33624642D01*
X71176666Y-33624642D02*
X71203333Y-33637975D01*
X71203333Y-33637975D02*
X71216666Y-33651309D01*
X71216666Y-33651309D02*
X71230000Y-33677975D01*
X71230000Y-33677975D02*
X71230000Y-33784642D01*
X71350000Y-33397975D02*
X71363333Y-33424642D01*
X71363333Y-33424642D02*
X71363333Y-33477975D01*
X71363333Y-33477975D02*
X71350000Y-33504642D01*
X71350000Y-33504642D02*
X71323333Y-33517975D01*
X71323333Y-33517975D02*
X71216666Y-33517975D01*
X71216666Y-33517975D02*
X71190000Y-33504642D01*
X71190000Y-33504642D02*
X71176666Y-33477975D01*
X71176666Y-33477975D02*
X71176666Y-33424642D01*
X71176666Y-33424642D02*
X71190000Y-33397975D01*
X71190000Y-33397975D02*
X71216666Y-33384642D01*
X71216666Y-33384642D02*
X71243333Y-33384642D01*
X71243333Y-33384642D02*
X71270000Y-33517975D01*
X71363333Y-33144642D02*
X71216666Y-33144642D01*
X71216666Y-33144642D02*
X71190000Y-33157975D01*
X71190000Y-33157975D02*
X71176666Y-33184642D01*
X71176666Y-33184642D02*
X71176666Y-33237975D01*
X71176666Y-33237975D02*
X71190000Y-33264642D01*
X71350000Y-33144642D02*
X71363333Y-33171309D01*
X71363333Y-33171309D02*
X71363333Y-33237975D01*
X71363333Y-33237975D02*
X71350000Y-33264642D01*
X71350000Y-33264642D02*
X71323333Y-33277975D01*
X71323333Y-33277975D02*
X71296666Y-33277975D01*
X71296666Y-33277975D02*
X71270000Y-33264642D01*
X71270000Y-33264642D02*
X71256666Y-33237975D01*
X71256666Y-33237975D02*
X71256666Y-33171309D01*
X71256666Y-33171309D02*
X71243333Y-33144642D01*
X71363333Y-33011309D02*
X71176666Y-33011309D01*
X71230000Y-33011309D02*
X71203333Y-32997976D01*
X71203333Y-32997976D02*
X71190000Y-32984642D01*
X71190000Y-32984642D02*
X71176666Y-32957976D01*
X71176666Y-32957976D02*
X71176666Y-32931309D01*
X71285047Y-32599881D02*
X71285047Y-32828452D01*
X71285047Y-32714166D02*
X70885047Y-32714166D01*
X70885047Y-32714166D02*
X70942190Y-32752262D01*
X70942190Y-32752262D02*
X70980285Y-32790357D01*
X70980285Y-32790357D02*
X70999333Y-32828452D01*
D10*
%TO.C,LED_{Front}1*%
X122262619Y-33661904D02*
X121262619Y-33661904D01*
X121262619Y-33661904D02*
X121262619Y-33423809D01*
X121262619Y-33423809D02*
X121310238Y-33280952D01*
X121310238Y-33280952D02*
X121405476Y-33185714D01*
X121405476Y-33185714D02*
X121500714Y-33138095D01*
X121500714Y-33138095D02*
X121691190Y-33090476D01*
X121691190Y-33090476D02*
X121834047Y-33090476D01*
X121834047Y-33090476D02*
X122024523Y-33138095D01*
X122024523Y-33138095D02*
X122119761Y-33185714D01*
X122119761Y-33185714D02*
X122215000Y-33280952D01*
X122215000Y-33280952D02*
X122262619Y-33423809D01*
X122262619Y-33423809D02*
X122262619Y-33661904D01*
X120562619Y-35869047D02*
X120562619Y-36345237D01*
X120562619Y-36345237D02*
X119562619Y-36345237D01*
X120038809Y-35535713D02*
X120038809Y-35202380D01*
X120562619Y-35059523D02*
X120562619Y-35535713D01*
X120562619Y-35535713D02*
X119562619Y-35535713D01*
X119562619Y-35535713D02*
X119562619Y-35059523D01*
X120562619Y-34630951D02*
X119562619Y-34630951D01*
X119562619Y-34630951D02*
X119562619Y-34392856D01*
X119562619Y-34392856D02*
X119610238Y-34249999D01*
X119610238Y-34249999D02*
X119705476Y-34154761D01*
X119705476Y-34154761D02*
X119800714Y-34107142D01*
X119800714Y-34107142D02*
X119991190Y-34059523D01*
X119991190Y-34059523D02*
X120134047Y-34059523D01*
X120134047Y-34059523D02*
X120324523Y-34107142D01*
X120324523Y-34107142D02*
X120419761Y-34154761D01*
X120419761Y-34154761D02*
X120515000Y-34249999D01*
X120515000Y-34249999D02*
X120562619Y-34392856D01*
X120562619Y-34392856D02*
X120562619Y-34630951D01*
X120391666Y-33469047D02*
X120391666Y-33702380D01*
X120758333Y-33702380D02*
X120058333Y-33702380D01*
X120058333Y-33702380D02*
X120058333Y-33369047D01*
X120758333Y-33102380D02*
X120291666Y-33102380D01*
X120425000Y-33102380D02*
X120358333Y-33069047D01*
X120358333Y-33069047D02*
X120325000Y-33035713D01*
X120325000Y-33035713D02*
X120291666Y-32969047D01*
X120291666Y-32969047D02*
X120291666Y-32902380D01*
X120758333Y-32569047D02*
X120725000Y-32635714D01*
X120725000Y-32635714D02*
X120691666Y-32669047D01*
X120691666Y-32669047D02*
X120625000Y-32702380D01*
X120625000Y-32702380D02*
X120425000Y-32702380D01*
X120425000Y-32702380D02*
X120358333Y-32669047D01*
X120358333Y-32669047D02*
X120325000Y-32635714D01*
X120325000Y-32635714D02*
X120291666Y-32569047D01*
X120291666Y-32569047D02*
X120291666Y-32469047D01*
X120291666Y-32469047D02*
X120325000Y-32402380D01*
X120325000Y-32402380D02*
X120358333Y-32369047D01*
X120358333Y-32369047D02*
X120425000Y-32335714D01*
X120425000Y-32335714D02*
X120625000Y-32335714D01*
X120625000Y-32335714D02*
X120691666Y-32369047D01*
X120691666Y-32369047D02*
X120725000Y-32402380D01*
X120725000Y-32402380D02*
X120758333Y-32469047D01*
X120758333Y-32469047D02*
X120758333Y-32569047D01*
X120291666Y-32035714D02*
X120758333Y-32035714D01*
X120358333Y-32035714D02*
X120325000Y-32002381D01*
X120325000Y-32002381D02*
X120291666Y-31935714D01*
X120291666Y-31935714D02*
X120291666Y-31835714D01*
X120291666Y-31835714D02*
X120325000Y-31769047D01*
X120325000Y-31769047D02*
X120391666Y-31735714D01*
X120391666Y-31735714D02*
X120758333Y-31735714D01*
X120291666Y-31502381D02*
X120291666Y-31235714D01*
X120058333Y-31402381D02*
X120658333Y-31402381D01*
X120658333Y-31402381D02*
X120725000Y-31369048D01*
X120725000Y-31369048D02*
X120758333Y-31302381D01*
X120758333Y-31302381D02*
X120758333Y-31235714D01*
X120562619Y-30407143D02*
X120562619Y-30978571D01*
X120562619Y-30692857D02*
X119562619Y-30692857D01*
X119562619Y-30692857D02*
X119705476Y-30788095D01*
X119705476Y-30788095D02*
X119800714Y-30883333D01*
X119800714Y-30883333D02*
X119848333Y-30978571D01*
%TO.C,R1*%
X74659523Y-30907619D02*
X74088095Y-30907619D01*
X74373809Y-30907619D02*
X74373809Y-29907619D01*
X74373809Y-29907619D02*
X74278571Y-30050476D01*
X74278571Y-30050476D02*
X74183333Y-30145714D01*
X74183333Y-30145714D02*
X74088095Y-30193333D01*
X75088095Y-30907619D02*
X75088095Y-29907619D01*
X75183333Y-30526666D02*
X75469047Y-30907619D01*
X75469047Y-30240952D02*
X75088095Y-30621904D01*
X75850000Y-30907619D02*
X76088095Y-30907619D01*
X76088095Y-30907619D02*
X76088095Y-30717142D01*
X76088095Y-30717142D02*
X75992857Y-30669523D01*
X75992857Y-30669523D02*
X75897619Y-30574285D01*
X75897619Y-30574285D02*
X75850000Y-30431428D01*
X75850000Y-30431428D02*
X75850000Y-30193333D01*
X75850000Y-30193333D02*
X75897619Y-30050476D01*
X75897619Y-30050476D02*
X75992857Y-29955238D01*
X75992857Y-29955238D02*
X76135714Y-29907619D01*
X76135714Y-29907619D02*
X76326190Y-29907619D01*
X76326190Y-29907619D02*
X76469047Y-29955238D01*
X76469047Y-29955238D02*
X76564285Y-30050476D01*
X76564285Y-30050476D02*
X76611904Y-30193333D01*
X76611904Y-30193333D02*
X76611904Y-30431428D01*
X76611904Y-30431428D02*
X76564285Y-30574285D01*
X76564285Y-30574285D02*
X76469047Y-30669523D01*
X76469047Y-30669523D02*
X76373809Y-30717142D01*
X76373809Y-30717142D02*
X76373809Y-30907619D01*
X76373809Y-30907619D02*
X76611904Y-30907619D01*
D11*
X75283333Y-32060047D02*
X75150000Y-31869571D01*
X75054762Y-32060047D02*
X75054762Y-31660047D01*
X75054762Y-31660047D02*
X75207143Y-31660047D01*
X75207143Y-31660047D02*
X75245238Y-31679095D01*
X75245238Y-31679095D02*
X75264285Y-31698142D01*
X75264285Y-31698142D02*
X75283333Y-31736238D01*
X75283333Y-31736238D02*
X75283333Y-31793380D01*
X75283333Y-31793380D02*
X75264285Y-31831476D01*
X75264285Y-31831476D02*
X75245238Y-31850523D01*
X75245238Y-31850523D02*
X75207143Y-31869571D01*
X75207143Y-31869571D02*
X75054762Y-31869571D01*
X75664285Y-32060047D02*
X75435714Y-32060047D01*
X75550000Y-32060047D02*
X75550000Y-31660047D01*
X75550000Y-31660047D02*
X75511904Y-31717190D01*
X75511904Y-31717190D02*
X75473809Y-31755285D01*
X75473809Y-31755285D02*
X75435714Y-31774333D01*
D10*
%TO.C,Speaker_{1}1*%
X81032857Y-30157619D02*
X81032857Y-30871904D01*
X81032857Y-30871904D02*
X80985238Y-31014761D01*
X80985238Y-31014761D02*
X80890000Y-31110000D01*
X80890000Y-31110000D02*
X80747143Y-31157619D01*
X80747143Y-31157619D02*
X80651905Y-31157619D01*
X77403571Y-28515000D02*
X77546428Y-28562619D01*
X77546428Y-28562619D02*
X77784523Y-28562619D01*
X77784523Y-28562619D02*
X77879761Y-28515000D01*
X77879761Y-28515000D02*
X77927380Y-28467380D01*
X77927380Y-28467380D02*
X77974999Y-28372142D01*
X77974999Y-28372142D02*
X77974999Y-28276904D01*
X77974999Y-28276904D02*
X77927380Y-28181666D01*
X77927380Y-28181666D02*
X77879761Y-28134047D01*
X77879761Y-28134047D02*
X77784523Y-28086428D01*
X77784523Y-28086428D02*
X77594047Y-28038809D01*
X77594047Y-28038809D02*
X77498809Y-27991190D01*
X77498809Y-27991190D02*
X77451190Y-27943571D01*
X77451190Y-27943571D02*
X77403571Y-27848333D01*
X77403571Y-27848333D02*
X77403571Y-27753095D01*
X77403571Y-27753095D02*
X77451190Y-27657857D01*
X77451190Y-27657857D02*
X77498809Y-27610238D01*
X77498809Y-27610238D02*
X77594047Y-27562619D01*
X77594047Y-27562619D02*
X77832142Y-27562619D01*
X77832142Y-27562619D02*
X77974999Y-27610238D01*
X78403571Y-27895952D02*
X78403571Y-28895952D01*
X78403571Y-27943571D02*
X78498809Y-27895952D01*
X78498809Y-27895952D02*
X78689285Y-27895952D01*
X78689285Y-27895952D02*
X78784523Y-27943571D01*
X78784523Y-27943571D02*
X78832142Y-27991190D01*
X78832142Y-27991190D02*
X78879761Y-28086428D01*
X78879761Y-28086428D02*
X78879761Y-28372142D01*
X78879761Y-28372142D02*
X78832142Y-28467380D01*
X78832142Y-28467380D02*
X78784523Y-28515000D01*
X78784523Y-28515000D02*
X78689285Y-28562619D01*
X78689285Y-28562619D02*
X78498809Y-28562619D01*
X78498809Y-28562619D02*
X78403571Y-28515000D01*
X79689285Y-28515000D02*
X79594047Y-28562619D01*
X79594047Y-28562619D02*
X79403571Y-28562619D01*
X79403571Y-28562619D02*
X79308333Y-28515000D01*
X79308333Y-28515000D02*
X79260714Y-28419761D01*
X79260714Y-28419761D02*
X79260714Y-28038809D01*
X79260714Y-28038809D02*
X79308333Y-27943571D01*
X79308333Y-27943571D02*
X79403571Y-27895952D01*
X79403571Y-27895952D02*
X79594047Y-27895952D01*
X79594047Y-27895952D02*
X79689285Y-27943571D01*
X79689285Y-27943571D02*
X79736904Y-28038809D01*
X79736904Y-28038809D02*
X79736904Y-28134047D01*
X79736904Y-28134047D02*
X79260714Y-28229285D01*
X80594047Y-28562619D02*
X80594047Y-28038809D01*
X80594047Y-28038809D02*
X80546428Y-27943571D01*
X80546428Y-27943571D02*
X80451190Y-27895952D01*
X80451190Y-27895952D02*
X80260714Y-27895952D01*
X80260714Y-27895952D02*
X80165476Y-27943571D01*
X80594047Y-28515000D02*
X80498809Y-28562619D01*
X80498809Y-28562619D02*
X80260714Y-28562619D01*
X80260714Y-28562619D02*
X80165476Y-28515000D01*
X80165476Y-28515000D02*
X80117857Y-28419761D01*
X80117857Y-28419761D02*
X80117857Y-28324523D01*
X80117857Y-28324523D02*
X80165476Y-28229285D01*
X80165476Y-28229285D02*
X80260714Y-28181666D01*
X80260714Y-28181666D02*
X80498809Y-28181666D01*
X80498809Y-28181666D02*
X80594047Y-28134047D01*
X81070238Y-28562619D02*
X81070238Y-27562619D01*
X81165476Y-28181666D02*
X81451190Y-28562619D01*
X81451190Y-27895952D02*
X81070238Y-28276904D01*
X82260714Y-28515000D02*
X82165476Y-28562619D01*
X82165476Y-28562619D02*
X81975000Y-28562619D01*
X81975000Y-28562619D02*
X81879762Y-28515000D01*
X81879762Y-28515000D02*
X81832143Y-28419761D01*
X81832143Y-28419761D02*
X81832143Y-28038809D01*
X81832143Y-28038809D02*
X81879762Y-27943571D01*
X81879762Y-27943571D02*
X81975000Y-27895952D01*
X81975000Y-27895952D02*
X82165476Y-27895952D01*
X82165476Y-27895952D02*
X82260714Y-27943571D01*
X82260714Y-27943571D02*
X82308333Y-28038809D01*
X82308333Y-28038809D02*
X82308333Y-28134047D01*
X82308333Y-28134047D02*
X81832143Y-28229285D01*
X82736905Y-28562619D02*
X82736905Y-27895952D01*
X82736905Y-28086428D02*
X82784524Y-27991190D01*
X82784524Y-27991190D02*
X82832143Y-27943571D01*
X82832143Y-27943571D02*
X82927381Y-27895952D01*
X82927381Y-27895952D02*
X83022619Y-27895952D01*
X83651191Y-28758333D02*
X83251191Y-28758333D01*
X83451191Y-28758333D02*
X83451191Y-28058333D01*
X83451191Y-28058333D02*
X83384524Y-28158333D01*
X83384524Y-28158333D02*
X83317858Y-28225000D01*
X83317858Y-28225000D02*
X83251191Y-28258333D01*
X84546429Y-28562619D02*
X83975001Y-28562619D01*
X84260715Y-28562619D02*
X84260715Y-27562619D01*
X84260715Y-27562619D02*
X84165477Y-27705476D01*
X84165477Y-27705476D02*
X84070239Y-27800714D01*
X84070239Y-27800714D02*
X83975001Y-27848333D01*
%TO.C,VCC1*%
X117002619Y-40157142D02*
X117716904Y-40157142D01*
X117716904Y-40157142D02*
X117859761Y-40204761D01*
X117859761Y-40204761D02*
X117955000Y-40299999D01*
X117955000Y-40299999D02*
X118002619Y-40442856D01*
X118002619Y-40442856D02*
X118002619Y-40538094D01*
X114462619Y-42109523D02*
X115462619Y-41776190D01*
X115462619Y-41776190D02*
X114462619Y-41442857D01*
X115367380Y-40538095D02*
X115415000Y-40585714D01*
X115415000Y-40585714D02*
X115462619Y-40728571D01*
X115462619Y-40728571D02*
X115462619Y-40823809D01*
X115462619Y-40823809D02*
X115415000Y-40966666D01*
X115415000Y-40966666D02*
X115319761Y-41061904D01*
X115319761Y-41061904D02*
X115224523Y-41109523D01*
X115224523Y-41109523D02*
X115034047Y-41157142D01*
X115034047Y-41157142D02*
X114891190Y-41157142D01*
X114891190Y-41157142D02*
X114700714Y-41109523D01*
X114700714Y-41109523D02*
X114605476Y-41061904D01*
X114605476Y-41061904D02*
X114510238Y-40966666D01*
X114510238Y-40966666D02*
X114462619Y-40823809D01*
X114462619Y-40823809D02*
X114462619Y-40728571D01*
X114462619Y-40728571D02*
X114510238Y-40585714D01*
X114510238Y-40585714D02*
X114557857Y-40538095D01*
X115367380Y-39538095D02*
X115415000Y-39585714D01*
X115415000Y-39585714D02*
X115462619Y-39728571D01*
X115462619Y-39728571D02*
X115462619Y-39823809D01*
X115462619Y-39823809D02*
X115415000Y-39966666D01*
X115415000Y-39966666D02*
X115319761Y-40061904D01*
X115319761Y-40061904D02*
X115224523Y-40109523D01*
X115224523Y-40109523D02*
X115034047Y-40157142D01*
X115034047Y-40157142D02*
X114891190Y-40157142D01*
X114891190Y-40157142D02*
X114700714Y-40109523D01*
X114700714Y-40109523D02*
X114605476Y-40061904D01*
X114605476Y-40061904D02*
X114510238Y-39966666D01*
X114510238Y-39966666D02*
X114462619Y-39823809D01*
X114462619Y-39823809D02*
X114462619Y-39728571D01*
X114462619Y-39728571D02*
X114510238Y-39585714D01*
X114510238Y-39585714D02*
X114557857Y-39538095D01*
X115462619Y-38585714D02*
X115462619Y-39157142D01*
X115462619Y-38871428D02*
X114462619Y-38871428D01*
X114462619Y-38871428D02*
X114605476Y-38966666D01*
X114605476Y-38966666D02*
X114700714Y-39061904D01*
X114700714Y-39061904D02*
X114748333Y-39157142D01*
%TO.C,Rail_{Left}1*%
X106142857Y-33412619D02*
X106142857Y-34126904D01*
X106142857Y-34126904D02*
X106095238Y-34269761D01*
X106095238Y-34269761D02*
X106000000Y-34365000D01*
X106000000Y-34365000D02*
X105857143Y-34412619D01*
X105857143Y-34412619D02*
X105761905Y-34412619D01*
X103939667Y-31253366D02*
X103613000Y-30786700D01*
X103379667Y-31253366D02*
X103379667Y-30273366D01*
X103379667Y-30273366D02*
X103753000Y-30273366D01*
X103753000Y-30273366D02*
X103846334Y-30320033D01*
X103846334Y-30320033D02*
X103893000Y-30366700D01*
X103893000Y-30366700D02*
X103939667Y-30460033D01*
X103939667Y-30460033D02*
X103939667Y-30600033D01*
X103939667Y-30600033D02*
X103893000Y-30693366D01*
X103893000Y-30693366D02*
X103846334Y-30740033D01*
X103846334Y-30740033D02*
X103753000Y-30786700D01*
X103753000Y-30786700D02*
X103379667Y-30786700D01*
X104779667Y-31253366D02*
X104779667Y-30740033D01*
X104779667Y-30740033D02*
X104733000Y-30646700D01*
X104733000Y-30646700D02*
X104639667Y-30600033D01*
X104639667Y-30600033D02*
X104453000Y-30600033D01*
X104453000Y-30600033D02*
X104359667Y-30646700D01*
X104779667Y-31206700D02*
X104686334Y-31253366D01*
X104686334Y-31253366D02*
X104453000Y-31253366D01*
X104453000Y-31253366D02*
X104359667Y-31206700D01*
X104359667Y-31206700D02*
X104313000Y-31113366D01*
X104313000Y-31113366D02*
X104313000Y-31020033D01*
X104313000Y-31020033D02*
X104359667Y-30926700D01*
X104359667Y-30926700D02*
X104453000Y-30880033D01*
X104453000Y-30880033D02*
X104686334Y-30880033D01*
X104686334Y-30880033D02*
X104779667Y-30833366D01*
X105246334Y-31253366D02*
X105246334Y-30600033D01*
X105246334Y-30273366D02*
X105199667Y-30320033D01*
X105199667Y-30320033D02*
X105246334Y-30366700D01*
X105246334Y-30366700D02*
X105293001Y-30320033D01*
X105293001Y-30320033D02*
X105246334Y-30273366D01*
X105246334Y-30273366D02*
X105246334Y-30366700D01*
X105853001Y-31253366D02*
X105759668Y-31206700D01*
X105759668Y-31206700D02*
X105713001Y-31113366D01*
X105713001Y-31113366D02*
X105713001Y-30273366D01*
X106483001Y-31445166D02*
X106156334Y-31445166D01*
X106156334Y-31445166D02*
X106156334Y-30759166D01*
X106973000Y-31412500D02*
X106907667Y-31445166D01*
X106907667Y-31445166D02*
X106777000Y-31445166D01*
X106777000Y-31445166D02*
X106711667Y-31412500D01*
X106711667Y-31412500D02*
X106679000Y-31347166D01*
X106679000Y-31347166D02*
X106679000Y-31085833D01*
X106679000Y-31085833D02*
X106711667Y-31020500D01*
X106711667Y-31020500D02*
X106777000Y-30987833D01*
X106777000Y-30987833D02*
X106907667Y-30987833D01*
X106907667Y-30987833D02*
X106973000Y-31020500D01*
X106973000Y-31020500D02*
X107005667Y-31085833D01*
X107005667Y-31085833D02*
X107005667Y-31151166D01*
X107005667Y-31151166D02*
X106679000Y-31216500D01*
X107201667Y-30987833D02*
X107463000Y-30987833D01*
X107299667Y-31445166D02*
X107299667Y-30857166D01*
X107299667Y-30857166D02*
X107332334Y-30791833D01*
X107332334Y-30791833D02*
X107397667Y-30759166D01*
X107397667Y-30759166D02*
X107463000Y-30759166D01*
X107593667Y-30987833D02*
X107855000Y-30987833D01*
X107691667Y-30759166D02*
X107691667Y-31347166D01*
X107691667Y-31347166D02*
X107724334Y-31412500D01*
X107724334Y-31412500D02*
X107789667Y-31445166D01*
X107789667Y-31445166D02*
X107855000Y-31445166D01*
X108667000Y-31253366D02*
X108107000Y-31253366D01*
X108387000Y-31253366D02*
X108387000Y-30273366D01*
X108387000Y-30273366D02*
X108293667Y-30413366D01*
X108293667Y-30413366D02*
X108200334Y-30506700D01*
X108200334Y-30506700D02*
X108107000Y-30553366D01*
%TO.C,Motor_{2}1*%
X78767857Y-30157619D02*
X78767857Y-30871904D01*
X78767857Y-30871904D02*
X78720238Y-31014761D01*
X78720238Y-31014761D02*
X78625000Y-31110000D01*
X78625000Y-31110000D02*
X78482143Y-31157619D01*
X78482143Y-31157619D02*
X78386905Y-31157619D01*
X76007142Y-28562619D02*
X76007142Y-27562619D01*
X76007142Y-27562619D02*
X76340475Y-28276904D01*
X76340475Y-28276904D02*
X76673808Y-27562619D01*
X76673808Y-27562619D02*
X76673808Y-28562619D01*
X77292856Y-28562619D02*
X77197618Y-28515000D01*
X77197618Y-28515000D02*
X77149999Y-28467380D01*
X77149999Y-28467380D02*
X77102380Y-28372142D01*
X77102380Y-28372142D02*
X77102380Y-28086428D01*
X77102380Y-28086428D02*
X77149999Y-27991190D01*
X77149999Y-27991190D02*
X77197618Y-27943571D01*
X77197618Y-27943571D02*
X77292856Y-27895952D01*
X77292856Y-27895952D02*
X77435713Y-27895952D01*
X77435713Y-27895952D02*
X77530951Y-27943571D01*
X77530951Y-27943571D02*
X77578570Y-27991190D01*
X77578570Y-27991190D02*
X77626189Y-28086428D01*
X77626189Y-28086428D02*
X77626189Y-28372142D01*
X77626189Y-28372142D02*
X77578570Y-28467380D01*
X77578570Y-28467380D02*
X77530951Y-28515000D01*
X77530951Y-28515000D02*
X77435713Y-28562619D01*
X77435713Y-28562619D02*
X77292856Y-28562619D01*
X77911904Y-27895952D02*
X78292856Y-27895952D01*
X78054761Y-27562619D02*
X78054761Y-28419761D01*
X78054761Y-28419761D02*
X78102380Y-28515000D01*
X78102380Y-28515000D02*
X78197618Y-28562619D01*
X78197618Y-28562619D02*
X78292856Y-28562619D01*
X78769047Y-28562619D02*
X78673809Y-28515000D01*
X78673809Y-28515000D02*
X78626190Y-28467380D01*
X78626190Y-28467380D02*
X78578571Y-28372142D01*
X78578571Y-28372142D02*
X78578571Y-28086428D01*
X78578571Y-28086428D02*
X78626190Y-27991190D01*
X78626190Y-27991190D02*
X78673809Y-27943571D01*
X78673809Y-27943571D02*
X78769047Y-27895952D01*
X78769047Y-27895952D02*
X78911904Y-27895952D01*
X78911904Y-27895952D02*
X79007142Y-27943571D01*
X79007142Y-27943571D02*
X79054761Y-27991190D01*
X79054761Y-27991190D02*
X79102380Y-28086428D01*
X79102380Y-28086428D02*
X79102380Y-28372142D01*
X79102380Y-28372142D02*
X79054761Y-28467380D01*
X79054761Y-28467380D02*
X79007142Y-28515000D01*
X79007142Y-28515000D02*
X78911904Y-28562619D01*
X78911904Y-28562619D02*
X78769047Y-28562619D01*
X79530952Y-28562619D02*
X79530952Y-27895952D01*
X79530952Y-28086428D02*
X79578571Y-27991190D01*
X79578571Y-27991190D02*
X79626190Y-27943571D01*
X79626190Y-27943571D02*
X79721428Y-27895952D01*
X79721428Y-27895952D02*
X79816666Y-27895952D01*
X80045238Y-28125000D02*
X80078571Y-28091666D01*
X80078571Y-28091666D02*
X80145238Y-28058333D01*
X80145238Y-28058333D02*
X80311905Y-28058333D01*
X80311905Y-28058333D02*
X80378571Y-28091666D01*
X80378571Y-28091666D02*
X80411905Y-28125000D01*
X80411905Y-28125000D02*
X80445238Y-28191666D01*
X80445238Y-28191666D02*
X80445238Y-28258333D01*
X80445238Y-28258333D02*
X80411905Y-28358333D01*
X80411905Y-28358333D02*
X80011905Y-28758333D01*
X80011905Y-28758333D02*
X80445238Y-28758333D01*
X81340476Y-28562619D02*
X80769048Y-28562619D01*
X81054762Y-28562619D02*
X81054762Y-27562619D01*
X81054762Y-27562619D02*
X80959524Y-27705476D01*
X80959524Y-27705476D02*
X80864286Y-27800714D01*
X80864286Y-27800714D02*
X80769048Y-27848333D01*
%TO.C,GND1*%
X72767857Y-30102619D02*
X72767857Y-30816904D01*
X72767857Y-30816904D02*
X72720238Y-30959761D01*
X72720238Y-30959761D02*
X72625000Y-31055000D01*
X72625000Y-31055000D02*
X72482143Y-31102619D01*
X72482143Y-31102619D02*
X72386905Y-31102619D01*
X71386904Y-27610238D02*
X71291666Y-27562619D01*
X71291666Y-27562619D02*
X71148809Y-27562619D01*
X71148809Y-27562619D02*
X71005952Y-27610238D01*
X71005952Y-27610238D02*
X70910714Y-27705476D01*
X70910714Y-27705476D02*
X70863095Y-27800714D01*
X70863095Y-27800714D02*
X70815476Y-27991190D01*
X70815476Y-27991190D02*
X70815476Y-28134047D01*
X70815476Y-28134047D02*
X70863095Y-28324523D01*
X70863095Y-28324523D02*
X70910714Y-28419761D01*
X70910714Y-28419761D02*
X71005952Y-28515000D01*
X71005952Y-28515000D02*
X71148809Y-28562619D01*
X71148809Y-28562619D02*
X71244047Y-28562619D01*
X71244047Y-28562619D02*
X71386904Y-28515000D01*
X71386904Y-28515000D02*
X71434523Y-28467380D01*
X71434523Y-28467380D02*
X71434523Y-28134047D01*
X71434523Y-28134047D02*
X71244047Y-28134047D01*
X71863095Y-28562619D02*
X71863095Y-27562619D01*
X71863095Y-27562619D02*
X72434523Y-28562619D01*
X72434523Y-28562619D02*
X72434523Y-27562619D01*
X72910714Y-28562619D02*
X72910714Y-27562619D01*
X72910714Y-27562619D02*
X73148809Y-27562619D01*
X73148809Y-27562619D02*
X73291666Y-27610238D01*
X73291666Y-27610238D02*
X73386904Y-27705476D01*
X73386904Y-27705476D02*
X73434523Y-27800714D01*
X73434523Y-27800714D02*
X73482142Y-27991190D01*
X73482142Y-27991190D02*
X73482142Y-28134047D01*
X73482142Y-28134047D02*
X73434523Y-28324523D01*
X73434523Y-28324523D02*
X73386904Y-28419761D01*
X73386904Y-28419761D02*
X73291666Y-28515000D01*
X73291666Y-28515000D02*
X73148809Y-28562619D01*
X73148809Y-28562619D02*
X72910714Y-28562619D01*
X74434523Y-28562619D02*
X73863095Y-28562619D01*
X74148809Y-28562619D02*
X74148809Y-27562619D01*
X74148809Y-27562619D02*
X74053571Y-27705476D01*
X74053571Y-27705476D02*
X73958333Y-27800714D01*
X73958333Y-27800714D02*
X73863095Y-27848333D01*
%TO.C,R_{Front}1*%
X117792619Y-33077976D02*
X117316428Y-33411309D01*
X117792619Y-33649404D02*
X116792619Y-33649404D01*
X116792619Y-33649404D02*
X116792619Y-33268452D01*
X116792619Y-33268452D02*
X116840238Y-33173214D01*
X116840238Y-33173214D02*
X116887857Y-33125595D01*
X116887857Y-33125595D02*
X116983095Y-33077976D01*
X116983095Y-33077976D02*
X117125952Y-33077976D01*
X117125952Y-33077976D02*
X117221190Y-33125595D01*
X117221190Y-33125595D02*
X117268809Y-33173214D01*
X117268809Y-33173214D02*
X117316428Y-33268452D01*
X117316428Y-33268452D02*
X117316428Y-33649404D01*
D11*
X116085047Y-33994165D02*
X115894571Y-34127498D01*
X116085047Y-34222736D02*
X115685047Y-34222736D01*
X115685047Y-34222736D02*
X115685047Y-34070355D01*
X115685047Y-34070355D02*
X115704095Y-34032260D01*
X115704095Y-34032260D02*
X115723142Y-34013213D01*
X115723142Y-34013213D02*
X115761238Y-33994165D01*
X115761238Y-33994165D02*
X115818380Y-33994165D01*
X115818380Y-33994165D02*
X115856476Y-34013213D01*
X115856476Y-34013213D02*
X115875523Y-34032260D01*
X115875523Y-34032260D02*
X115894571Y-34070355D01*
X115894571Y-34070355D02*
X115894571Y-34222736D01*
X116016666Y-33757975D02*
X116016666Y-33851308D01*
X116163333Y-33851308D02*
X115883333Y-33851308D01*
X115883333Y-33851308D02*
X115883333Y-33717975D01*
X116163333Y-33611308D02*
X115976666Y-33611308D01*
X116030000Y-33611308D02*
X116003333Y-33597975D01*
X116003333Y-33597975D02*
X115990000Y-33584641D01*
X115990000Y-33584641D02*
X115976666Y-33557975D01*
X115976666Y-33557975D02*
X115976666Y-33531308D01*
X116163333Y-33397975D02*
X116150000Y-33424642D01*
X116150000Y-33424642D02*
X116136666Y-33437975D01*
X116136666Y-33437975D02*
X116110000Y-33451308D01*
X116110000Y-33451308D02*
X116030000Y-33451308D01*
X116030000Y-33451308D02*
X116003333Y-33437975D01*
X116003333Y-33437975D02*
X115990000Y-33424642D01*
X115990000Y-33424642D02*
X115976666Y-33397975D01*
X115976666Y-33397975D02*
X115976666Y-33357975D01*
X115976666Y-33357975D02*
X115990000Y-33331308D01*
X115990000Y-33331308D02*
X116003333Y-33317975D01*
X116003333Y-33317975D02*
X116030000Y-33304642D01*
X116030000Y-33304642D02*
X116110000Y-33304642D01*
X116110000Y-33304642D02*
X116136666Y-33317975D01*
X116136666Y-33317975D02*
X116150000Y-33331308D01*
X116150000Y-33331308D02*
X116163333Y-33357975D01*
X116163333Y-33357975D02*
X116163333Y-33397975D01*
X115976666Y-33184642D02*
X116163333Y-33184642D01*
X116003333Y-33184642D02*
X115990000Y-33171309D01*
X115990000Y-33171309D02*
X115976666Y-33144642D01*
X115976666Y-33144642D02*
X115976666Y-33104642D01*
X115976666Y-33104642D02*
X115990000Y-33077975D01*
X115990000Y-33077975D02*
X116016666Y-33064642D01*
X116016666Y-33064642D02*
X116163333Y-33064642D01*
X115976666Y-32971309D02*
X115976666Y-32864642D01*
X115883333Y-32931309D02*
X116123333Y-32931309D01*
X116123333Y-32931309D02*
X116150000Y-32917976D01*
X116150000Y-32917976D02*
X116163333Y-32891309D01*
X116163333Y-32891309D02*
X116163333Y-32864642D01*
X116085047Y-32533214D02*
X116085047Y-32761785D01*
X116085047Y-32647499D02*
X115685047Y-32647499D01*
X115685047Y-32647499D02*
X115742190Y-32685595D01*
X115742190Y-32685595D02*
X115780285Y-32723690D01*
X115780285Y-32723690D02*
X115799333Y-32761785D01*
D10*
%TO.C,Motor_{1}1*%
X77467857Y-30157619D02*
X77467857Y-30871904D01*
X77467857Y-30871904D02*
X77420238Y-31014761D01*
X77420238Y-31014761D02*
X77325000Y-31110000D01*
X77325000Y-31110000D02*
X77182143Y-31157619D01*
X77182143Y-31157619D02*
X77086905Y-31157619D01*
X74707142Y-28562619D02*
X74707142Y-27562619D01*
X74707142Y-27562619D02*
X75040475Y-28276904D01*
X75040475Y-28276904D02*
X75373808Y-27562619D01*
X75373808Y-27562619D02*
X75373808Y-28562619D01*
X75992856Y-28562619D02*
X75897618Y-28515000D01*
X75897618Y-28515000D02*
X75849999Y-28467380D01*
X75849999Y-28467380D02*
X75802380Y-28372142D01*
X75802380Y-28372142D02*
X75802380Y-28086428D01*
X75802380Y-28086428D02*
X75849999Y-27991190D01*
X75849999Y-27991190D02*
X75897618Y-27943571D01*
X75897618Y-27943571D02*
X75992856Y-27895952D01*
X75992856Y-27895952D02*
X76135713Y-27895952D01*
X76135713Y-27895952D02*
X76230951Y-27943571D01*
X76230951Y-27943571D02*
X76278570Y-27991190D01*
X76278570Y-27991190D02*
X76326189Y-28086428D01*
X76326189Y-28086428D02*
X76326189Y-28372142D01*
X76326189Y-28372142D02*
X76278570Y-28467380D01*
X76278570Y-28467380D02*
X76230951Y-28515000D01*
X76230951Y-28515000D02*
X76135713Y-28562619D01*
X76135713Y-28562619D02*
X75992856Y-28562619D01*
X76611904Y-27895952D02*
X76992856Y-27895952D01*
X76754761Y-27562619D02*
X76754761Y-28419761D01*
X76754761Y-28419761D02*
X76802380Y-28515000D01*
X76802380Y-28515000D02*
X76897618Y-28562619D01*
X76897618Y-28562619D02*
X76992856Y-28562619D01*
X77469047Y-28562619D02*
X77373809Y-28515000D01*
X77373809Y-28515000D02*
X77326190Y-28467380D01*
X77326190Y-28467380D02*
X77278571Y-28372142D01*
X77278571Y-28372142D02*
X77278571Y-28086428D01*
X77278571Y-28086428D02*
X77326190Y-27991190D01*
X77326190Y-27991190D02*
X77373809Y-27943571D01*
X77373809Y-27943571D02*
X77469047Y-27895952D01*
X77469047Y-27895952D02*
X77611904Y-27895952D01*
X77611904Y-27895952D02*
X77707142Y-27943571D01*
X77707142Y-27943571D02*
X77754761Y-27991190D01*
X77754761Y-27991190D02*
X77802380Y-28086428D01*
X77802380Y-28086428D02*
X77802380Y-28372142D01*
X77802380Y-28372142D02*
X77754761Y-28467380D01*
X77754761Y-28467380D02*
X77707142Y-28515000D01*
X77707142Y-28515000D02*
X77611904Y-28562619D01*
X77611904Y-28562619D02*
X77469047Y-28562619D01*
X78230952Y-28562619D02*
X78230952Y-27895952D01*
X78230952Y-28086428D02*
X78278571Y-27991190D01*
X78278571Y-27991190D02*
X78326190Y-27943571D01*
X78326190Y-27943571D02*
X78421428Y-27895952D01*
X78421428Y-27895952D02*
X78516666Y-27895952D01*
X79145238Y-28758333D02*
X78745238Y-28758333D01*
X78945238Y-28758333D02*
X78945238Y-28058333D01*
X78945238Y-28058333D02*
X78878571Y-28158333D01*
X78878571Y-28158333D02*
X78811905Y-28225000D01*
X78811905Y-28225000D02*
X78745238Y-28258333D01*
X80040476Y-28562619D02*
X79469048Y-28562619D01*
X79754762Y-28562619D02*
X79754762Y-27562619D01*
X79754762Y-27562619D02*
X79659524Y-27705476D01*
X79659524Y-27705476D02*
X79564286Y-27800714D01*
X79564286Y-27800714D02*
X79469048Y-27848333D01*
%TO.C,R_{Rear_Left}1*%
X72992619Y-28390476D02*
X72516428Y-28723809D01*
X72992619Y-28961904D02*
X71992619Y-28961904D01*
X71992619Y-28961904D02*
X71992619Y-28580952D01*
X71992619Y-28580952D02*
X72040238Y-28485714D01*
X72040238Y-28485714D02*
X72087857Y-28438095D01*
X72087857Y-28438095D02*
X72183095Y-28390476D01*
X72183095Y-28390476D02*
X72325952Y-28390476D01*
X72325952Y-28390476D02*
X72421190Y-28438095D01*
X72421190Y-28438095D02*
X72468809Y-28485714D01*
X72468809Y-28485714D02*
X72516428Y-28580952D01*
X72516428Y-28580952D02*
X72516428Y-28961904D01*
D11*
X71285047Y-29739999D02*
X71094571Y-29873332D01*
X71285047Y-29968570D02*
X70885047Y-29968570D01*
X70885047Y-29968570D02*
X70885047Y-29816189D01*
X70885047Y-29816189D02*
X70904095Y-29778094D01*
X70904095Y-29778094D02*
X70923142Y-29759047D01*
X70923142Y-29759047D02*
X70961238Y-29739999D01*
X70961238Y-29739999D02*
X71018380Y-29739999D01*
X71018380Y-29739999D02*
X71056476Y-29759047D01*
X71056476Y-29759047D02*
X71075523Y-29778094D01*
X71075523Y-29778094D02*
X71094571Y-29816189D01*
X71094571Y-29816189D02*
X71094571Y-29968570D01*
X71363333Y-29437142D02*
X71230000Y-29530475D01*
X71363333Y-29597142D02*
X71083333Y-29597142D01*
X71083333Y-29597142D02*
X71083333Y-29490475D01*
X71083333Y-29490475D02*
X71096666Y-29463809D01*
X71096666Y-29463809D02*
X71110000Y-29450475D01*
X71110000Y-29450475D02*
X71136666Y-29437142D01*
X71136666Y-29437142D02*
X71176666Y-29437142D01*
X71176666Y-29437142D02*
X71203333Y-29450475D01*
X71203333Y-29450475D02*
X71216666Y-29463809D01*
X71216666Y-29463809D02*
X71230000Y-29490475D01*
X71230000Y-29490475D02*
X71230000Y-29597142D01*
X71350000Y-29210475D02*
X71363333Y-29237142D01*
X71363333Y-29237142D02*
X71363333Y-29290475D01*
X71363333Y-29290475D02*
X71350000Y-29317142D01*
X71350000Y-29317142D02*
X71323333Y-29330475D01*
X71323333Y-29330475D02*
X71216666Y-29330475D01*
X71216666Y-29330475D02*
X71190000Y-29317142D01*
X71190000Y-29317142D02*
X71176666Y-29290475D01*
X71176666Y-29290475D02*
X71176666Y-29237142D01*
X71176666Y-29237142D02*
X71190000Y-29210475D01*
X71190000Y-29210475D02*
X71216666Y-29197142D01*
X71216666Y-29197142D02*
X71243333Y-29197142D01*
X71243333Y-29197142D02*
X71270000Y-29330475D01*
X71363333Y-28957142D02*
X71216666Y-28957142D01*
X71216666Y-28957142D02*
X71190000Y-28970475D01*
X71190000Y-28970475D02*
X71176666Y-28997142D01*
X71176666Y-28997142D02*
X71176666Y-29050475D01*
X71176666Y-29050475D02*
X71190000Y-29077142D01*
X71350000Y-28957142D02*
X71363333Y-28983809D01*
X71363333Y-28983809D02*
X71363333Y-29050475D01*
X71363333Y-29050475D02*
X71350000Y-29077142D01*
X71350000Y-29077142D02*
X71323333Y-29090475D01*
X71323333Y-29090475D02*
X71296666Y-29090475D01*
X71296666Y-29090475D02*
X71270000Y-29077142D01*
X71270000Y-29077142D02*
X71256666Y-29050475D01*
X71256666Y-29050475D02*
X71256666Y-28983809D01*
X71256666Y-28983809D02*
X71243333Y-28957142D01*
X71363333Y-28823809D02*
X71176666Y-28823809D01*
X71230000Y-28823809D02*
X71203333Y-28810476D01*
X71203333Y-28810476D02*
X71190000Y-28797142D01*
X71190000Y-28797142D02*
X71176666Y-28770476D01*
X71176666Y-28770476D02*
X71176666Y-28743809D01*
X71390000Y-28717143D02*
X71390000Y-28503809D01*
X71363333Y-28303810D02*
X71363333Y-28437143D01*
X71363333Y-28437143D02*
X71083333Y-28437143D01*
X71350000Y-28103809D02*
X71363333Y-28130476D01*
X71363333Y-28130476D02*
X71363333Y-28183809D01*
X71363333Y-28183809D02*
X71350000Y-28210476D01*
X71350000Y-28210476D02*
X71323333Y-28223809D01*
X71323333Y-28223809D02*
X71216666Y-28223809D01*
X71216666Y-28223809D02*
X71190000Y-28210476D01*
X71190000Y-28210476D02*
X71176666Y-28183809D01*
X71176666Y-28183809D02*
X71176666Y-28130476D01*
X71176666Y-28130476D02*
X71190000Y-28103809D01*
X71190000Y-28103809D02*
X71216666Y-28090476D01*
X71216666Y-28090476D02*
X71243333Y-28090476D01*
X71243333Y-28090476D02*
X71270000Y-28223809D01*
X71176666Y-28010476D02*
X71176666Y-27903809D01*
X71363333Y-27970476D02*
X71123333Y-27970476D01*
X71123333Y-27970476D02*
X71096666Y-27957143D01*
X71096666Y-27957143D02*
X71083333Y-27930476D01*
X71083333Y-27930476D02*
X71083333Y-27903809D01*
X71176666Y-27850476D02*
X71176666Y-27743809D01*
X71083333Y-27810476D02*
X71323333Y-27810476D01*
X71323333Y-27810476D02*
X71350000Y-27797143D01*
X71350000Y-27797143D02*
X71363333Y-27770476D01*
X71363333Y-27770476D02*
X71363333Y-27743809D01*
X71285047Y-27412381D02*
X71285047Y-27640952D01*
X71285047Y-27526666D02*
X70885047Y-27526666D01*
X70885047Y-27526666D02*
X70942190Y-27564762D01*
X70942190Y-27564762D02*
X70980285Y-27602857D01*
X70980285Y-27602857D02*
X70999333Y-27640952D01*
D10*
%TO.C,LED_{Rear}1*%
X65162619Y-33661904D02*
X64162619Y-33661904D01*
X64162619Y-33661904D02*
X64162619Y-33423809D01*
X64162619Y-33423809D02*
X64210238Y-33280952D01*
X64210238Y-33280952D02*
X64305476Y-33185714D01*
X64305476Y-33185714D02*
X64400714Y-33138095D01*
X64400714Y-33138095D02*
X64591190Y-33090476D01*
X64591190Y-33090476D02*
X64734047Y-33090476D01*
X64734047Y-33090476D02*
X64924523Y-33138095D01*
X64924523Y-33138095D02*
X65019761Y-33185714D01*
X65019761Y-33185714D02*
X65115000Y-33280952D01*
X65115000Y-33280952D02*
X65162619Y-33423809D01*
X65162619Y-33423809D02*
X65162619Y-33661904D01*
X66862619Y-35702380D02*
X66862619Y-36178570D01*
X66862619Y-36178570D02*
X65862619Y-36178570D01*
X66338809Y-35369046D02*
X66338809Y-35035713D01*
X66862619Y-34892856D02*
X66862619Y-35369046D01*
X66862619Y-35369046D02*
X65862619Y-35369046D01*
X65862619Y-35369046D02*
X65862619Y-34892856D01*
X66862619Y-34464284D02*
X65862619Y-34464284D01*
X65862619Y-34464284D02*
X65862619Y-34226189D01*
X65862619Y-34226189D02*
X65910238Y-34083332D01*
X65910238Y-34083332D02*
X66005476Y-33988094D01*
X66005476Y-33988094D02*
X66100714Y-33940475D01*
X66100714Y-33940475D02*
X66291190Y-33892856D01*
X66291190Y-33892856D02*
X66434047Y-33892856D01*
X66434047Y-33892856D02*
X66624523Y-33940475D01*
X66624523Y-33940475D02*
X66719761Y-33988094D01*
X66719761Y-33988094D02*
X66815000Y-34083332D01*
X66815000Y-34083332D02*
X66862619Y-34226189D01*
X66862619Y-34226189D02*
X66862619Y-34464284D01*
X67058333Y-33135713D02*
X66725000Y-33369046D01*
X67058333Y-33535713D02*
X66358333Y-33535713D01*
X66358333Y-33535713D02*
X66358333Y-33269046D01*
X66358333Y-33269046D02*
X66391666Y-33202380D01*
X66391666Y-33202380D02*
X66425000Y-33169046D01*
X66425000Y-33169046D02*
X66491666Y-33135713D01*
X66491666Y-33135713D02*
X66591666Y-33135713D01*
X66591666Y-33135713D02*
X66658333Y-33169046D01*
X66658333Y-33169046D02*
X66691666Y-33202380D01*
X66691666Y-33202380D02*
X66725000Y-33269046D01*
X66725000Y-33269046D02*
X66725000Y-33535713D01*
X67025000Y-32569046D02*
X67058333Y-32635713D01*
X67058333Y-32635713D02*
X67058333Y-32769046D01*
X67058333Y-32769046D02*
X67025000Y-32835713D01*
X67025000Y-32835713D02*
X66958333Y-32869046D01*
X66958333Y-32869046D02*
X66691666Y-32869046D01*
X66691666Y-32869046D02*
X66625000Y-32835713D01*
X66625000Y-32835713D02*
X66591666Y-32769046D01*
X66591666Y-32769046D02*
X66591666Y-32635713D01*
X66591666Y-32635713D02*
X66625000Y-32569046D01*
X66625000Y-32569046D02*
X66691666Y-32535713D01*
X66691666Y-32535713D02*
X66758333Y-32535713D01*
X66758333Y-32535713D02*
X66825000Y-32869046D01*
X67058333Y-31935713D02*
X66691666Y-31935713D01*
X66691666Y-31935713D02*
X66625000Y-31969046D01*
X66625000Y-31969046D02*
X66591666Y-32035713D01*
X66591666Y-32035713D02*
X66591666Y-32169046D01*
X66591666Y-32169046D02*
X66625000Y-32235713D01*
X67025000Y-31935713D02*
X67058333Y-32002380D01*
X67058333Y-32002380D02*
X67058333Y-32169046D01*
X67058333Y-32169046D02*
X67025000Y-32235713D01*
X67025000Y-32235713D02*
X66958333Y-32269046D01*
X66958333Y-32269046D02*
X66891666Y-32269046D01*
X66891666Y-32269046D02*
X66825000Y-32235713D01*
X66825000Y-32235713D02*
X66791666Y-32169046D01*
X66791666Y-32169046D02*
X66791666Y-32002380D01*
X66791666Y-32002380D02*
X66758333Y-31935713D01*
X67058333Y-31602380D02*
X66591666Y-31602380D01*
X66725000Y-31602380D02*
X66658333Y-31569047D01*
X66658333Y-31569047D02*
X66625000Y-31535713D01*
X66625000Y-31535713D02*
X66591666Y-31469047D01*
X66591666Y-31469047D02*
X66591666Y-31402380D01*
X66862619Y-30573809D02*
X66862619Y-31145237D01*
X66862619Y-30859523D02*
X65862619Y-30859523D01*
X65862619Y-30859523D02*
X66005476Y-30954761D01*
X66005476Y-30954761D02*
X66100714Y-31049999D01*
X66100714Y-31049999D02*
X66148333Y-31145237D01*
%TO.C,Q2*%
X71367262Y-40962619D02*
X71367262Y-39962619D01*
X71367262Y-39962619D02*
X71938690Y-40962619D01*
X71938690Y-40962619D02*
X71938690Y-39962619D01*
X72414881Y-40962619D02*
X72414881Y-39962619D01*
X72414881Y-39962619D02*
X72748214Y-40676904D01*
X72748214Y-40676904D02*
X73081547Y-39962619D01*
X73081547Y-39962619D02*
X73081547Y-40962619D01*
X73748214Y-39962619D02*
X73938690Y-39962619D01*
X73938690Y-39962619D02*
X74033928Y-40010238D01*
X74033928Y-40010238D02*
X74129166Y-40105476D01*
X74129166Y-40105476D02*
X74176785Y-40295952D01*
X74176785Y-40295952D02*
X74176785Y-40629285D01*
X74176785Y-40629285D02*
X74129166Y-40819761D01*
X74129166Y-40819761D02*
X74033928Y-40915000D01*
X74033928Y-40915000D02*
X73938690Y-40962619D01*
X73938690Y-40962619D02*
X73748214Y-40962619D01*
X73748214Y-40962619D02*
X73652976Y-40915000D01*
X73652976Y-40915000D02*
X73557738Y-40819761D01*
X73557738Y-40819761D02*
X73510119Y-40629285D01*
X73510119Y-40629285D02*
X73510119Y-40295952D01*
X73510119Y-40295952D02*
X73557738Y-40105476D01*
X73557738Y-40105476D02*
X73652976Y-40010238D01*
X73652976Y-40010238D02*
X73748214Y-39962619D01*
X74557738Y-40915000D02*
X74700595Y-40962619D01*
X74700595Y-40962619D02*
X74938690Y-40962619D01*
X74938690Y-40962619D02*
X75033928Y-40915000D01*
X75033928Y-40915000D02*
X75081547Y-40867380D01*
X75081547Y-40867380D02*
X75129166Y-40772142D01*
X75129166Y-40772142D02*
X75129166Y-40676904D01*
X75129166Y-40676904D02*
X75081547Y-40581666D01*
X75081547Y-40581666D02*
X75033928Y-40534047D01*
X75033928Y-40534047D02*
X74938690Y-40486428D01*
X74938690Y-40486428D02*
X74748214Y-40438809D01*
X74748214Y-40438809D02*
X74652976Y-40391190D01*
X74652976Y-40391190D02*
X74605357Y-40343571D01*
X74605357Y-40343571D02*
X74557738Y-40248333D01*
X74557738Y-40248333D02*
X74557738Y-40153095D01*
X74557738Y-40153095D02*
X74605357Y-40057857D01*
X74605357Y-40057857D02*
X74652976Y-40010238D01*
X74652976Y-40010238D02*
X74748214Y-39962619D01*
X74748214Y-39962619D02*
X74986309Y-39962619D01*
X74986309Y-39962619D02*
X75129166Y-40010238D01*
X75891071Y-40438809D02*
X75557738Y-40438809D01*
X75557738Y-40962619D02*
X75557738Y-39962619D01*
X75557738Y-39962619D02*
X76033928Y-39962619D01*
X76414881Y-40438809D02*
X76748214Y-40438809D01*
X76891071Y-40962619D02*
X76414881Y-40962619D01*
X76414881Y-40962619D02*
X76414881Y-39962619D01*
X76414881Y-39962619D02*
X76891071Y-39962619D01*
X77176786Y-39962619D02*
X77748214Y-39962619D01*
X77462500Y-40962619D02*
X77462500Y-39962619D01*
X78033929Y-40057857D02*
X78081548Y-40010238D01*
X78081548Y-40010238D02*
X78176786Y-39962619D01*
X78176786Y-39962619D02*
X78414881Y-39962619D01*
X78414881Y-39962619D02*
X78510119Y-40010238D01*
X78510119Y-40010238D02*
X78557738Y-40057857D01*
X78557738Y-40057857D02*
X78605357Y-40153095D01*
X78605357Y-40153095D02*
X78605357Y-40248333D01*
X78605357Y-40248333D02*
X78557738Y-40391190D01*
X78557738Y-40391190D02*
X77986310Y-40962619D01*
X77986310Y-40962619D02*
X78605357Y-40962619D01*
D12*
X74932023Y-38278514D02*
X74901547Y-38263276D01*
X74901547Y-38263276D02*
X74871071Y-38232800D01*
X74871071Y-38232800D02*
X74825357Y-38187085D01*
X74825357Y-38187085D02*
X74794880Y-38171847D01*
X74794880Y-38171847D02*
X74764404Y-38171847D01*
X74779642Y-38248038D02*
X74749166Y-38232800D01*
X74749166Y-38232800D02*
X74718690Y-38202323D01*
X74718690Y-38202323D02*
X74703452Y-38141371D01*
X74703452Y-38141371D02*
X74703452Y-38034704D01*
X74703452Y-38034704D02*
X74718690Y-37973752D01*
X74718690Y-37973752D02*
X74749166Y-37943276D01*
X74749166Y-37943276D02*
X74779642Y-37928038D01*
X74779642Y-37928038D02*
X74840595Y-37928038D01*
X74840595Y-37928038D02*
X74871071Y-37943276D01*
X74871071Y-37943276D02*
X74901547Y-37973752D01*
X74901547Y-37973752D02*
X74916785Y-38034704D01*
X74916785Y-38034704D02*
X74916785Y-38141371D01*
X74916785Y-38141371D02*
X74901547Y-38202323D01*
X74901547Y-38202323D02*
X74871071Y-38232800D01*
X74871071Y-38232800D02*
X74840595Y-38248038D01*
X74840595Y-38248038D02*
X74779642Y-38248038D01*
X75038690Y-37958514D02*
X75053928Y-37943276D01*
X75053928Y-37943276D02*
X75084404Y-37928038D01*
X75084404Y-37928038D02*
X75160595Y-37928038D01*
X75160595Y-37928038D02*
X75191071Y-37943276D01*
X75191071Y-37943276D02*
X75206309Y-37958514D01*
X75206309Y-37958514D02*
X75221547Y-37988990D01*
X75221547Y-37988990D02*
X75221547Y-38019466D01*
X75221547Y-38019466D02*
X75206309Y-38065180D01*
X75206309Y-38065180D02*
X75023452Y-38248038D01*
X75023452Y-38248038D02*
X75221547Y-38248038D01*
D10*
%TO.C,R2*%
X78934523Y-29357619D02*
X78363095Y-29357619D01*
X78648809Y-29357619D02*
X78648809Y-28357619D01*
X78648809Y-28357619D02*
X78553571Y-28500476D01*
X78553571Y-28500476D02*
X78458333Y-28595714D01*
X78458333Y-28595714D02*
X78363095Y-28643333D01*
X79363095Y-29357619D02*
X79363095Y-28357619D01*
X79458333Y-28976666D02*
X79744047Y-29357619D01*
X79744047Y-28690952D02*
X79363095Y-29071904D01*
X80125000Y-29357619D02*
X80363095Y-29357619D01*
X80363095Y-29357619D02*
X80363095Y-29167142D01*
X80363095Y-29167142D02*
X80267857Y-29119523D01*
X80267857Y-29119523D02*
X80172619Y-29024285D01*
X80172619Y-29024285D02*
X80125000Y-28881428D01*
X80125000Y-28881428D02*
X80125000Y-28643333D01*
X80125000Y-28643333D02*
X80172619Y-28500476D01*
X80172619Y-28500476D02*
X80267857Y-28405238D01*
X80267857Y-28405238D02*
X80410714Y-28357619D01*
X80410714Y-28357619D02*
X80601190Y-28357619D01*
X80601190Y-28357619D02*
X80744047Y-28405238D01*
X80744047Y-28405238D02*
X80839285Y-28500476D01*
X80839285Y-28500476D02*
X80886904Y-28643333D01*
X80886904Y-28643333D02*
X80886904Y-28881428D01*
X80886904Y-28881428D02*
X80839285Y-29024285D01*
X80839285Y-29024285D02*
X80744047Y-29119523D01*
X80744047Y-29119523D02*
X80648809Y-29167142D01*
X80648809Y-29167142D02*
X80648809Y-29357619D01*
X80648809Y-29357619D02*
X80886904Y-29357619D01*
D11*
X79558333Y-30510047D02*
X79425000Y-30319571D01*
X79329762Y-30510047D02*
X79329762Y-30110047D01*
X79329762Y-30110047D02*
X79482143Y-30110047D01*
X79482143Y-30110047D02*
X79520238Y-30129095D01*
X79520238Y-30129095D02*
X79539285Y-30148142D01*
X79539285Y-30148142D02*
X79558333Y-30186238D01*
X79558333Y-30186238D02*
X79558333Y-30243380D01*
X79558333Y-30243380D02*
X79539285Y-30281476D01*
X79539285Y-30281476D02*
X79520238Y-30300523D01*
X79520238Y-30300523D02*
X79482143Y-30319571D01*
X79482143Y-30319571D02*
X79329762Y-30319571D01*
X79710714Y-30148142D02*
X79729762Y-30129095D01*
X79729762Y-30129095D02*
X79767857Y-30110047D01*
X79767857Y-30110047D02*
X79863095Y-30110047D01*
X79863095Y-30110047D02*
X79901190Y-30129095D01*
X79901190Y-30129095D02*
X79920238Y-30148142D01*
X79920238Y-30148142D02*
X79939285Y-30186238D01*
X79939285Y-30186238D02*
X79939285Y-30224333D01*
X79939285Y-30224333D02*
X79920238Y-30281476D01*
X79920238Y-30281476D02*
X79691666Y-30510047D01*
X79691666Y-30510047D02*
X79939285Y-30510047D01*
D10*
%TO.C,R_{Front_Left}1*%
X117792619Y-28477976D02*
X117316428Y-28811309D01*
X117792619Y-29049404D02*
X116792619Y-29049404D01*
X116792619Y-29049404D02*
X116792619Y-28668452D01*
X116792619Y-28668452D02*
X116840238Y-28573214D01*
X116840238Y-28573214D02*
X116887857Y-28525595D01*
X116887857Y-28525595D02*
X116983095Y-28477976D01*
X116983095Y-28477976D02*
X117125952Y-28477976D01*
X117125952Y-28477976D02*
X117221190Y-28525595D01*
X117221190Y-28525595D02*
X117268809Y-28573214D01*
X117268809Y-28573214D02*
X117316428Y-28668452D01*
X117316428Y-28668452D02*
X117316428Y-29049404D01*
D11*
X116085047Y-29894165D02*
X115894571Y-30027498D01*
X116085047Y-30122736D02*
X115685047Y-30122736D01*
X115685047Y-30122736D02*
X115685047Y-29970355D01*
X115685047Y-29970355D02*
X115704095Y-29932260D01*
X115704095Y-29932260D02*
X115723142Y-29913213D01*
X115723142Y-29913213D02*
X115761238Y-29894165D01*
X115761238Y-29894165D02*
X115818380Y-29894165D01*
X115818380Y-29894165D02*
X115856476Y-29913213D01*
X115856476Y-29913213D02*
X115875523Y-29932260D01*
X115875523Y-29932260D02*
X115894571Y-29970355D01*
X115894571Y-29970355D02*
X115894571Y-30122736D01*
X116016666Y-29657975D02*
X116016666Y-29751308D01*
X116163333Y-29751308D02*
X115883333Y-29751308D01*
X115883333Y-29751308D02*
X115883333Y-29617975D01*
X116163333Y-29511308D02*
X115976666Y-29511308D01*
X116030000Y-29511308D02*
X116003333Y-29497975D01*
X116003333Y-29497975D02*
X115990000Y-29484641D01*
X115990000Y-29484641D02*
X115976666Y-29457975D01*
X115976666Y-29457975D02*
X115976666Y-29431308D01*
X116163333Y-29297975D02*
X116150000Y-29324642D01*
X116150000Y-29324642D02*
X116136666Y-29337975D01*
X116136666Y-29337975D02*
X116110000Y-29351308D01*
X116110000Y-29351308D02*
X116030000Y-29351308D01*
X116030000Y-29351308D02*
X116003333Y-29337975D01*
X116003333Y-29337975D02*
X115990000Y-29324642D01*
X115990000Y-29324642D02*
X115976666Y-29297975D01*
X115976666Y-29297975D02*
X115976666Y-29257975D01*
X115976666Y-29257975D02*
X115990000Y-29231308D01*
X115990000Y-29231308D02*
X116003333Y-29217975D01*
X116003333Y-29217975D02*
X116030000Y-29204642D01*
X116030000Y-29204642D02*
X116110000Y-29204642D01*
X116110000Y-29204642D02*
X116136666Y-29217975D01*
X116136666Y-29217975D02*
X116150000Y-29231308D01*
X116150000Y-29231308D02*
X116163333Y-29257975D01*
X116163333Y-29257975D02*
X116163333Y-29297975D01*
X115976666Y-29084642D02*
X116163333Y-29084642D01*
X116003333Y-29084642D02*
X115990000Y-29071309D01*
X115990000Y-29071309D02*
X115976666Y-29044642D01*
X115976666Y-29044642D02*
X115976666Y-29004642D01*
X115976666Y-29004642D02*
X115990000Y-28977975D01*
X115990000Y-28977975D02*
X116016666Y-28964642D01*
X116016666Y-28964642D02*
X116163333Y-28964642D01*
X115976666Y-28871309D02*
X115976666Y-28764642D01*
X115883333Y-28831309D02*
X116123333Y-28831309D01*
X116123333Y-28831309D02*
X116150000Y-28817976D01*
X116150000Y-28817976D02*
X116163333Y-28791309D01*
X116163333Y-28791309D02*
X116163333Y-28764642D01*
X116190000Y-28737976D02*
X116190000Y-28524642D01*
X116163333Y-28324643D02*
X116163333Y-28457976D01*
X116163333Y-28457976D02*
X115883333Y-28457976D01*
X116150000Y-28124642D02*
X116163333Y-28151309D01*
X116163333Y-28151309D02*
X116163333Y-28204642D01*
X116163333Y-28204642D02*
X116150000Y-28231309D01*
X116150000Y-28231309D02*
X116123333Y-28244642D01*
X116123333Y-28244642D02*
X116016666Y-28244642D01*
X116016666Y-28244642D02*
X115990000Y-28231309D01*
X115990000Y-28231309D02*
X115976666Y-28204642D01*
X115976666Y-28204642D02*
X115976666Y-28151309D01*
X115976666Y-28151309D02*
X115990000Y-28124642D01*
X115990000Y-28124642D02*
X116016666Y-28111309D01*
X116016666Y-28111309D02*
X116043333Y-28111309D01*
X116043333Y-28111309D02*
X116070000Y-28244642D01*
X115976666Y-28031309D02*
X115976666Y-27924642D01*
X116163333Y-27991309D02*
X115923333Y-27991309D01*
X115923333Y-27991309D02*
X115896666Y-27977976D01*
X115896666Y-27977976D02*
X115883333Y-27951309D01*
X115883333Y-27951309D02*
X115883333Y-27924642D01*
X115976666Y-27871309D02*
X115976666Y-27764642D01*
X115883333Y-27831309D02*
X116123333Y-27831309D01*
X116123333Y-27831309D02*
X116150000Y-27817976D01*
X116150000Y-27817976D02*
X116163333Y-27791309D01*
X116163333Y-27791309D02*
X116163333Y-27764642D01*
X116085047Y-27433214D02*
X116085047Y-27661785D01*
X116085047Y-27547499D02*
X115685047Y-27547499D01*
X115685047Y-27547499D02*
X115742190Y-27585595D01*
X115742190Y-27585595D02*
X115780285Y-27623690D01*
X115780285Y-27623690D02*
X115799333Y-27661785D01*
D10*
%TO.C,R_{Rear_Right}1*%
X72992619Y-37790476D02*
X72516428Y-38123809D01*
X72992619Y-38361904D02*
X71992619Y-38361904D01*
X71992619Y-38361904D02*
X71992619Y-37980952D01*
X71992619Y-37980952D02*
X72040238Y-37885714D01*
X72040238Y-37885714D02*
X72087857Y-37838095D01*
X72087857Y-37838095D02*
X72183095Y-37790476D01*
X72183095Y-37790476D02*
X72325952Y-37790476D01*
X72325952Y-37790476D02*
X72421190Y-37838095D01*
X72421190Y-37838095D02*
X72468809Y-37885714D01*
X72468809Y-37885714D02*
X72516428Y-37980952D01*
X72516428Y-37980952D02*
X72516428Y-38361904D01*
D11*
X71285047Y-39286665D02*
X71094571Y-39419998D01*
X71285047Y-39515236D02*
X70885047Y-39515236D01*
X70885047Y-39515236D02*
X70885047Y-39362855D01*
X70885047Y-39362855D02*
X70904095Y-39324760D01*
X70904095Y-39324760D02*
X70923142Y-39305713D01*
X70923142Y-39305713D02*
X70961238Y-39286665D01*
X70961238Y-39286665D02*
X71018380Y-39286665D01*
X71018380Y-39286665D02*
X71056476Y-39305713D01*
X71056476Y-39305713D02*
X71075523Y-39324760D01*
X71075523Y-39324760D02*
X71094571Y-39362855D01*
X71094571Y-39362855D02*
X71094571Y-39515236D01*
X71363333Y-38983808D02*
X71230000Y-39077141D01*
X71363333Y-39143808D02*
X71083333Y-39143808D01*
X71083333Y-39143808D02*
X71083333Y-39037141D01*
X71083333Y-39037141D02*
X71096666Y-39010475D01*
X71096666Y-39010475D02*
X71110000Y-38997141D01*
X71110000Y-38997141D02*
X71136666Y-38983808D01*
X71136666Y-38983808D02*
X71176666Y-38983808D01*
X71176666Y-38983808D02*
X71203333Y-38997141D01*
X71203333Y-38997141D02*
X71216666Y-39010475D01*
X71216666Y-39010475D02*
X71230000Y-39037141D01*
X71230000Y-39037141D02*
X71230000Y-39143808D01*
X71350000Y-38757141D02*
X71363333Y-38783808D01*
X71363333Y-38783808D02*
X71363333Y-38837141D01*
X71363333Y-38837141D02*
X71350000Y-38863808D01*
X71350000Y-38863808D02*
X71323333Y-38877141D01*
X71323333Y-38877141D02*
X71216666Y-38877141D01*
X71216666Y-38877141D02*
X71190000Y-38863808D01*
X71190000Y-38863808D02*
X71176666Y-38837141D01*
X71176666Y-38837141D02*
X71176666Y-38783808D01*
X71176666Y-38783808D02*
X71190000Y-38757141D01*
X71190000Y-38757141D02*
X71216666Y-38743808D01*
X71216666Y-38743808D02*
X71243333Y-38743808D01*
X71243333Y-38743808D02*
X71270000Y-38877141D01*
X71363333Y-38503808D02*
X71216666Y-38503808D01*
X71216666Y-38503808D02*
X71190000Y-38517141D01*
X71190000Y-38517141D02*
X71176666Y-38543808D01*
X71176666Y-38543808D02*
X71176666Y-38597141D01*
X71176666Y-38597141D02*
X71190000Y-38623808D01*
X71350000Y-38503808D02*
X71363333Y-38530475D01*
X71363333Y-38530475D02*
X71363333Y-38597141D01*
X71363333Y-38597141D02*
X71350000Y-38623808D01*
X71350000Y-38623808D02*
X71323333Y-38637141D01*
X71323333Y-38637141D02*
X71296666Y-38637141D01*
X71296666Y-38637141D02*
X71270000Y-38623808D01*
X71270000Y-38623808D02*
X71256666Y-38597141D01*
X71256666Y-38597141D02*
X71256666Y-38530475D01*
X71256666Y-38530475D02*
X71243333Y-38503808D01*
X71363333Y-38370475D02*
X71176666Y-38370475D01*
X71230000Y-38370475D02*
X71203333Y-38357142D01*
X71203333Y-38357142D02*
X71190000Y-38343808D01*
X71190000Y-38343808D02*
X71176666Y-38317142D01*
X71176666Y-38317142D02*
X71176666Y-38290475D01*
X71390000Y-38263809D02*
X71390000Y-38050475D01*
X71363333Y-37823809D02*
X71230000Y-37917142D01*
X71363333Y-37983809D02*
X71083333Y-37983809D01*
X71083333Y-37983809D02*
X71083333Y-37877142D01*
X71083333Y-37877142D02*
X71096666Y-37850476D01*
X71096666Y-37850476D02*
X71110000Y-37837142D01*
X71110000Y-37837142D02*
X71136666Y-37823809D01*
X71136666Y-37823809D02*
X71176666Y-37823809D01*
X71176666Y-37823809D02*
X71203333Y-37837142D01*
X71203333Y-37837142D02*
X71216666Y-37850476D01*
X71216666Y-37850476D02*
X71230000Y-37877142D01*
X71230000Y-37877142D02*
X71230000Y-37983809D01*
X71363333Y-37703809D02*
X71176666Y-37703809D01*
X71083333Y-37703809D02*
X71096666Y-37717142D01*
X71096666Y-37717142D02*
X71110000Y-37703809D01*
X71110000Y-37703809D02*
X71096666Y-37690476D01*
X71096666Y-37690476D02*
X71083333Y-37703809D01*
X71083333Y-37703809D02*
X71110000Y-37703809D01*
X71176666Y-37450476D02*
X71403333Y-37450476D01*
X71403333Y-37450476D02*
X71430000Y-37463809D01*
X71430000Y-37463809D02*
X71443333Y-37477143D01*
X71443333Y-37477143D02*
X71456666Y-37503809D01*
X71456666Y-37503809D02*
X71456666Y-37543809D01*
X71456666Y-37543809D02*
X71443333Y-37570476D01*
X71350000Y-37450476D02*
X71363333Y-37477143D01*
X71363333Y-37477143D02*
X71363333Y-37530476D01*
X71363333Y-37530476D02*
X71350000Y-37557143D01*
X71350000Y-37557143D02*
X71336666Y-37570476D01*
X71336666Y-37570476D02*
X71310000Y-37583809D01*
X71310000Y-37583809D02*
X71230000Y-37583809D01*
X71230000Y-37583809D02*
X71203333Y-37570476D01*
X71203333Y-37570476D02*
X71190000Y-37557143D01*
X71190000Y-37557143D02*
X71176666Y-37530476D01*
X71176666Y-37530476D02*
X71176666Y-37477143D01*
X71176666Y-37477143D02*
X71190000Y-37450476D01*
X71363333Y-37317143D02*
X71083333Y-37317143D01*
X71363333Y-37197143D02*
X71216666Y-37197143D01*
X71216666Y-37197143D02*
X71190000Y-37210476D01*
X71190000Y-37210476D02*
X71176666Y-37237143D01*
X71176666Y-37237143D02*
X71176666Y-37277143D01*
X71176666Y-37277143D02*
X71190000Y-37303810D01*
X71190000Y-37303810D02*
X71203333Y-37317143D01*
X71176666Y-37103810D02*
X71176666Y-36997143D01*
X71083333Y-37063810D02*
X71323333Y-37063810D01*
X71323333Y-37063810D02*
X71350000Y-37050477D01*
X71350000Y-37050477D02*
X71363333Y-37023810D01*
X71363333Y-37023810D02*
X71363333Y-36997143D01*
X71285047Y-36665715D02*
X71285047Y-36894286D01*
X71285047Y-36780000D02*
X70885047Y-36780000D01*
X70885047Y-36780000D02*
X70942190Y-36818096D01*
X70942190Y-36818096D02*
X70980285Y-36856191D01*
X70980285Y-36856191D02*
X70999333Y-36894286D01*
D10*
%TO.C,+12V1*%
X75167857Y-30102619D02*
X75167857Y-30816904D01*
X75167857Y-30816904D02*
X75120238Y-30959761D01*
X75120238Y-30959761D02*
X75025000Y-31055000D01*
X75025000Y-31055000D02*
X74882143Y-31102619D01*
X74882143Y-31102619D02*
X74786905Y-31102619D01*
X72786905Y-28181666D02*
X73548810Y-28181666D01*
X73167857Y-28562619D02*
X73167857Y-27800714D01*
X74548809Y-28562619D02*
X73977381Y-28562619D01*
X74263095Y-28562619D02*
X74263095Y-27562619D01*
X74263095Y-27562619D02*
X74167857Y-27705476D01*
X74167857Y-27705476D02*
X74072619Y-27800714D01*
X74072619Y-27800714D02*
X73977381Y-27848333D01*
X74929762Y-27657857D02*
X74977381Y-27610238D01*
X74977381Y-27610238D02*
X75072619Y-27562619D01*
X75072619Y-27562619D02*
X75310714Y-27562619D01*
X75310714Y-27562619D02*
X75405952Y-27610238D01*
X75405952Y-27610238D02*
X75453571Y-27657857D01*
X75453571Y-27657857D02*
X75501190Y-27753095D01*
X75501190Y-27753095D02*
X75501190Y-27848333D01*
X75501190Y-27848333D02*
X75453571Y-27991190D01*
X75453571Y-27991190D02*
X74882143Y-28562619D01*
X74882143Y-28562619D02*
X75501190Y-28562619D01*
X75786905Y-27562619D02*
X76120238Y-28562619D01*
X76120238Y-28562619D02*
X76453571Y-27562619D01*
X77310714Y-28562619D02*
X76739286Y-28562619D01*
X77025000Y-28562619D02*
X77025000Y-27562619D01*
X77025000Y-27562619D02*
X76929762Y-27705476D01*
X76929762Y-27705476D02*
X76834524Y-27800714D01*
X76834524Y-27800714D02*
X76739286Y-27848333D01*
%TO.C,Q1*%
X70804762Y-37212619D02*
X70804762Y-36212619D01*
X70804762Y-36212619D02*
X71376190Y-37212619D01*
X71376190Y-37212619D02*
X71376190Y-36212619D01*
X71852381Y-37212619D02*
X71852381Y-36212619D01*
X71852381Y-36212619D02*
X72185714Y-36926904D01*
X72185714Y-36926904D02*
X72519047Y-36212619D01*
X72519047Y-36212619D02*
X72519047Y-37212619D01*
X73185714Y-36212619D02*
X73376190Y-36212619D01*
X73376190Y-36212619D02*
X73471428Y-36260238D01*
X73471428Y-36260238D02*
X73566666Y-36355476D01*
X73566666Y-36355476D02*
X73614285Y-36545952D01*
X73614285Y-36545952D02*
X73614285Y-36879285D01*
X73614285Y-36879285D02*
X73566666Y-37069761D01*
X73566666Y-37069761D02*
X73471428Y-37165000D01*
X73471428Y-37165000D02*
X73376190Y-37212619D01*
X73376190Y-37212619D02*
X73185714Y-37212619D01*
X73185714Y-37212619D02*
X73090476Y-37165000D01*
X73090476Y-37165000D02*
X72995238Y-37069761D01*
X72995238Y-37069761D02*
X72947619Y-36879285D01*
X72947619Y-36879285D02*
X72947619Y-36545952D01*
X72947619Y-36545952D02*
X72995238Y-36355476D01*
X72995238Y-36355476D02*
X73090476Y-36260238D01*
X73090476Y-36260238D02*
X73185714Y-36212619D01*
X73995238Y-37165000D02*
X74138095Y-37212619D01*
X74138095Y-37212619D02*
X74376190Y-37212619D01*
X74376190Y-37212619D02*
X74471428Y-37165000D01*
X74471428Y-37165000D02*
X74519047Y-37117380D01*
X74519047Y-37117380D02*
X74566666Y-37022142D01*
X74566666Y-37022142D02*
X74566666Y-36926904D01*
X74566666Y-36926904D02*
X74519047Y-36831666D01*
X74519047Y-36831666D02*
X74471428Y-36784047D01*
X74471428Y-36784047D02*
X74376190Y-36736428D01*
X74376190Y-36736428D02*
X74185714Y-36688809D01*
X74185714Y-36688809D02*
X74090476Y-36641190D01*
X74090476Y-36641190D02*
X74042857Y-36593571D01*
X74042857Y-36593571D02*
X73995238Y-36498333D01*
X73995238Y-36498333D02*
X73995238Y-36403095D01*
X73995238Y-36403095D02*
X74042857Y-36307857D01*
X74042857Y-36307857D02*
X74090476Y-36260238D01*
X74090476Y-36260238D02*
X74185714Y-36212619D01*
X74185714Y-36212619D02*
X74423809Y-36212619D01*
X74423809Y-36212619D02*
X74566666Y-36260238D01*
X75328571Y-36688809D02*
X74995238Y-36688809D01*
X74995238Y-37212619D02*
X74995238Y-36212619D01*
X74995238Y-36212619D02*
X75471428Y-36212619D01*
X75852381Y-36688809D02*
X76185714Y-36688809D01*
X76328571Y-37212619D02*
X75852381Y-37212619D01*
X75852381Y-37212619D02*
X75852381Y-36212619D01*
X75852381Y-36212619D02*
X76328571Y-36212619D01*
X76614286Y-36212619D02*
X77185714Y-36212619D01*
X76900000Y-37212619D02*
X76900000Y-36212619D01*
X78042857Y-37212619D02*
X77471429Y-37212619D01*
X77757143Y-37212619D02*
X77757143Y-36212619D01*
X77757143Y-36212619D02*
X77661905Y-36355476D01*
X77661905Y-36355476D02*
X77566667Y-36450714D01*
X77566667Y-36450714D02*
X77471429Y-36498333D01*
D12*
X74369523Y-34528514D02*
X74339047Y-34513276D01*
X74339047Y-34513276D02*
X74308571Y-34482800D01*
X74308571Y-34482800D02*
X74262857Y-34437085D01*
X74262857Y-34437085D02*
X74232380Y-34421847D01*
X74232380Y-34421847D02*
X74201904Y-34421847D01*
X74217142Y-34498038D02*
X74186666Y-34482800D01*
X74186666Y-34482800D02*
X74156190Y-34452323D01*
X74156190Y-34452323D02*
X74140952Y-34391371D01*
X74140952Y-34391371D02*
X74140952Y-34284704D01*
X74140952Y-34284704D02*
X74156190Y-34223752D01*
X74156190Y-34223752D02*
X74186666Y-34193276D01*
X74186666Y-34193276D02*
X74217142Y-34178038D01*
X74217142Y-34178038D02*
X74278095Y-34178038D01*
X74278095Y-34178038D02*
X74308571Y-34193276D01*
X74308571Y-34193276D02*
X74339047Y-34223752D01*
X74339047Y-34223752D02*
X74354285Y-34284704D01*
X74354285Y-34284704D02*
X74354285Y-34391371D01*
X74354285Y-34391371D02*
X74339047Y-34452323D01*
X74339047Y-34452323D02*
X74308571Y-34482800D01*
X74308571Y-34482800D02*
X74278095Y-34498038D01*
X74278095Y-34498038D02*
X74217142Y-34498038D01*
X74659047Y-34498038D02*
X74476190Y-34498038D01*
X74567618Y-34498038D02*
X74567618Y-34178038D01*
X74567618Y-34178038D02*
X74537142Y-34223752D01*
X74537142Y-34223752D02*
X74506666Y-34254228D01*
X74506666Y-34254228D02*
X74476190Y-34269466D01*
D13*
%TO.C,21MTC1*%
X84962000Y-26724000D02*
X84962000Y-27124000D01*
X84962000Y-27124000D02*
X86007000Y-27124000D01*
X84962000Y-27994000D02*
X84962000Y-28394000D01*
X84962000Y-28394000D02*
X86007000Y-28394000D01*
X84962000Y-29264000D02*
X84962000Y-29664000D01*
X84962000Y-29664000D02*
X86007000Y-29664000D01*
X84962000Y-30534000D02*
X84962000Y-30934000D01*
X84962000Y-30934000D02*
X86007000Y-30934000D01*
X84962000Y-31804000D02*
X84962000Y-32204000D01*
X84962000Y-32204000D02*
X86007000Y-32204000D01*
X84962000Y-33074000D02*
X84962000Y-33474000D01*
X84962000Y-33474000D02*
X86007000Y-33474000D01*
X84962000Y-34344000D02*
X84962000Y-34744000D01*
X84962000Y-34744000D02*
X86007000Y-34744000D01*
X84962000Y-35614000D02*
X84962000Y-36014000D01*
X84962000Y-36014000D02*
X86007000Y-36014000D01*
X84962000Y-36884000D02*
X84962000Y-37284000D01*
X84962000Y-37284000D02*
X86007000Y-37284000D01*
X84962000Y-38154000D02*
X84962000Y-38554000D01*
X84962000Y-38554000D02*
X86007000Y-38554000D01*
X84962000Y-39424000D02*
X84962000Y-39824000D01*
X84962000Y-39824000D02*
X86007000Y-39824000D01*
X86007000Y-26724000D02*
X84962000Y-26724000D01*
X86007000Y-26724000D02*
X86442000Y-26289000D01*
X86007000Y-27994000D02*
X84962000Y-27994000D01*
X86007000Y-29264000D02*
X84962000Y-29264000D01*
X86007000Y-30534000D02*
X84962000Y-30534000D01*
X86007000Y-31804000D02*
X84962000Y-31804000D01*
X86007000Y-33074000D02*
X84962000Y-33074000D01*
X86007000Y-34344000D02*
X84962000Y-34344000D01*
X86007000Y-35614000D02*
X84962000Y-35614000D01*
X86007000Y-36884000D02*
X84962000Y-36884000D01*
X86007000Y-38154000D02*
X84962000Y-38154000D01*
X86007000Y-39424000D02*
X84962000Y-39424000D01*
X86007000Y-40259000D02*
X86007000Y-26724000D01*
X86442000Y-26289000D02*
X89417000Y-26289000D01*
X88862000Y-26724000D02*
X89907000Y-26724000D01*
X88862000Y-27124000D02*
X88862000Y-26724000D01*
X88862000Y-27994000D02*
X89907000Y-27994000D01*
X88862000Y-28394000D02*
X88862000Y-27994000D01*
X88862000Y-29264000D02*
X89907000Y-29264000D01*
X88862000Y-29664000D02*
X88862000Y-29264000D01*
X88862000Y-30534000D02*
X89907000Y-30534000D01*
X88862000Y-30934000D02*
X88862000Y-30534000D01*
X88862000Y-31804000D02*
X89907000Y-31804000D01*
X88862000Y-32204000D02*
X88862000Y-31804000D01*
X88862000Y-33074000D02*
X89907000Y-33074000D01*
X88862000Y-33474000D02*
X88862000Y-33074000D01*
X88862000Y-34344000D02*
X89907000Y-34344000D01*
X88862000Y-34744000D02*
X88862000Y-34344000D01*
X88862000Y-35614000D02*
X89907000Y-35614000D01*
X88862000Y-36014000D02*
X88862000Y-35614000D01*
X88862000Y-36884000D02*
X89907000Y-36884000D01*
X88862000Y-37284000D02*
X88862000Y-36884000D01*
X88862000Y-38154000D02*
X89907000Y-38154000D01*
X88862000Y-38554000D02*
X88862000Y-38154000D01*
X88862000Y-39424000D02*
X89907000Y-39424000D01*
X88862000Y-39824000D02*
X88862000Y-39424000D01*
X89417000Y-26289000D02*
X89417000Y-40259000D01*
X89417000Y-40259000D02*
X86007000Y-40259000D01*
X89907000Y-27124000D02*
X88862000Y-27124000D01*
X89907000Y-28394000D02*
X88862000Y-28394000D01*
X89907000Y-29664000D02*
X88862000Y-29664000D01*
X89907000Y-30934000D02*
X88862000Y-30934000D01*
X89907000Y-32204000D02*
X88862000Y-32204000D01*
X89907000Y-33474000D02*
X88862000Y-33474000D01*
X89907000Y-34744000D02*
X88862000Y-34744000D01*
X89907000Y-36014000D02*
X88862000Y-36014000D01*
X89907000Y-37284000D02*
X88862000Y-37284000D01*
X89907000Y-38554000D02*
X88862000Y-38554000D01*
X89907000Y-39824000D02*
X88862000Y-39824000D01*
%TO.C,R_{Front_Right}1*%
X115487500Y-38687500D02*
X115487500Y-37087500D01*
X116312500Y-38687500D02*
X115487500Y-38687500D01*
X115487500Y-37087500D02*
X116312500Y-37087500D01*
X116312500Y-37087500D02*
X116312500Y-38687500D01*
%TO.C,Speaker_{2}1*%
X81620000Y-26830000D02*
X82880000Y-26830000D01*
X81620000Y-29370000D02*
X81620000Y-26830000D01*
X82880000Y-26830000D02*
X82880000Y-29370000D01*
X82880000Y-29370000D02*
X81620000Y-29370000D01*
%TO.C,Rail_{Right}1*%
X82450000Y-36000000D02*
G75*
G03*
X82450000Y-36000000I-1950000J0D01*
G01*
%TO.C,R_{Rear}1*%
X70687500Y-34187500D02*
X70687500Y-32587500D01*
X71512500Y-34187500D02*
X70687500Y-34187500D01*
X70687500Y-32587500D02*
X71512500Y-32587500D01*
X71512500Y-32587500D02*
X71512500Y-34187500D01*
%TO.C,LED_{Front}1*%
X119570000Y-35450000D02*
X120920000Y-35450000D01*
X120920000Y-35450000D02*
X120920000Y-31450000D01*
X119570000Y-31450000D02*
X119570000Y-35450000D01*
X120920000Y-31450000D02*
X119570000Y-31450000D01*
%TO.C,R1*%
X76150000Y-32287500D02*
X74550000Y-32287500D01*
X76150000Y-31462500D02*
X76150000Y-32287500D01*
X74550000Y-32287500D02*
X74550000Y-31462500D01*
X74550000Y-31462500D02*
X76150000Y-31462500D01*
%TO.C,Speaker_{1}1*%
X80345000Y-26830000D02*
X81605000Y-26830000D01*
X80345000Y-29370000D02*
X80345000Y-26830000D01*
X81605000Y-26830000D02*
X81605000Y-29370000D01*
X81605000Y-29370000D02*
X80345000Y-29370000D01*
%TO.C,VCC1*%
X113730000Y-40930000D02*
X113730000Y-39670000D01*
X116270000Y-40930000D02*
X113730000Y-40930000D01*
X113730000Y-39670000D02*
X116270000Y-39670000D01*
X116270000Y-39670000D02*
X116270000Y-40930000D01*
%TO.C,Rail_{Left}1*%
X107950000Y-30800000D02*
G75*
G03*
X107950000Y-30800000I-1950000J0D01*
G01*
%TO.C,Motor_{2}1*%
X78020000Y-26830000D02*
X79280000Y-26830000D01*
X78020000Y-29370000D02*
X78020000Y-26830000D01*
X79280000Y-26830000D02*
X79280000Y-29370000D01*
X79280000Y-29370000D02*
X78020000Y-29370000D01*
%TO.C,GND1*%
X71995000Y-26830000D02*
X73255000Y-26830000D01*
X71995000Y-29370000D02*
X71995000Y-26830000D01*
X73255000Y-26830000D02*
X73255000Y-29370000D01*
X73255000Y-29370000D02*
X71995000Y-29370000D01*
%TO.C,R_{Front}1*%
X115487500Y-34187500D02*
X115487500Y-32587500D01*
X116312500Y-34187500D02*
X115487500Y-34187500D01*
X115487500Y-32587500D02*
X116312500Y-32587500D01*
X116312500Y-32587500D02*
X116312500Y-34187500D01*
%TO.C,Motor_{1}1*%
X76720000Y-26830000D02*
X77980000Y-26830000D01*
X76720000Y-29370000D02*
X76720000Y-26830000D01*
X77980000Y-26830000D02*
X77980000Y-29370000D01*
X77980000Y-29370000D02*
X76720000Y-29370000D01*
%TO.C,R_{Rear_Left}1*%
X70687500Y-29500000D02*
X70687500Y-27900000D01*
X71512500Y-29500000D02*
X70687500Y-29500000D01*
X70687500Y-27900000D02*
X71512500Y-27900000D01*
X71512500Y-27900000D02*
X71512500Y-29500000D01*
%TO.C,LED_{Rear}1*%
X66930000Y-31350000D02*
X65580000Y-31350000D01*
X65580000Y-31350000D02*
X65580000Y-35350000D01*
X66930000Y-35350000D02*
X66930000Y-31350000D01*
X65580000Y-35350000D02*
X66930000Y-35350000D01*
%TO.C,Q2*%
X74312500Y-36975000D02*
X74637500Y-36650000D01*
X74312500Y-39550000D02*
X74312500Y-36975000D01*
X74637500Y-36650000D02*
X75612500Y-36650000D01*
X75612500Y-36650000D02*
X75612500Y-39550000D01*
X75612500Y-39550000D02*
X74312500Y-39550000D01*
%TO.C,R2*%
X80425000Y-30737500D02*
X78825000Y-30737500D01*
X80425000Y-29912500D02*
X80425000Y-30737500D01*
X78825000Y-30737500D02*
X78825000Y-29912500D01*
X78825000Y-29912500D02*
X80425000Y-29912500D01*
%TO.C,R_{Front_Left}1*%
X115487500Y-29587500D02*
X115487500Y-27987500D01*
X116312500Y-29587500D02*
X115487500Y-29587500D01*
X115487500Y-27987500D02*
X116312500Y-27987500D01*
X116312500Y-27987500D02*
X116312500Y-29587500D01*
%TO.C,R_{Rear_Right}1*%
X70687500Y-38900000D02*
X70687500Y-37300000D01*
X71512500Y-38900000D02*
X70687500Y-38900000D01*
X70687500Y-37300000D02*
X71512500Y-37300000D01*
X71512500Y-37300000D02*
X71512500Y-38900000D01*
%TO.C,+12V1*%
X74395000Y-26830000D02*
X75655000Y-26830000D01*
X74395000Y-29370000D02*
X74395000Y-26830000D01*
X75655000Y-26830000D02*
X75655000Y-29370000D01*
X75655000Y-29370000D02*
X74395000Y-29370000D01*
%TO.C,Q1*%
X73750000Y-33225000D02*
X74075000Y-32900000D01*
X73750000Y-35800000D02*
X73750000Y-33225000D01*
X74075000Y-32900000D02*
X75050000Y-32900000D01*
X75050000Y-32900000D02*
X75050000Y-35800000D01*
X75050000Y-35800000D02*
X73750000Y-35800000D01*
%TD*%
M02*
