%TF.GenerationSoftware,KiCad,Pcbnew,7.0.1*%
%TF.CreationDate,2023-05-18T02:12:41+09:00*%
%TF.ProjectId,dcc-adapter-board-kato-1.310-21mtc,6463632d-6164-4617-9074-65722d626f61,rev?*%
%TF.SameCoordinates,Original*%
%TF.FileFunction,Copper,L1,Top*%
%TF.FilePolarity,Positive*%
%FSLAX46Y46*%
G04 Gerber Fmt 4.6, Leading zero omitted, Abs format (unit mm)*
G04 Created by KiCad (PCBNEW 7.0.1) date 2023-05-18 02:12:41*
%MOMM*%
%LPD*%
G01*
G04 APERTURE LIST*
G04 Aperture macros list*
%AMRoundRect*
0 Rectangle with rounded corners*
0 $1 Rounding radius*
0 $2 $3 $4 $5 $6 $7 $8 $9 X,Y pos of 4 corners*
0 Add a 4 corners polygon primitive as box body*
4,1,4,$2,$3,$4,$5,$6,$7,$8,$9,$2,$3,0*
0 Add four circle primitives for the rounded corners*
1,1,$1+$1,$2,$3*
1,1,$1+$1,$4,$5*
1,1,$1+$1,$6,$7*
1,1,$1+$1,$8,$9*
0 Add four rect primitives between the rounded corners*
20,1,$1+$1,$2,$3,$4,$5,0*
20,1,$1+$1,$4,$5,$6,$7,0*
20,1,$1+$1,$6,$7,$8,$9,0*
20,1,$1+$1,$8,$9,$2,$3,0*%
G04 Aperture macros list end*
%TA.AperFunction,SMDPad,CuDef*%
%ADD10R,2.400000X0.740000*%
%TD*%
%TA.AperFunction,SMDPad,CuDef*%
%ADD11RoundRect,0.237500X0.237500X-0.250000X0.237500X0.250000X-0.237500X0.250000X-0.237500X-0.250000X0*%
%TD*%
%TA.AperFunction,SMDPad,CuDef*%
%ADD12RoundRect,0.250000X-0.250000X-0.750000X0.250000X-0.750000X0.250000X0.750000X-0.250000X0.750000X0*%
%TD*%
%TA.AperFunction,ComponentPad*%
%ADD13RoundRect,0.250002X-1.699998X-1.699998X1.699998X-1.699998X1.699998X1.699998X-1.699998X1.699998X0*%
%TD*%
%TA.AperFunction,SMDPad,CuDef*%
%ADD14RoundRect,0.203704X-0.346296X0.596296X-0.346296X-0.596296X0.346296X-0.596296X0.346296X0.596296X0*%
%TD*%
%TA.AperFunction,SMDPad,CuDef*%
%ADD15RoundRect,0.250000X0.750000X-0.250000X0.750000X0.250000X-0.750000X0.250000X-0.750000X-0.250000X0*%
%TD*%
%TA.AperFunction,SMDPad,CuDef*%
%ADD16RoundRect,0.203704X0.346296X-0.596296X0.346296X0.596296X-0.346296X0.596296X-0.346296X-0.596296X0*%
%TD*%
%TA.AperFunction,SMDPad,CuDef*%
%ADD17RoundRect,0.150000X-0.587500X-0.150000X0.587500X-0.150000X0.587500X0.150000X-0.587500X0.150000X0*%
%TD*%
%TA.AperFunction,ViaPad*%
%ADD18C,0.800000*%
%TD*%
%TA.AperFunction,Conductor*%
%ADD19C,0.250000*%
%TD*%
G04 APERTURE END LIST*
D10*
%TO.P,21MTC1,1,Input_1*%
%TO.N,unconnected-(21MTC1-Input_1-Pad1)*%
X85762000Y-26924000D03*
%TO.P,21MTC1,2,Input_2*%
%TO.N,unconnected-(21MTC1-Input_2-Pad2)*%
X85762000Y-28194000D03*
%TO.P,21MTC1,3,Aux_6*%
%TO.N,unconnected-(21MTC1-Aux_6-Pad3)*%
X85762000Y-29464000D03*
%TO.P,21MTC1,4,Aux_4*%
%TO.N,Net-(21MTC1-Aux_4)*%
X85762000Y-30734000D03*
%TO.P,21MTC1,5,Bus_Clock*%
%TO.N,unconnected-(21MTC1-Bus_Clock-Pad5)*%
X85762000Y-32004000D03*
%TO.P,21MTC1,6,Bus_Data*%
%TO.N,unconnected-(21MTC1-Bus_Data-Pad6)*%
X85762000Y-33274000D03*
%TO.P,21MTC1,7,Rearlight*%
%TO.N,Net-(21MTC1-Rearlight)*%
X85762000Y-34544000D03*
%TO.P,21MTC1,8,Frontlight*%
%TO.N,Net-(21MTC1-Frontlight)*%
X85762000Y-35814000D03*
%TO.P,21MTC1,9,Speaker_1*%
%TO.N,Net-(Speaker_{2}1-Pin_1)*%
X85762000Y-37084000D03*
%TO.P,21MTC1,10,Speaker_1*%
%TO.N,Net-(Speaker_{1}1-Pin_1)*%
X85762000Y-38354000D03*
%TO.P,21MTC1,11,Not_Connected*%
%TO.N,unconnected-(21MTC1-Not_Connected-Pad11)*%
X85762000Y-39624000D03*
%TO.P,21MTC1,12,Vcc*%
%TO.N,Net-(21MTC1-Vcc)*%
X89662000Y-39624000D03*
%TO.P,21MTC1,13,Aux_3*%
%TO.N,Net-(21MTC1-Aux_3)*%
X89662000Y-38354000D03*
%TO.P,21MTC1,14,Aux_2*%
%TO.N,Net-(21MTC1-Aux_2)*%
X89662000Y-37084000D03*
%TO.P,21MTC1,15,Aux_1*%
%TO.N,Net-(21MTC1-Aux_1)*%
X89662000Y-35814000D03*
%TO.P,21MTC1,16,V+*%
%TO.N,+12V*%
X89662000Y-34544000D03*
%TO.P,21MTC1,17,Aux_5*%
%TO.N,unconnected-(21MTC1-Aux_5-Pad17)*%
X89662000Y-33274000D03*
%TO.P,21MTC1,18,Motor_2*%
%TO.N,Net-(21MTC1-Motor_2)*%
X89662000Y-32004000D03*
%TO.P,21MTC1,19,Motor_1*%
%TO.N,Net-(21MTC1-Motor_1)*%
X89662000Y-30734000D03*
%TO.P,21MTC1,20,GND*%
%TO.N,GND*%
X89662000Y-29464000D03*
%TO.P,21MTC1,21,Rail_Left*%
%TO.N,Net-(21MTC1-Rail_Left)*%
X89662000Y-28194000D03*
%TO.P,21MTC1,22,Rail_Right*%
%TO.N,Net-(21MTC1-Rail_Right)*%
X89662000Y-26924000D03*
%TD*%
D11*
%TO.P,R_{Front_Right}1,1*%
%TO.N,Net-(21MTC1-Aux_1)*%
X115900000Y-38800000D03*
%TO.P,R_{Front_Right}1,2*%
%TO.N,Net-(LED_{Front_Right}1-K)*%
X115900000Y-36975000D03*
%TD*%
D12*
%TO.P,Speaker_{2}1,1,Pin_1*%
%TO.N,Net-(Speaker_{2}1-Pin_1)*%
X82250000Y-28100000D03*
%TD*%
D13*
%TO.P,Rail_{Right}1,1,Pin_1*%
%TO.N,Net-(21MTC1-Rail_Right)*%
X80500000Y-35500000D03*
%TD*%
D11*
%TO.P,R_{Rear}1,1*%
%TO.N,Net-(21MTC1-Rearlight)*%
X71100000Y-34300000D03*
%TO.P,R_{Rear}1,2*%
%TO.N,Net-(LED_{Rear}1-K)*%
X71100000Y-32475000D03*
%TD*%
D14*
%TO.P,LED_{Front}1,1,K*%
%TO.N,Net-(LED_{Front}1-K)*%
X120070000Y-35300000D03*
%TO.P,LED_{Front}1,2,A*%
%TO.N,+12V*%
X120070000Y-31600000D03*
%TD*%
D12*
%TO.P,Speaker_{1}1,1,Pin_1*%
%TO.N,Net-(Speaker_{1}1-Pin_1)*%
X80975000Y-28100000D03*
%TD*%
D15*
%TO.P,VCC1,1,Pin_1*%
%TO.N,Net-(21MTC1-Vcc)*%
X115000000Y-40300000D03*
%TD*%
D13*
%TO.P,Rail_{Left}1,1,Pin_1*%
%TO.N,Net-(21MTC1-Rail_Left)*%
X106000000Y-31300000D03*
%TD*%
D12*
%TO.P,Motor_{2}1,1,Pin_1*%
%TO.N,Net-(21MTC1-Motor_2)*%
X78650000Y-28100000D03*
%TD*%
%TO.P,GND1,1,Pin_1*%
%TO.N,GND*%
X72625000Y-28100000D03*
%TD*%
D11*
%TO.P,R_{Front}1,1*%
%TO.N,Net-(21MTC1-Frontlight)*%
X115900000Y-34300000D03*
%TO.P,R_{Front}1,2*%
%TO.N,Net-(LED_{Front}1-K)*%
X115900000Y-32475000D03*
%TD*%
D12*
%TO.P,Motor_{1}1,1,Pin_1*%
%TO.N,Net-(21MTC1-Motor_1)*%
X77350000Y-28100000D03*
%TD*%
D11*
%TO.P,R_{Rear_Left}1,1*%
%TO.N,Net-(21MTC1-Aux_2)*%
X71100000Y-29612500D03*
%TO.P,R_{Rear_Left}1,2*%
%TO.N,Net-(LED_{Rear_Left}1-K)*%
X71100000Y-27787500D03*
%TD*%
D16*
%TO.P,LED_{Rear}1,1,K*%
%TO.N,Net-(LED_{Rear}1-K)*%
X66430000Y-31500000D03*
%TO.P,LED_{Rear}1,2,A*%
%TO.N,+12V*%
X66430000Y-35200000D03*
%TD*%
D17*
%TO.P,Q2,1,G*%
%TO.N,Net-(21MTC1-Aux_4)*%
X74025000Y-37150000D03*
%TO.P,Q2,2,S*%
%TO.N,GND*%
X74025000Y-39050000D03*
%TO.P,Q2,3,D*%
%TO.N,Net-(Q2-D)*%
X75900000Y-38100000D03*
%TD*%
D11*
%TO.P,R_{Front_Left}1,1*%
%TO.N,Net-(Q1-D)*%
X115900000Y-29700000D03*
%TO.P,R_{Front_Left}1,2*%
%TO.N,Net-(LED_{Front_Left}1-K)*%
X115900000Y-27875000D03*
%TD*%
%TO.P,R_{Rear_Right}1,1*%
%TO.N,Net-(Q2-D)*%
X71100000Y-39012500D03*
%TO.P,R_{Rear_Right}1,2*%
%TO.N,Net-(LED_{Rear_Right}1-K)*%
X71100000Y-37187500D03*
%TD*%
D12*
%TO.P,+12V1,1,Pin_1*%
%TO.N,+12V*%
X75025000Y-28100000D03*
%TD*%
D17*
%TO.P,Q1,1,G*%
%TO.N,Net-(21MTC1-Aux_3)*%
X73462500Y-33175000D03*
%TO.P,Q1,2,S*%
%TO.N,GND*%
X73462500Y-35075000D03*
%TO.P,Q1,3,D*%
%TO.N,Net-(Q1-D)*%
X75337500Y-34125000D03*
%TD*%
D18*
%TO.N,Net-(21MTC1-Aux_4)*%
X83400000Y-31524500D03*
X79300000Y-31524500D03*
%TO.N,GND*%
X72962500Y-37987500D03*
X87925789Y-40262105D03*
%TO.N,Net-(21MTC1-Rearlight)*%
X83962498Y-32350694D03*
X80214636Y-32249000D03*
X75866926Y-36066924D03*
X71100000Y-35700000D03*
%TO.N,+12V*%
X91800000Y-34544000D03*
X75025000Y-30800000D03*
X69700000Y-35000000D03*
X99900000Y-32100000D03*
X117400000Y-32000000D03*
%TO.N,Net-(21MTC1-Aux_3)*%
X92600000Y-37800000D03*
X75875000Y-33140835D03*
%TO.N,Net-(21MTC1-Aux_2)*%
X72925500Y-30000000D03*
X92500000Y-36700000D03*
%TO.N,Net-(21MTC1-Aux_1)*%
X94700000Y-35800000D03*
X97850000Y-29650000D03*
%TO.N,Net-(21MTC1-Motor_2)*%
X91900000Y-32000000D03*
X79875000Y-28100000D03*
%TO.N,Net-(21MTC1-Motor_1)*%
X79875000Y-29099503D03*
X91866000Y-30734000D03*
%TO.N,Net-(21MTC1-Rail_Right)*%
X91700000Y-27100000D03*
%TO.N,Net-(LED_{Front_Left}1-K)*%
X117700000Y-27100000D03*
%TO.N,Net-(LED_{Front_Right}1-K)*%
X118800000Y-36975000D03*
%TO.N,Net-(LED_{Rear_Left}1-K)*%
X67568623Y-30771963D03*
%TO.N,Net-(LED_{Rear_Right}1-K)*%
X68400000Y-39700000D03*
%TO.N,Net-(Q1-D)*%
X74799500Y-35085153D03*
X112100000Y-29700000D03*
%TD*%
D19*
%TO.N,Net-(21MTC1-Aux_4)*%
X79300000Y-31524500D02*
X79300000Y-31609251D01*
X85762000Y-30734000D02*
X84190500Y-30734000D01*
X84190500Y-30734000D02*
X83400000Y-31524500D01*
X79300000Y-31609251D02*
X74025000Y-36884251D01*
X74025000Y-36884251D02*
X74025000Y-37150000D01*
%TO.N,GND*%
X73462500Y-35075000D02*
X72962500Y-35575000D01*
X73650500Y-29125500D02*
X72625000Y-28100000D01*
X73650500Y-31099500D02*
X73650500Y-29125500D01*
X88832000Y-29464000D02*
X87925789Y-30370211D01*
X73462500Y-35075000D02*
X72400000Y-34012500D01*
X89662000Y-29464000D02*
X88832000Y-29464000D01*
X72400000Y-34012500D02*
X72400000Y-32350000D01*
X74025000Y-39050000D02*
X72962500Y-37987500D01*
X72400000Y-32350000D02*
X73650500Y-31099500D01*
X87925789Y-30370211D02*
X87925789Y-40262105D01*
X72962500Y-35575000D02*
X72962500Y-37987500D01*
%TO.N,Net-(21MTC1-Rearlight)*%
X75866926Y-35919902D02*
X79537828Y-32249000D01*
X79537828Y-32249000D02*
X80214636Y-32249000D01*
X71100000Y-35700000D02*
X71100000Y-34300000D01*
X83988389Y-32376585D02*
X83988389Y-33720389D01*
X84812000Y-34544000D02*
X85762000Y-34544000D01*
X75866926Y-36066924D02*
X75866926Y-35919902D01*
X83988389Y-33720389D02*
X84812000Y-34544000D01*
X83962498Y-32350694D02*
X83988389Y-32376585D01*
%TO.N,Net-(21MTC1-Frontlight)*%
X86712000Y-35814000D02*
X87287000Y-35239000D01*
X107603695Y-26229000D02*
X115674695Y-34300000D01*
X87287000Y-26600000D02*
X87658000Y-26229000D01*
X85762000Y-35814000D02*
X86712000Y-35814000D01*
X115674695Y-34300000D02*
X115900000Y-34300000D01*
X87287000Y-35239000D02*
X87287000Y-26600000D01*
X87658000Y-26229000D02*
X107603695Y-26229000D01*
%TO.N,+12V*%
X89662000Y-34544000D02*
X91800000Y-34544000D01*
X91800000Y-34544000D02*
X97456000Y-34544000D01*
X97456000Y-34544000D02*
X99900000Y-32100000D01*
X66630000Y-35000000D02*
X66430000Y-35200000D01*
X117400000Y-32000000D02*
X119670000Y-32000000D01*
X69700000Y-35000000D02*
X66630000Y-35000000D01*
X75025000Y-28100000D02*
X75025000Y-30800000D01*
X119670000Y-32000000D02*
X120070000Y-31600000D01*
%TO.N,Net-(21MTC1-Aux_3)*%
X92046000Y-38354000D02*
X92600000Y-37800000D01*
X89662000Y-38354000D02*
X92046000Y-38354000D01*
X75875000Y-33140835D02*
X75840835Y-33175000D01*
X75840835Y-33175000D02*
X73462500Y-33175000D01*
%TO.N,Net-(21MTC1-Aux_2)*%
X92116000Y-37084000D02*
X89662000Y-37084000D01*
X72925500Y-30000000D02*
X72538000Y-29612500D01*
X92500000Y-36700000D02*
X92116000Y-37084000D01*
X72538000Y-29612500D02*
X71100000Y-29612500D01*
%TO.N,Net-(21MTC1-Aux_1)*%
X107113172Y-27300000D02*
X109700000Y-29886828D01*
X97850000Y-29650000D02*
X100200000Y-27300000D01*
X94686000Y-35814000D02*
X89662000Y-35814000D01*
X100200000Y-27300000D02*
X107113172Y-27300000D01*
X109700000Y-32600000D02*
X115900000Y-38800000D01*
X94700000Y-35800000D02*
X94686000Y-35814000D01*
X109700000Y-29886828D02*
X109700000Y-32600000D01*
%TO.N,Net-(21MTC1-Motor_2)*%
X89666000Y-32000000D02*
X89662000Y-32004000D01*
X78650000Y-28100000D02*
X79875000Y-28100000D01*
X91900000Y-32000000D02*
X89666000Y-32000000D01*
%TO.N,Net-(21MTC1-Motor_1)*%
X89662000Y-30734000D02*
X91866000Y-30734000D01*
X78161827Y-29425000D02*
X77350000Y-28613173D01*
X79875000Y-29099503D02*
X79549503Y-29425000D01*
X79549503Y-29425000D02*
X78161827Y-29425000D01*
X77350000Y-28613173D02*
X77350000Y-28100000D01*
%TO.N,Net-(21MTC1-Rail_Left)*%
X89662000Y-28194000D02*
X95368695Y-28194000D01*
X95368695Y-28194000D02*
X98474695Y-31300000D01*
X98474695Y-31300000D02*
X106000000Y-31300000D01*
%TO.N,Net-(21MTC1-Rail_Right)*%
X91524000Y-26924000D02*
X91700000Y-27100000D01*
X89662000Y-26924000D02*
X91524000Y-26924000D01*
%TO.N,Net-(LED_{Front}1-K)*%
X118725000Y-35300000D02*
X115900000Y-32475000D01*
X120070000Y-35300000D02*
X118725000Y-35300000D01*
%TO.N,Net-(LED_{Rear}1-K)*%
X71100000Y-32475000D02*
X67405000Y-32475000D01*
X67405000Y-32475000D02*
X66430000Y-31500000D01*
%TO.N,Net-(Speaker_{2}1-Pin_1)*%
X84812000Y-37084000D02*
X83538389Y-35810389D01*
X82575000Y-28425000D02*
X82250000Y-28100000D01*
X83538389Y-33123582D02*
X82575000Y-32160193D01*
X85762000Y-37084000D02*
X84812000Y-37084000D01*
X83538389Y-35810389D02*
X83538389Y-33123582D01*
X82575000Y-32160193D02*
X82575000Y-28425000D01*
%TO.N,Net-(LED_{Front_Left}1-K)*%
X115900000Y-27875000D02*
X116925000Y-27875000D01*
X116925000Y-27875000D02*
X117700000Y-27100000D01*
%TO.N,Net-(LED_{Front_Right}1-K)*%
X115900000Y-36975000D02*
X118800000Y-36975000D01*
%TO.N,Net-(LED_{Rear_Left}1-K)*%
X70553086Y-27787500D02*
X67568623Y-30771963D01*
X71100000Y-27787500D02*
X70553086Y-27787500D01*
%TO.N,Net-(LED_{Rear_Right}1-K)*%
X68587500Y-39700000D02*
X68400000Y-39700000D01*
X71100000Y-37187500D02*
X68587500Y-39700000D01*
%TO.N,Net-(Speaker_{1}1-Pin_1)*%
X85762000Y-38354000D02*
X84812000Y-38354000D01*
X81400000Y-31621589D02*
X81400000Y-28525000D01*
X83088389Y-33309978D02*
X81400000Y-31621589D01*
X84812000Y-38354000D02*
X83088389Y-36630389D01*
X83088389Y-36630389D02*
X83088389Y-33309978D01*
X81400000Y-28525000D02*
X80975000Y-28100000D01*
%TO.N,Net-(21MTC1-Vcc)*%
X115000000Y-40300000D02*
X114324000Y-39624000D01*
X114324000Y-39624000D02*
X89662000Y-39624000D01*
%TO.N,Net-(Q1-D)*%
X112100000Y-29700000D02*
X115900000Y-29700000D01*
X74799500Y-35085153D02*
X75337500Y-34547153D01*
X75337500Y-34547153D02*
X75337500Y-34125000D01*
%TO.N,Net-(Q2-D)*%
X74809251Y-39675000D02*
X75900000Y-38584251D01*
X73240749Y-39675000D02*
X74809251Y-39675000D01*
X72578249Y-39012500D02*
X73240749Y-39675000D01*
X71100000Y-39012500D02*
X72578249Y-39012500D01*
X75900000Y-38584251D02*
X75900000Y-38100000D01*
%TD*%
M02*
