M48
; DRILL file {KiCad 7.0.1} date Wed Jun 14 03:00:12 2023
; FORMAT={-:-/ absolute / metric / decimal}
; #@! TF.CreationDate,2023-06-14T03:00:12+09:00
; #@! TF.GenerationSoftware,Kicad,Pcbnew,7.0.1
; #@! TF.FileFunction,Plated,1,2,PTH
FMAT,2
METRIC
; #@! TA.AperFunction,Plated,PTH,ViaDrill
T1C40.000
; #@! TA.AperFunction,Plated,PTH,ComponentDrill
T2C210.000
%
G90
G05
T1
X6756.862Y-3077.196
X6840.0Y-3970.0
X6970.0Y-3500.0
X7110.0Y-3570.0
X7292.55Y-3000.0
X7296.25Y-3798.75
X7479.95Y-3508.515
X7502.5Y-3080.0
X7587.5Y-3314.084
X7670.0Y-3606.642
X7987.5Y-2810.0
X7987.5Y-2909.95
X8055.408Y-3153.208
X8111.391Y-3236.009
X8340.0Y-3152.45
X8396.25Y-3235.069
X8792.579Y-4026.211
X9170.0Y-2710.0
X9180.0Y-3454.4
X9186.6Y-3073.4
X9190.0Y-3200.0
X9250.0Y-3670.0
X9260.0Y-3780.0
X9470.0Y-3580.0
X9785.0Y-2965.0
X9990.0Y-3210.0
X11210.0Y-2970.0
X11740.0Y-3200.0
X11770.0Y-2710.0
X11880.0Y-3697.5
T2
X8050.0Y-3600.0
X10600.0Y-3080.0
T0
M30
