M48
; DRILL file {KiCad 7.0.1} date Thu May 18 02:12:44 2023
; FORMAT={-:-/ absolute / inch / decimal}
; #@! TF.CreationDate,2023-05-18T02:12:44+09:00
; #@! TF.GenerationSoftware,Kicad,Pcbnew,7.0.1
; #@! TF.FileFunction,Plated,1,2,PTH
FMAT,2
INCH
; #@! TA.AperFunction,Plated,PTH,ViaDrill
T1C0.0157
; #@! TA.AperFunction,Plated,PTH,ComponentDrill
T2C0.0827
%
G90
G05
T1
X2.6602Y-1.2115
X2.6929Y-1.563
X2.7441Y-1.378
X2.7992Y-1.4055
X2.8711Y-1.1811
X2.8725Y-1.4956
X2.9449Y-1.3813
X2.9537Y-1.2126
X2.9869Y-1.42
X2.9872Y-1.3048
X3.122Y-1.2411
X3.1447Y-1.1063
X3.1447Y-1.1456
X3.1581Y-1.2696
X3.2835Y-1.2411
X3.3056Y-1.2736
X3.4616Y-1.5851
X3.6102Y-1.0669
X3.6142Y-1.36
X3.6168Y-1.21
X3.6181Y-1.2598
X3.6417Y-1.4449
X3.6457Y-1.4882
X3.7283Y-1.4094
X3.8524Y-1.1673
X3.9331Y-1.2638
X4.4134Y-1.1693
X4.622Y-1.2598
X4.6339Y-1.0669
X4.6772Y-1.4557
T2
X3.1693Y-1.3976
X4.1732Y-1.2323
T0
M30
