%TF.GenerationSoftware,KiCad,Pcbnew,7.0.1*%
%TF.CreationDate,2023-06-14T02:20:09+09:00*%
%TF.ProjectId,dcc-adapter-board-kato-1.310-21mtc,6463632d-6164-4617-9074-65722d626f61,rev?*%
%TF.SameCoordinates,Original*%
%TF.FileFunction,Legend,Top*%
%TF.FilePolarity,Positive*%
%FSLAX46Y46*%
G04 Gerber Fmt 4.6, Leading zero omitted, Abs format (unit mm)*
G04 Created by KiCad (PCBNEW 7.0.1) date 2023-06-14 02:20:09*
%MOMM*%
%LPD*%
G01*
G04 APERTURE LIST*
%ADD10C,0.150000*%
%ADD11C,0.800000*%
%ADD12C,0.120000*%
G04 APERTURE END LIST*
D10*
X68877619Y-34785714D02*
X68877619Y-35261904D01*
X68877619Y-35261904D02*
X67877619Y-35261904D01*
X68353809Y-34452380D02*
X68353809Y-34119047D01*
X68877619Y-33976190D02*
X68877619Y-34452380D01*
X68877619Y-34452380D02*
X67877619Y-34452380D01*
X67877619Y-34452380D02*
X67877619Y-33976190D01*
X68877619Y-33547618D02*
X67877619Y-33547618D01*
X67877619Y-33547618D02*
X67877619Y-33309523D01*
X67877619Y-33309523D02*
X67925238Y-33166666D01*
X67925238Y-33166666D02*
X68020476Y-33071428D01*
X68020476Y-33071428D02*
X68115714Y-33023809D01*
X68115714Y-33023809D02*
X68306190Y-32976190D01*
X68306190Y-32976190D02*
X68449047Y-32976190D01*
X68449047Y-32976190D02*
X68639523Y-33023809D01*
X68639523Y-33023809D02*
X68734761Y-33071428D01*
X68734761Y-33071428D02*
X68830000Y-33166666D01*
X68830000Y-33166666D02*
X68877619Y-33309523D01*
X68877619Y-33309523D02*
X68877619Y-33547618D01*
X69073333Y-32219047D02*
X68740000Y-32452380D01*
X69073333Y-32619047D02*
X68373333Y-32619047D01*
X68373333Y-32619047D02*
X68373333Y-32352380D01*
X68373333Y-32352380D02*
X68406666Y-32285714D01*
X68406666Y-32285714D02*
X68440000Y-32252380D01*
X68440000Y-32252380D02*
X68506666Y-32219047D01*
X68506666Y-32219047D02*
X68606666Y-32219047D01*
X68606666Y-32219047D02*
X68673333Y-32252380D01*
X68673333Y-32252380D02*
X68706666Y-32285714D01*
X68706666Y-32285714D02*
X68740000Y-32352380D01*
X68740000Y-32352380D02*
X68740000Y-32619047D01*
X69040000Y-31652380D02*
X69073333Y-31719047D01*
X69073333Y-31719047D02*
X69073333Y-31852380D01*
X69073333Y-31852380D02*
X69040000Y-31919047D01*
X69040000Y-31919047D02*
X68973333Y-31952380D01*
X68973333Y-31952380D02*
X68706666Y-31952380D01*
X68706666Y-31952380D02*
X68640000Y-31919047D01*
X68640000Y-31919047D02*
X68606666Y-31852380D01*
X68606666Y-31852380D02*
X68606666Y-31719047D01*
X68606666Y-31719047D02*
X68640000Y-31652380D01*
X68640000Y-31652380D02*
X68706666Y-31619047D01*
X68706666Y-31619047D02*
X68773333Y-31619047D01*
X68773333Y-31619047D02*
X68840000Y-31952380D01*
X69073333Y-31019047D02*
X68706666Y-31019047D01*
X68706666Y-31019047D02*
X68640000Y-31052380D01*
X68640000Y-31052380D02*
X68606666Y-31119047D01*
X68606666Y-31119047D02*
X68606666Y-31252380D01*
X68606666Y-31252380D02*
X68640000Y-31319047D01*
X69040000Y-31019047D02*
X69073333Y-31085714D01*
X69073333Y-31085714D02*
X69073333Y-31252380D01*
X69073333Y-31252380D02*
X69040000Y-31319047D01*
X69040000Y-31319047D02*
X68973333Y-31352380D01*
X68973333Y-31352380D02*
X68906666Y-31352380D01*
X68906666Y-31352380D02*
X68840000Y-31319047D01*
X68840000Y-31319047D02*
X68806666Y-31252380D01*
X68806666Y-31252380D02*
X68806666Y-31085714D01*
X68806666Y-31085714D02*
X68773333Y-31019047D01*
X69073333Y-30685714D02*
X68606666Y-30685714D01*
X68740000Y-30685714D02*
X68673333Y-30652381D01*
X68673333Y-30652381D02*
X68640000Y-30619047D01*
X68640000Y-30619047D02*
X68606666Y-30552381D01*
X68606666Y-30552381D02*
X68606666Y-30485714D01*
X76171428Y-39778809D02*
X75838095Y-39778809D01*
X75838095Y-40302619D02*
X75838095Y-39302619D01*
X75838095Y-39302619D02*
X76314285Y-39302619D01*
X76695238Y-39778809D02*
X77028571Y-39778809D01*
X77171428Y-40302619D02*
X76695238Y-40302619D01*
X76695238Y-40302619D02*
X76695238Y-39302619D01*
X76695238Y-39302619D02*
X77171428Y-39302619D01*
X77457143Y-39302619D02*
X78028571Y-39302619D01*
X77742857Y-40302619D02*
X77742857Y-39302619D01*
X78257143Y-39865000D02*
X78290476Y-39831666D01*
X78290476Y-39831666D02*
X78357143Y-39798333D01*
X78357143Y-39798333D02*
X78523810Y-39798333D01*
X78523810Y-39798333D02*
X78590476Y-39831666D01*
X78590476Y-39831666D02*
X78623810Y-39865000D01*
X78623810Y-39865000D02*
X78657143Y-39931666D01*
X78657143Y-39931666D02*
X78657143Y-39998333D01*
X78657143Y-39998333D02*
X78623810Y-40098333D01*
X78623810Y-40098333D02*
X78223810Y-40498333D01*
X78223810Y-40498333D02*
X78657143Y-40498333D01*
X119638095Y-29896666D02*
X120400000Y-29896666D01*
X120019047Y-30277619D02*
X120019047Y-29515714D01*
X83780000Y-31709523D02*
X83827619Y-31566666D01*
X83827619Y-31566666D02*
X83827619Y-31328571D01*
X83827619Y-31328571D02*
X83780000Y-31233333D01*
X83780000Y-31233333D02*
X83732380Y-31185714D01*
X83732380Y-31185714D02*
X83637142Y-31138095D01*
X83637142Y-31138095D02*
X83541904Y-31138095D01*
X83541904Y-31138095D02*
X83446666Y-31185714D01*
X83446666Y-31185714D02*
X83399047Y-31233333D01*
X83399047Y-31233333D02*
X83351428Y-31328571D01*
X83351428Y-31328571D02*
X83303809Y-31519047D01*
X83303809Y-31519047D02*
X83256190Y-31614285D01*
X83256190Y-31614285D02*
X83208571Y-31661904D01*
X83208571Y-31661904D02*
X83113333Y-31709523D01*
X83113333Y-31709523D02*
X83018095Y-31709523D01*
X83018095Y-31709523D02*
X82922857Y-31661904D01*
X82922857Y-31661904D02*
X82875238Y-31614285D01*
X82875238Y-31614285D02*
X82827619Y-31519047D01*
X82827619Y-31519047D02*
X82827619Y-31280952D01*
X82827619Y-31280952D02*
X82875238Y-31138095D01*
X83160952Y-30709523D02*
X84160952Y-30709523D01*
X83208571Y-30709523D02*
X83160952Y-30614285D01*
X83160952Y-30614285D02*
X83160952Y-30423809D01*
X83160952Y-30423809D02*
X83208571Y-30328571D01*
X83208571Y-30328571D02*
X83256190Y-30280952D01*
X83256190Y-30280952D02*
X83351428Y-30233333D01*
X83351428Y-30233333D02*
X83637142Y-30233333D01*
X83637142Y-30233333D02*
X83732380Y-30280952D01*
X83732380Y-30280952D02*
X83780000Y-30328571D01*
X83780000Y-30328571D02*
X83827619Y-30423809D01*
X83827619Y-30423809D02*
X83827619Y-30614285D01*
X83827619Y-30614285D02*
X83780000Y-30709523D01*
X83780000Y-29423809D02*
X83827619Y-29519047D01*
X83827619Y-29519047D02*
X83827619Y-29709523D01*
X83827619Y-29709523D02*
X83780000Y-29804761D01*
X83780000Y-29804761D02*
X83684761Y-29852380D01*
X83684761Y-29852380D02*
X83303809Y-29852380D01*
X83303809Y-29852380D02*
X83208571Y-29804761D01*
X83208571Y-29804761D02*
X83160952Y-29709523D01*
X83160952Y-29709523D02*
X83160952Y-29519047D01*
X83160952Y-29519047D02*
X83208571Y-29423809D01*
X83208571Y-29423809D02*
X83303809Y-29376190D01*
X83303809Y-29376190D02*
X83399047Y-29376190D01*
X83399047Y-29376190D02*
X83494285Y-29852380D01*
X83827619Y-28519047D02*
X83303809Y-28519047D01*
X83303809Y-28519047D02*
X83208571Y-28566666D01*
X83208571Y-28566666D02*
X83160952Y-28661904D01*
X83160952Y-28661904D02*
X83160952Y-28852380D01*
X83160952Y-28852380D02*
X83208571Y-28947618D01*
X83780000Y-28519047D02*
X83827619Y-28614285D01*
X83827619Y-28614285D02*
X83827619Y-28852380D01*
X83827619Y-28852380D02*
X83780000Y-28947618D01*
X83780000Y-28947618D02*
X83684761Y-28995237D01*
X83684761Y-28995237D02*
X83589523Y-28995237D01*
X83589523Y-28995237D02*
X83494285Y-28947618D01*
X83494285Y-28947618D02*
X83446666Y-28852380D01*
X83446666Y-28852380D02*
X83446666Y-28614285D01*
X83446666Y-28614285D02*
X83399047Y-28519047D01*
X83827619Y-28042856D02*
X82827619Y-28042856D01*
X83446666Y-27947618D02*
X83827619Y-27661904D01*
X83160952Y-27661904D02*
X83541904Y-28042856D01*
X83780000Y-26852380D02*
X83827619Y-26947618D01*
X83827619Y-26947618D02*
X83827619Y-27138094D01*
X83827619Y-27138094D02*
X83780000Y-27233332D01*
X83780000Y-27233332D02*
X83684761Y-27280951D01*
X83684761Y-27280951D02*
X83303809Y-27280951D01*
X83303809Y-27280951D02*
X83208571Y-27233332D01*
X83208571Y-27233332D02*
X83160952Y-27138094D01*
X83160952Y-27138094D02*
X83160952Y-26947618D01*
X83160952Y-26947618D02*
X83208571Y-26852380D01*
X83208571Y-26852380D02*
X83303809Y-26804761D01*
X83303809Y-26804761D02*
X83399047Y-26804761D01*
X83399047Y-26804761D02*
X83494285Y-27280951D01*
X83827619Y-26376189D02*
X83160952Y-26376189D01*
X83351428Y-26376189D02*
X83256190Y-26328570D01*
X83256190Y-26328570D02*
X83208571Y-26280951D01*
X83208571Y-26280951D02*
X83160952Y-26185713D01*
X83160952Y-26185713D02*
X83160952Y-26090475D01*
X66038095Y-36796666D02*
X66800000Y-36796666D01*
X66419047Y-37177619D02*
X66419047Y-36415714D01*
X70077619Y-34240476D02*
X69601428Y-34573809D01*
X70077619Y-34811904D02*
X69077619Y-34811904D01*
X69077619Y-34811904D02*
X69077619Y-34430952D01*
X69077619Y-34430952D02*
X69125238Y-34335714D01*
X69125238Y-34335714D02*
X69172857Y-34288095D01*
X69172857Y-34288095D02*
X69268095Y-34240476D01*
X69268095Y-34240476D02*
X69410952Y-34240476D01*
X69410952Y-34240476D02*
X69506190Y-34288095D01*
X69506190Y-34288095D02*
X69553809Y-34335714D01*
X69553809Y-34335714D02*
X69601428Y-34430952D01*
X69601428Y-34430952D02*
X69601428Y-34811904D01*
X70273333Y-33483333D02*
X69940000Y-33716666D01*
X70273333Y-33883333D02*
X69573333Y-33883333D01*
X69573333Y-33883333D02*
X69573333Y-33616666D01*
X69573333Y-33616666D02*
X69606666Y-33550000D01*
X69606666Y-33550000D02*
X69640000Y-33516666D01*
X69640000Y-33516666D02*
X69706666Y-33483333D01*
X69706666Y-33483333D02*
X69806666Y-33483333D01*
X69806666Y-33483333D02*
X69873333Y-33516666D01*
X69873333Y-33516666D02*
X69906666Y-33550000D01*
X69906666Y-33550000D02*
X69940000Y-33616666D01*
X69940000Y-33616666D02*
X69940000Y-33883333D01*
X70240000Y-32916666D02*
X70273333Y-32983333D01*
X70273333Y-32983333D02*
X70273333Y-33116666D01*
X70273333Y-33116666D02*
X70240000Y-33183333D01*
X70240000Y-33183333D02*
X70173333Y-33216666D01*
X70173333Y-33216666D02*
X69906666Y-33216666D01*
X69906666Y-33216666D02*
X69840000Y-33183333D01*
X69840000Y-33183333D02*
X69806666Y-33116666D01*
X69806666Y-33116666D02*
X69806666Y-32983333D01*
X69806666Y-32983333D02*
X69840000Y-32916666D01*
X69840000Y-32916666D02*
X69906666Y-32883333D01*
X69906666Y-32883333D02*
X69973333Y-32883333D01*
X69973333Y-32883333D02*
X70040000Y-33216666D01*
X70273333Y-32283333D02*
X69906666Y-32283333D01*
X69906666Y-32283333D02*
X69840000Y-32316666D01*
X69840000Y-32316666D02*
X69806666Y-32383333D01*
X69806666Y-32383333D02*
X69806666Y-32516666D01*
X69806666Y-32516666D02*
X69840000Y-32583333D01*
X70240000Y-32283333D02*
X70273333Y-32350000D01*
X70273333Y-32350000D02*
X70273333Y-32516666D01*
X70273333Y-32516666D02*
X70240000Y-32583333D01*
X70240000Y-32583333D02*
X70173333Y-32616666D01*
X70173333Y-32616666D02*
X70106666Y-32616666D01*
X70106666Y-32616666D02*
X70040000Y-32583333D01*
X70040000Y-32583333D02*
X70006666Y-32516666D01*
X70006666Y-32516666D02*
X70006666Y-32350000D01*
X70006666Y-32350000D02*
X69973333Y-32283333D01*
X70273333Y-31950000D02*
X69806666Y-31950000D01*
X69940000Y-31950000D02*
X69873333Y-31916667D01*
X69873333Y-31916667D02*
X69840000Y-31883333D01*
X69840000Y-31883333D02*
X69806666Y-31816667D01*
X69806666Y-31816667D02*
X69806666Y-31750000D01*
X114877619Y-29190476D02*
X114401428Y-29523809D01*
X114877619Y-29761904D02*
X113877619Y-29761904D01*
X113877619Y-29761904D02*
X113877619Y-29380952D01*
X113877619Y-29380952D02*
X113925238Y-29285714D01*
X113925238Y-29285714D02*
X113972857Y-29238095D01*
X113972857Y-29238095D02*
X114068095Y-29190476D01*
X114068095Y-29190476D02*
X114210952Y-29190476D01*
X114210952Y-29190476D02*
X114306190Y-29238095D01*
X114306190Y-29238095D02*
X114353809Y-29285714D01*
X114353809Y-29285714D02*
X114401428Y-29380952D01*
X114401428Y-29380952D02*
X114401428Y-29761904D01*
X114706666Y-28600000D02*
X114706666Y-28833333D01*
X115073333Y-28833333D02*
X114373333Y-28833333D01*
X114373333Y-28833333D02*
X114373333Y-28500000D01*
X115073333Y-27900000D02*
X115073333Y-28233333D01*
X115073333Y-28233333D02*
X114373333Y-28233333D01*
X70077619Y-38490476D02*
X69601428Y-38823809D01*
X70077619Y-39061904D02*
X69077619Y-39061904D01*
X69077619Y-39061904D02*
X69077619Y-38680952D01*
X69077619Y-38680952D02*
X69125238Y-38585714D01*
X69125238Y-38585714D02*
X69172857Y-38538095D01*
X69172857Y-38538095D02*
X69268095Y-38490476D01*
X69268095Y-38490476D02*
X69410952Y-38490476D01*
X69410952Y-38490476D02*
X69506190Y-38538095D01*
X69506190Y-38538095D02*
X69553809Y-38585714D01*
X69553809Y-38585714D02*
X69601428Y-38680952D01*
X69601428Y-38680952D02*
X69601428Y-39061904D01*
X70273333Y-37733333D02*
X69940000Y-37966666D01*
X70273333Y-38133333D02*
X69573333Y-38133333D01*
X69573333Y-38133333D02*
X69573333Y-37866666D01*
X69573333Y-37866666D02*
X69606666Y-37800000D01*
X69606666Y-37800000D02*
X69640000Y-37766666D01*
X69640000Y-37766666D02*
X69706666Y-37733333D01*
X69706666Y-37733333D02*
X69806666Y-37733333D01*
X69806666Y-37733333D02*
X69873333Y-37766666D01*
X69873333Y-37766666D02*
X69906666Y-37800000D01*
X69906666Y-37800000D02*
X69940000Y-37866666D01*
X69940000Y-37866666D02*
X69940000Y-38133333D01*
X70273333Y-37033333D02*
X69940000Y-37266666D01*
X70273333Y-37433333D02*
X69573333Y-37433333D01*
X69573333Y-37433333D02*
X69573333Y-37166666D01*
X69573333Y-37166666D02*
X69606666Y-37100000D01*
X69606666Y-37100000D02*
X69640000Y-37066666D01*
X69640000Y-37066666D02*
X69706666Y-37033333D01*
X69706666Y-37033333D02*
X69806666Y-37033333D01*
X69806666Y-37033333D02*
X69873333Y-37066666D01*
X69873333Y-37066666D02*
X69906666Y-37100000D01*
X69906666Y-37100000D02*
X69940000Y-37166666D01*
X69940000Y-37166666D02*
X69940000Y-37433333D01*
X116395238Y-39752619D02*
X116728571Y-40752619D01*
X116728571Y-40752619D02*
X117061904Y-39752619D01*
X117723809Y-40881666D02*
X117690476Y-40915000D01*
X117690476Y-40915000D02*
X117590476Y-40948333D01*
X117590476Y-40948333D02*
X117523809Y-40948333D01*
X117523809Y-40948333D02*
X117423809Y-40915000D01*
X117423809Y-40915000D02*
X117357143Y-40848333D01*
X117357143Y-40848333D02*
X117323809Y-40781666D01*
X117323809Y-40781666D02*
X117290476Y-40648333D01*
X117290476Y-40648333D02*
X117290476Y-40548333D01*
X117290476Y-40548333D02*
X117323809Y-40415000D01*
X117323809Y-40415000D02*
X117357143Y-40348333D01*
X117357143Y-40348333D02*
X117423809Y-40281666D01*
X117423809Y-40281666D02*
X117523809Y-40248333D01*
X117523809Y-40248333D02*
X117590476Y-40248333D01*
X117590476Y-40248333D02*
X117690476Y-40281666D01*
X117690476Y-40281666D02*
X117723809Y-40315000D01*
X118423809Y-40881666D02*
X118390476Y-40915000D01*
X118390476Y-40915000D02*
X118290476Y-40948333D01*
X118290476Y-40948333D02*
X118223809Y-40948333D01*
X118223809Y-40948333D02*
X118123809Y-40915000D01*
X118123809Y-40915000D02*
X118057143Y-40848333D01*
X118057143Y-40848333D02*
X118023809Y-40781666D01*
X118023809Y-40781666D02*
X117990476Y-40648333D01*
X117990476Y-40648333D02*
X117990476Y-40548333D01*
X117990476Y-40548333D02*
X118023809Y-40415000D01*
X118023809Y-40415000D02*
X118057143Y-40348333D01*
X118057143Y-40348333D02*
X118123809Y-40281666D01*
X118123809Y-40281666D02*
X118223809Y-40248333D01*
X118223809Y-40248333D02*
X118290476Y-40248333D01*
X118290476Y-40248333D02*
X118390476Y-40281666D01*
X118390476Y-40281666D02*
X118423809Y-40315000D01*
X78809523Y-39127619D02*
X78476190Y-38651428D01*
X78238095Y-39127619D02*
X78238095Y-38127619D01*
X78238095Y-38127619D02*
X78619047Y-38127619D01*
X78619047Y-38127619D02*
X78714285Y-38175238D01*
X78714285Y-38175238D02*
X78761904Y-38222857D01*
X78761904Y-38222857D02*
X78809523Y-38318095D01*
X78809523Y-38318095D02*
X78809523Y-38460952D01*
X78809523Y-38460952D02*
X78761904Y-38556190D01*
X78761904Y-38556190D02*
X78714285Y-38603809D01*
X78714285Y-38603809D02*
X78619047Y-38651428D01*
X78619047Y-38651428D02*
X78238095Y-38651428D01*
X79666666Y-39127619D02*
X79666666Y-38603809D01*
X79666666Y-38603809D02*
X79619047Y-38508571D01*
X79619047Y-38508571D02*
X79523809Y-38460952D01*
X79523809Y-38460952D02*
X79333333Y-38460952D01*
X79333333Y-38460952D02*
X79238095Y-38508571D01*
X79666666Y-39080000D02*
X79571428Y-39127619D01*
X79571428Y-39127619D02*
X79333333Y-39127619D01*
X79333333Y-39127619D02*
X79238095Y-39080000D01*
X79238095Y-39080000D02*
X79190476Y-38984761D01*
X79190476Y-38984761D02*
X79190476Y-38889523D01*
X79190476Y-38889523D02*
X79238095Y-38794285D01*
X79238095Y-38794285D02*
X79333333Y-38746666D01*
X79333333Y-38746666D02*
X79571428Y-38746666D01*
X79571428Y-38746666D02*
X79666666Y-38699047D01*
X80142857Y-39127619D02*
X80142857Y-38460952D01*
X80142857Y-38127619D02*
X80095238Y-38175238D01*
X80095238Y-38175238D02*
X80142857Y-38222857D01*
X80142857Y-38222857D02*
X80190476Y-38175238D01*
X80190476Y-38175238D02*
X80142857Y-38127619D01*
X80142857Y-38127619D02*
X80142857Y-38222857D01*
X80761904Y-39127619D02*
X80666666Y-39080000D01*
X80666666Y-39080000D02*
X80619047Y-38984761D01*
X80619047Y-38984761D02*
X80619047Y-38127619D01*
X81471428Y-39323333D02*
X81238095Y-38990000D01*
X81071428Y-39323333D02*
X81071428Y-38623333D01*
X81071428Y-38623333D02*
X81338095Y-38623333D01*
X81338095Y-38623333D02*
X81404762Y-38656666D01*
X81404762Y-38656666D02*
X81438095Y-38690000D01*
X81438095Y-38690000D02*
X81471428Y-38756666D01*
X81471428Y-38756666D02*
X81471428Y-38856666D01*
X81471428Y-38856666D02*
X81438095Y-38923333D01*
X81438095Y-38923333D02*
X81404762Y-38956666D01*
X81404762Y-38956666D02*
X81338095Y-38990000D01*
X81338095Y-38990000D02*
X81071428Y-38990000D01*
X81771428Y-39323333D02*
X81771428Y-38856666D01*
X81771428Y-38623333D02*
X81738095Y-38656666D01*
X81738095Y-38656666D02*
X81771428Y-38690000D01*
X81771428Y-38690000D02*
X81804762Y-38656666D01*
X81804762Y-38656666D02*
X81771428Y-38623333D01*
X81771428Y-38623333D02*
X81771428Y-38690000D01*
X82404761Y-38856666D02*
X82404761Y-39423333D01*
X82404761Y-39423333D02*
X82371428Y-39490000D01*
X82371428Y-39490000D02*
X82338095Y-39523333D01*
X82338095Y-39523333D02*
X82271428Y-39556666D01*
X82271428Y-39556666D02*
X82171428Y-39556666D01*
X82171428Y-39556666D02*
X82104761Y-39523333D01*
X82404761Y-39290000D02*
X82338095Y-39323333D01*
X82338095Y-39323333D02*
X82204761Y-39323333D01*
X82204761Y-39323333D02*
X82138095Y-39290000D01*
X82138095Y-39290000D02*
X82104761Y-39256666D01*
X82104761Y-39256666D02*
X82071428Y-39190000D01*
X82071428Y-39190000D02*
X82071428Y-38990000D01*
X82071428Y-38990000D02*
X82104761Y-38923333D01*
X82104761Y-38923333D02*
X82138095Y-38890000D01*
X82138095Y-38890000D02*
X82204761Y-38856666D01*
X82204761Y-38856666D02*
X82338095Y-38856666D01*
X82338095Y-38856666D02*
X82404761Y-38890000D01*
X82738094Y-39323333D02*
X82738094Y-38623333D01*
X83038094Y-39323333D02*
X83038094Y-38956666D01*
X83038094Y-38956666D02*
X83004761Y-38890000D01*
X83004761Y-38890000D02*
X82938094Y-38856666D01*
X82938094Y-38856666D02*
X82838094Y-38856666D01*
X82838094Y-38856666D02*
X82771428Y-38890000D01*
X82771428Y-38890000D02*
X82738094Y-38923333D01*
X83271427Y-38856666D02*
X83538094Y-38856666D01*
X83371427Y-38623333D02*
X83371427Y-39223333D01*
X83371427Y-39223333D02*
X83404761Y-39290000D01*
X83404761Y-39290000D02*
X83471427Y-39323333D01*
X83471427Y-39323333D02*
X83538094Y-39323333D01*
D11*
X77276190Y-32176666D02*
X80323810Y-32176666D01*
X79561905Y-32938571D02*
X80323810Y-32176666D01*
X80323810Y-32176666D02*
X79561905Y-31414761D01*
D10*
X80202619Y-30136904D02*
X79202619Y-30136904D01*
X79202619Y-30136904D02*
X79916904Y-29803571D01*
X79916904Y-29803571D02*
X79202619Y-29470238D01*
X79202619Y-29470238D02*
X80202619Y-29470238D01*
X80202619Y-28851190D02*
X80155000Y-28946428D01*
X80155000Y-28946428D02*
X80107380Y-28994047D01*
X80107380Y-28994047D02*
X80012142Y-29041666D01*
X80012142Y-29041666D02*
X79726428Y-29041666D01*
X79726428Y-29041666D02*
X79631190Y-28994047D01*
X79631190Y-28994047D02*
X79583571Y-28946428D01*
X79583571Y-28946428D02*
X79535952Y-28851190D01*
X79535952Y-28851190D02*
X79535952Y-28708333D01*
X79535952Y-28708333D02*
X79583571Y-28613095D01*
X79583571Y-28613095D02*
X79631190Y-28565476D01*
X79631190Y-28565476D02*
X79726428Y-28517857D01*
X79726428Y-28517857D02*
X80012142Y-28517857D01*
X80012142Y-28517857D02*
X80107380Y-28565476D01*
X80107380Y-28565476D02*
X80155000Y-28613095D01*
X80155000Y-28613095D02*
X80202619Y-28708333D01*
X80202619Y-28708333D02*
X80202619Y-28851190D01*
X79535952Y-28232142D02*
X79535952Y-27851190D01*
X79202619Y-28089285D02*
X80059761Y-28089285D01*
X80059761Y-28089285D02*
X80155000Y-28041666D01*
X80155000Y-28041666D02*
X80202619Y-27946428D01*
X80202619Y-27946428D02*
X80202619Y-27851190D01*
X80202619Y-27374999D02*
X80155000Y-27470237D01*
X80155000Y-27470237D02*
X80107380Y-27517856D01*
X80107380Y-27517856D02*
X80012142Y-27565475D01*
X80012142Y-27565475D02*
X79726428Y-27565475D01*
X79726428Y-27565475D02*
X79631190Y-27517856D01*
X79631190Y-27517856D02*
X79583571Y-27470237D01*
X79583571Y-27470237D02*
X79535952Y-27374999D01*
X79535952Y-27374999D02*
X79535952Y-27232142D01*
X79535952Y-27232142D02*
X79583571Y-27136904D01*
X79583571Y-27136904D02*
X79631190Y-27089285D01*
X79631190Y-27089285D02*
X79726428Y-27041666D01*
X79726428Y-27041666D02*
X80012142Y-27041666D01*
X80012142Y-27041666D02*
X80107380Y-27089285D01*
X80107380Y-27089285D02*
X80155000Y-27136904D01*
X80155000Y-27136904D02*
X80202619Y-27232142D01*
X80202619Y-27232142D02*
X80202619Y-27374999D01*
X80202619Y-26613094D02*
X79535952Y-26613094D01*
X79726428Y-26613094D02*
X79631190Y-26565475D01*
X79631190Y-26565475D02*
X79583571Y-26517856D01*
X79583571Y-26517856D02*
X79535952Y-26422618D01*
X79535952Y-26422618D02*
X79535952Y-26327380D01*
X114877619Y-38290476D02*
X114401428Y-38623809D01*
X114877619Y-38861904D02*
X113877619Y-38861904D01*
X113877619Y-38861904D02*
X113877619Y-38480952D01*
X113877619Y-38480952D02*
X113925238Y-38385714D01*
X113925238Y-38385714D02*
X113972857Y-38338095D01*
X113972857Y-38338095D02*
X114068095Y-38290476D01*
X114068095Y-38290476D02*
X114210952Y-38290476D01*
X114210952Y-38290476D02*
X114306190Y-38338095D01*
X114306190Y-38338095D02*
X114353809Y-38385714D01*
X114353809Y-38385714D02*
X114401428Y-38480952D01*
X114401428Y-38480952D02*
X114401428Y-38861904D01*
X114706666Y-37700000D02*
X114706666Y-37933333D01*
X115073333Y-37933333D02*
X114373333Y-37933333D01*
X114373333Y-37933333D02*
X114373333Y-37600000D01*
X115073333Y-36933333D02*
X114740000Y-37166666D01*
X115073333Y-37333333D02*
X114373333Y-37333333D01*
X114373333Y-37333333D02*
X114373333Y-37066666D01*
X114373333Y-37066666D02*
X114406666Y-37000000D01*
X114406666Y-37000000D02*
X114440000Y-36966666D01*
X114440000Y-36966666D02*
X114506666Y-36933333D01*
X114506666Y-36933333D02*
X114606666Y-36933333D01*
X114606666Y-36933333D02*
X114673333Y-36966666D01*
X114673333Y-36966666D02*
X114706666Y-37000000D01*
X114706666Y-37000000D02*
X114740000Y-37066666D01*
X114740000Y-37066666D02*
X114740000Y-37333333D01*
X73300238Y-29088095D02*
X73252619Y-29183333D01*
X73252619Y-29183333D02*
X73252619Y-29326190D01*
X73252619Y-29326190D02*
X73300238Y-29469047D01*
X73300238Y-29469047D02*
X73395476Y-29564285D01*
X73395476Y-29564285D02*
X73490714Y-29611904D01*
X73490714Y-29611904D02*
X73681190Y-29659523D01*
X73681190Y-29659523D02*
X73824047Y-29659523D01*
X73824047Y-29659523D02*
X74014523Y-29611904D01*
X74014523Y-29611904D02*
X74109761Y-29564285D01*
X74109761Y-29564285D02*
X74205000Y-29469047D01*
X74205000Y-29469047D02*
X74252619Y-29326190D01*
X74252619Y-29326190D02*
X74252619Y-29230952D01*
X74252619Y-29230952D02*
X74205000Y-29088095D01*
X74205000Y-29088095D02*
X74157380Y-29040476D01*
X74157380Y-29040476D02*
X73824047Y-29040476D01*
X73824047Y-29040476D02*
X73824047Y-29230952D01*
X74252619Y-28611904D02*
X73252619Y-28611904D01*
X73252619Y-28611904D02*
X74252619Y-28040476D01*
X74252619Y-28040476D02*
X73252619Y-28040476D01*
X74252619Y-27564285D02*
X73252619Y-27564285D01*
X73252619Y-27564285D02*
X73252619Y-27326190D01*
X73252619Y-27326190D02*
X73300238Y-27183333D01*
X73300238Y-27183333D02*
X73395476Y-27088095D01*
X73395476Y-27088095D02*
X73490714Y-27040476D01*
X73490714Y-27040476D02*
X73681190Y-26992857D01*
X73681190Y-26992857D02*
X73824047Y-26992857D01*
X73824047Y-26992857D02*
X74014523Y-27040476D01*
X74014523Y-27040476D02*
X74109761Y-27088095D01*
X74109761Y-27088095D02*
X74205000Y-27183333D01*
X74205000Y-27183333D02*
X74252619Y-27326190D01*
X74252619Y-27326190D02*
X74252619Y-27564285D01*
X76246666Y-30111904D02*
X76246666Y-29350000D01*
X76627619Y-29730952D02*
X75865714Y-29730952D01*
X76627619Y-28350000D02*
X76627619Y-28921428D01*
X76627619Y-28635714D02*
X75627619Y-28635714D01*
X75627619Y-28635714D02*
X75770476Y-28730952D01*
X75770476Y-28730952D02*
X75865714Y-28826190D01*
X75865714Y-28826190D02*
X75913333Y-28921428D01*
X75722857Y-27969047D02*
X75675238Y-27921428D01*
X75675238Y-27921428D02*
X75627619Y-27826190D01*
X75627619Y-27826190D02*
X75627619Y-27588095D01*
X75627619Y-27588095D02*
X75675238Y-27492857D01*
X75675238Y-27492857D02*
X75722857Y-27445238D01*
X75722857Y-27445238D02*
X75818095Y-27397619D01*
X75818095Y-27397619D02*
X75913333Y-27397619D01*
X75913333Y-27397619D02*
X76056190Y-27445238D01*
X76056190Y-27445238D02*
X76627619Y-28016666D01*
X76627619Y-28016666D02*
X76627619Y-27397619D01*
X75627619Y-27111904D02*
X76627619Y-26778571D01*
X76627619Y-26778571D02*
X75627619Y-26445238D01*
X70077619Y-28990476D02*
X69601428Y-29323809D01*
X70077619Y-29561904D02*
X69077619Y-29561904D01*
X69077619Y-29561904D02*
X69077619Y-29180952D01*
X69077619Y-29180952D02*
X69125238Y-29085714D01*
X69125238Y-29085714D02*
X69172857Y-29038095D01*
X69172857Y-29038095D02*
X69268095Y-28990476D01*
X69268095Y-28990476D02*
X69410952Y-28990476D01*
X69410952Y-28990476D02*
X69506190Y-29038095D01*
X69506190Y-29038095D02*
X69553809Y-29085714D01*
X69553809Y-29085714D02*
X69601428Y-29180952D01*
X69601428Y-29180952D02*
X69601428Y-29561904D01*
X70273333Y-28233333D02*
X69940000Y-28466666D01*
X70273333Y-28633333D02*
X69573333Y-28633333D01*
X69573333Y-28633333D02*
X69573333Y-28366666D01*
X69573333Y-28366666D02*
X69606666Y-28300000D01*
X69606666Y-28300000D02*
X69640000Y-28266666D01*
X69640000Y-28266666D02*
X69706666Y-28233333D01*
X69706666Y-28233333D02*
X69806666Y-28233333D01*
X69806666Y-28233333D02*
X69873333Y-28266666D01*
X69873333Y-28266666D02*
X69906666Y-28300000D01*
X69906666Y-28300000D02*
X69940000Y-28366666D01*
X69940000Y-28366666D02*
X69940000Y-28633333D01*
X70273333Y-27600000D02*
X70273333Y-27933333D01*
X70273333Y-27933333D02*
X69573333Y-27933333D01*
X114877619Y-34490476D02*
X114401428Y-34823809D01*
X114877619Y-35061904D02*
X113877619Y-35061904D01*
X113877619Y-35061904D02*
X113877619Y-34680952D01*
X113877619Y-34680952D02*
X113925238Y-34585714D01*
X113925238Y-34585714D02*
X113972857Y-34538095D01*
X113972857Y-34538095D02*
X114068095Y-34490476D01*
X114068095Y-34490476D02*
X114210952Y-34490476D01*
X114210952Y-34490476D02*
X114306190Y-34538095D01*
X114306190Y-34538095D02*
X114353809Y-34585714D01*
X114353809Y-34585714D02*
X114401428Y-34680952D01*
X114401428Y-34680952D02*
X114401428Y-35061904D01*
X114706666Y-33900000D02*
X114706666Y-34133333D01*
X115073333Y-34133333D02*
X114373333Y-34133333D01*
X114373333Y-34133333D02*
X114373333Y-33800000D01*
X115073333Y-33533333D02*
X114606666Y-33533333D01*
X114740000Y-33533333D02*
X114673333Y-33500000D01*
X114673333Y-33500000D02*
X114640000Y-33466666D01*
X114640000Y-33466666D02*
X114606666Y-33400000D01*
X114606666Y-33400000D02*
X114606666Y-33333333D01*
X115073333Y-33000000D02*
X115040000Y-33066667D01*
X115040000Y-33066667D02*
X115006666Y-33100000D01*
X115006666Y-33100000D02*
X114940000Y-33133333D01*
X114940000Y-33133333D02*
X114740000Y-33133333D01*
X114740000Y-33133333D02*
X114673333Y-33100000D01*
X114673333Y-33100000D02*
X114640000Y-33066667D01*
X114640000Y-33066667D02*
X114606666Y-33000000D01*
X114606666Y-33000000D02*
X114606666Y-32900000D01*
X114606666Y-32900000D02*
X114640000Y-32833333D01*
X114640000Y-32833333D02*
X114673333Y-32800000D01*
X114673333Y-32800000D02*
X114740000Y-32766667D01*
X114740000Y-32766667D02*
X114940000Y-32766667D01*
X114940000Y-32766667D02*
X115006666Y-32800000D01*
X115006666Y-32800000D02*
X115040000Y-32833333D01*
X115040000Y-32833333D02*
X115073333Y-32900000D01*
X115073333Y-32900000D02*
X115073333Y-33000000D01*
X114606666Y-32466667D02*
X115073333Y-32466667D01*
X114673333Y-32466667D02*
X114640000Y-32433334D01*
X114640000Y-32433334D02*
X114606666Y-32366667D01*
X114606666Y-32366667D02*
X114606666Y-32266667D01*
X114606666Y-32266667D02*
X114640000Y-32200000D01*
X114640000Y-32200000D02*
X114706666Y-32166667D01*
X114706666Y-32166667D02*
X115073333Y-32166667D01*
X114606666Y-31933334D02*
X114606666Y-31666667D01*
X114373333Y-31833334D02*
X114973333Y-31833334D01*
X114973333Y-31833334D02*
X115040000Y-31800001D01*
X115040000Y-31800001D02*
X115073333Y-31733334D01*
X115073333Y-31733334D02*
X115073333Y-31666667D01*
X104309523Y-28677619D02*
X103976190Y-28201428D01*
X103738095Y-28677619D02*
X103738095Y-27677619D01*
X103738095Y-27677619D02*
X104119047Y-27677619D01*
X104119047Y-27677619D02*
X104214285Y-27725238D01*
X104214285Y-27725238D02*
X104261904Y-27772857D01*
X104261904Y-27772857D02*
X104309523Y-27868095D01*
X104309523Y-27868095D02*
X104309523Y-28010952D01*
X104309523Y-28010952D02*
X104261904Y-28106190D01*
X104261904Y-28106190D02*
X104214285Y-28153809D01*
X104214285Y-28153809D02*
X104119047Y-28201428D01*
X104119047Y-28201428D02*
X103738095Y-28201428D01*
X105166666Y-28677619D02*
X105166666Y-28153809D01*
X105166666Y-28153809D02*
X105119047Y-28058571D01*
X105119047Y-28058571D02*
X105023809Y-28010952D01*
X105023809Y-28010952D02*
X104833333Y-28010952D01*
X104833333Y-28010952D02*
X104738095Y-28058571D01*
X105166666Y-28630000D02*
X105071428Y-28677619D01*
X105071428Y-28677619D02*
X104833333Y-28677619D01*
X104833333Y-28677619D02*
X104738095Y-28630000D01*
X104738095Y-28630000D02*
X104690476Y-28534761D01*
X104690476Y-28534761D02*
X104690476Y-28439523D01*
X104690476Y-28439523D02*
X104738095Y-28344285D01*
X104738095Y-28344285D02*
X104833333Y-28296666D01*
X104833333Y-28296666D02*
X105071428Y-28296666D01*
X105071428Y-28296666D02*
X105166666Y-28249047D01*
X105642857Y-28677619D02*
X105642857Y-28010952D01*
X105642857Y-27677619D02*
X105595238Y-27725238D01*
X105595238Y-27725238D02*
X105642857Y-27772857D01*
X105642857Y-27772857D02*
X105690476Y-27725238D01*
X105690476Y-27725238D02*
X105642857Y-27677619D01*
X105642857Y-27677619D02*
X105642857Y-27772857D01*
X106261904Y-28677619D02*
X106166666Y-28630000D01*
X106166666Y-28630000D02*
X106119047Y-28534761D01*
X106119047Y-28534761D02*
X106119047Y-27677619D01*
X106904762Y-28873333D02*
X106571428Y-28873333D01*
X106571428Y-28873333D02*
X106571428Y-28173333D01*
X107404762Y-28840000D02*
X107338095Y-28873333D01*
X107338095Y-28873333D02*
X107204762Y-28873333D01*
X107204762Y-28873333D02*
X107138095Y-28840000D01*
X107138095Y-28840000D02*
X107104762Y-28773333D01*
X107104762Y-28773333D02*
X107104762Y-28506666D01*
X107104762Y-28506666D02*
X107138095Y-28440000D01*
X107138095Y-28440000D02*
X107204762Y-28406666D01*
X107204762Y-28406666D02*
X107338095Y-28406666D01*
X107338095Y-28406666D02*
X107404762Y-28440000D01*
X107404762Y-28440000D02*
X107438095Y-28506666D01*
X107438095Y-28506666D02*
X107438095Y-28573333D01*
X107438095Y-28573333D02*
X107104762Y-28640000D01*
X107638095Y-28406666D02*
X107904762Y-28406666D01*
X107738095Y-28873333D02*
X107738095Y-28273333D01*
X107738095Y-28273333D02*
X107771429Y-28206666D01*
X107771429Y-28206666D02*
X107838095Y-28173333D01*
X107838095Y-28173333D02*
X107904762Y-28173333D01*
X108038095Y-28406666D02*
X108304762Y-28406666D01*
X108138095Y-28173333D02*
X108138095Y-28773333D01*
X108138095Y-28773333D02*
X108171429Y-28840000D01*
X108171429Y-28840000D02*
X108238095Y-28873333D01*
X108238095Y-28873333D02*
X108304762Y-28873333D01*
X118377619Y-35585714D02*
X118377619Y-36061904D01*
X118377619Y-36061904D02*
X117377619Y-36061904D01*
X117853809Y-35252380D02*
X117853809Y-34919047D01*
X118377619Y-34776190D02*
X118377619Y-35252380D01*
X118377619Y-35252380D02*
X117377619Y-35252380D01*
X117377619Y-35252380D02*
X117377619Y-34776190D01*
X118377619Y-34347618D02*
X117377619Y-34347618D01*
X117377619Y-34347618D02*
X117377619Y-34109523D01*
X117377619Y-34109523D02*
X117425238Y-33966666D01*
X117425238Y-33966666D02*
X117520476Y-33871428D01*
X117520476Y-33871428D02*
X117615714Y-33823809D01*
X117615714Y-33823809D02*
X117806190Y-33776190D01*
X117806190Y-33776190D02*
X117949047Y-33776190D01*
X117949047Y-33776190D02*
X118139523Y-33823809D01*
X118139523Y-33823809D02*
X118234761Y-33871428D01*
X118234761Y-33871428D02*
X118330000Y-33966666D01*
X118330000Y-33966666D02*
X118377619Y-34109523D01*
X118377619Y-34109523D02*
X118377619Y-34347618D01*
X118206666Y-33185714D02*
X118206666Y-33419047D01*
X118573333Y-33419047D02*
X117873333Y-33419047D01*
X117873333Y-33419047D02*
X117873333Y-33085714D01*
X118573333Y-32819047D02*
X118106666Y-32819047D01*
X118240000Y-32819047D02*
X118173333Y-32785714D01*
X118173333Y-32785714D02*
X118140000Y-32752380D01*
X118140000Y-32752380D02*
X118106666Y-32685714D01*
X118106666Y-32685714D02*
X118106666Y-32619047D01*
X118573333Y-32285714D02*
X118540000Y-32352381D01*
X118540000Y-32352381D02*
X118506666Y-32385714D01*
X118506666Y-32385714D02*
X118440000Y-32419047D01*
X118440000Y-32419047D02*
X118240000Y-32419047D01*
X118240000Y-32419047D02*
X118173333Y-32385714D01*
X118173333Y-32385714D02*
X118140000Y-32352381D01*
X118140000Y-32352381D02*
X118106666Y-32285714D01*
X118106666Y-32285714D02*
X118106666Y-32185714D01*
X118106666Y-32185714D02*
X118140000Y-32119047D01*
X118140000Y-32119047D02*
X118173333Y-32085714D01*
X118173333Y-32085714D02*
X118240000Y-32052381D01*
X118240000Y-32052381D02*
X118440000Y-32052381D01*
X118440000Y-32052381D02*
X118506666Y-32085714D01*
X118506666Y-32085714D02*
X118540000Y-32119047D01*
X118540000Y-32119047D02*
X118573333Y-32185714D01*
X118573333Y-32185714D02*
X118573333Y-32285714D01*
X118106666Y-31752381D02*
X118573333Y-31752381D01*
X118173333Y-31752381D02*
X118140000Y-31719048D01*
X118140000Y-31719048D02*
X118106666Y-31652381D01*
X118106666Y-31652381D02*
X118106666Y-31552381D01*
X118106666Y-31552381D02*
X118140000Y-31485714D01*
X118140000Y-31485714D02*
X118206666Y-31452381D01*
X118206666Y-31452381D02*
X118573333Y-31452381D01*
X118106666Y-31219048D02*
X118106666Y-30952381D01*
X117873333Y-31119048D02*
X118473333Y-31119048D01*
X118473333Y-31119048D02*
X118540000Y-31085715D01*
X118540000Y-31085715D02*
X118573333Y-31019048D01*
X118573333Y-31019048D02*
X118573333Y-30952381D01*
X76928809Y-35478571D02*
X76928809Y-35811904D01*
X77452619Y-35811904D02*
X76452619Y-35811904D01*
X76452619Y-35811904D02*
X76452619Y-35335714D01*
X76928809Y-34954761D02*
X76928809Y-34621428D01*
X77452619Y-34478571D02*
X77452619Y-34954761D01*
X77452619Y-34954761D02*
X76452619Y-34954761D01*
X76452619Y-34954761D02*
X76452619Y-34478571D01*
X76452619Y-34192856D02*
X76452619Y-33621428D01*
X77452619Y-33907142D02*
X76452619Y-33907142D01*
X77648333Y-32992856D02*
X77648333Y-33392856D01*
X77648333Y-33192856D02*
X76948333Y-33192856D01*
X76948333Y-33192856D02*
X77048333Y-33259523D01*
X77048333Y-33259523D02*
X77115000Y-33326190D01*
X77115000Y-33326190D02*
X77148333Y-33392856D01*
%TO.C,R1*%
X72658333Y-32362619D02*
X72325000Y-31886428D01*
X72086905Y-32362619D02*
X72086905Y-31362619D01*
X72086905Y-31362619D02*
X72467857Y-31362619D01*
X72467857Y-31362619D02*
X72563095Y-31410238D01*
X72563095Y-31410238D02*
X72610714Y-31457857D01*
X72610714Y-31457857D02*
X72658333Y-31553095D01*
X72658333Y-31553095D02*
X72658333Y-31695952D01*
X72658333Y-31695952D02*
X72610714Y-31791190D01*
X72610714Y-31791190D02*
X72563095Y-31838809D01*
X72563095Y-31838809D02*
X72467857Y-31886428D01*
X72467857Y-31886428D02*
X72086905Y-31886428D01*
X73610714Y-32362619D02*
X73039286Y-32362619D01*
X73325000Y-32362619D02*
X73325000Y-31362619D01*
X73325000Y-31362619D02*
X73229762Y-31505476D01*
X73229762Y-31505476D02*
X73134524Y-31600714D01*
X73134524Y-31600714D02*
X73039286Y-31648333D01*
%TO.C,R2*%
X77108333Y-31062619D02*
X76775000Y-30586428D01*
X76536905Y-31062619D02*
X76536905Y-30062619D01*
X76536905Y-30062619D02*
X76917857Y-30062619D01*
X76917857Y-30062619D02*
X77013095Y-30110238D01*
X77013095Y-30110238D02*
X77060714Y-30157857D01*
X77060714Y-30157857D02*
X77108333Y-30253095D01*
X77108333Y-30253095D02*
X77108333Y-30395952D01*
X77108333Y-30395952D02*
X77060714Y-30491190D01*
X77060714Y-30491190D02*
X77013095Y-30538809D01*
X77013095Y-30538809D02*
X76917857Y-30586428D01*
X76917857Y-30586428D02*
X76536905Y-30586428D01*
X77489286Y-30157857D02*
X77536905Y-30110238D01*
X77536905Y-30110238D02*
X77632143Y-30062619D01*
X77632143Y-30062619D02*
X77870238Y-30062619D01*
X77870238Y-30062619D02*
X77965476Y-30110238D01*
X77965476Y-30110238D02*
X78013095Y-30157857D01*
X78013095Y-30157857D02*
X78060714Y-30253095D01*
X78060714Y-30253095D02*
X78060714Y-30348333D01*
X78060714Y-30348333D02*
X78013095Y-30491190D01*
X78013095Y-30491190D02*
X77441667Y-31062619D01*
X77441667Y-31062619D02*
X78060714Y-31062619D01*
D12*
%TO.C,21MTC1*%
X84252000Y-26184000D02*
X113012000Y-26184000D01*
X113012000Y-26184000D02*
X113012000Y-40374000D01*
X113012000Y-40374000D02*
X84252000Y-40374000D01*
X84252000Y-40374000D02*
X84252000Y-26184000D01*
%TO.C,R_{Front_Right}1*%
X115377500Y-38142224D02*
X115377500Y-37632776D01*
X116422500Y-38142224D02*
X116422500Y-37632776D01*
%TO.C,R_{Rear}1*%
X70577500Y-33642224D02*
X70577500Y-33132776D01*
X71622500Y-33642224D02*
X71622500Y-33132776D01*
%TO.C,LED_{Front}1*%
X121040000Y-35510000D02*
X121040000Y-30720000D01*
X119430000Y-30720000D02*
X119430000Y-35510000D01*
X121000000Y-30720000D02*
X119430000Y-30720000D01*
%TO.C,R1*%
X75604724Y-32397500D02*
X75095276Y-32397500D01*
X75604724Y-31352500D02*
X75095276Y-31352500D01*
%TO.C,R_{Front}1*%
X115377500Y-33642224D02*
X115377500Y-33132776D01*
X116422500Y-33642224D02*
X116422500Y-33132776D01*
%TO.C,R_{Rear_Left}1*%
X70577500Y-28954724D02*
X70577500Y-28445276D01*
X71622500Y-28954724D02*
X71622500Y-28445276D01*
%TO.C,LED_{Rear}1*%
X65460000Y-31290000D02*
X65460000Y-36080000D01*
X67070000Y-36080000D02*
X67070000Y-31290000D01*
X65500000Y-36080000D02*
X67070000Y-36080000D01*
%TO.C,Q2*%
X74962500Y-36540000D02*
X73287500Y-36540000D01*
X74962500Y-36540000D02*
X75612500Y-36540000D01*
X74962500Y-39660000D02*
X74312500Y-39660000D01*
X74962500Y-39660000D02*
X75612500Y-39660000D01*
%TO.C,R2*%
X79879724Y-30847500D02*
X79370276Y-30847500D01*
X79879724Y-29802500D02*
X79370276Y-29802500D01*
%TO.C,R_{Front_Left}1*%
X115377500Y-29042224D02*
X115377500Y-28532776D01*
X116422500Y-29042224D02*
X116422500Y-28532776D01*
%TO.C,R_{Rear_Right}1*%
X70577500Y-38354724D02*
X70577500Y-37845276D01*
X71622500Y-38354724D02*
X71622500Y-37845276D01*
%TO.C,Q1*%
X74400000Y-32790000D02*
X72725000Y-32790000D01*
X74400000Y-32790000D02*
X75050000Y-32790000D01*
X74400000Y-35910000D02*
X73750000Y-35910000D01*
X74400000Y-35910000D02*
X75050000Y-35910000D01*
%TD*%
M02*
