%TF.GenerationSoftware,KiCad,Pcbnew,7.0.1*%
%TF.CreationDate,2023-04-20T14:42:13+09:00*%
%TF.ProjectId,dcc-adapter-board-kato-1.310-21mtc,6463632d-6164-4617-9074-65722d626f61,rev?*%
%TF.SameCoordinates,Original*%
%TF.FileFunction,Copper,L1,Top*%
%TF.FilePolarity,Positive*%
%FSLAX46Y46*%
G04 Gerber Fmt 4.6, Leading zero omitted, Abs format (unit mm)*
G04 Created by KiCad (PCBNEW 7.0.1) date 2023-04-20 14:42:13*
%MOMM*%
%LPD*%
G01*
G04 APERTURE LIST*
G04 Aperture macros list*
%AMRoundRect*
0 Rectangle with rounded corners*
0 $1 Rounding radius*
0 $2 $3 $4 $5 $6 $7 $8 $9 X,Y pos of 4 corners*
0 Add a 4 corners polygon primitive as box body*
4,1,4,$2,$3,$4,$5,$6,$7,$8,$9,$2,$3,0*
0 Add four circle primitives for the rounded corners*
1,1,$1+$1,$2,$3*
1,1,$1+$1,$4,$5*
1,1,$1+$1,$6,$7*
1,1,$1+$1,$8,$9*
0 Add four rect primitives between the rounded corners*
20,1,$1+$1,$2,$3,$4,$5,0*
20,1,$1+$1,$4,$5,$6,$7,0*
20,1,$1+$1,$6,$7,$8,$9,0*
20,1,$1+$1,$8,$9,$2,$3,0*%
G04 Aperture macros list end*
%ADD10C,0.150000*%
%TA.AperFunction,NonConductor*%
%ADD11C,0.150000*%
%TD*%
%TA.AperFunction,SMDPad,CuDef*%
%ADD12R,2.400000X0.740000*%
%TD*%
%TA.AperFunction,SMDPad,CuDef*%
%ADD13RoundRect,0.237500X0.237500X-0.250000X0.237500X0.250000X-0.237500X0.250000X-0.237500X-0.250000X0*%
%TD*%
%TA.AperFunction,SMDPad,CuDef*%
%ADD14RoundRect,0.250000X-0.250000X-0.750000X0.250000X-0.750000X0.250000X0.750000X-0.250000X0.750000X0*%
%TD*%
%TA.AperFunction,SMDPad,CuDef*%
%ADD15R,0.700000X0.340000*%
%TD*%
%TA.AperFunction,ComponentPad*%
%ADD16RoundRect,0.250002X-1.699998X-1.699998X1.699998X-1.699998X1.699998X1.699998X-1.699998X1.699998X0*%
%TD*%
%TA.AperFunction,SMDPad,CuDef*%
%ADD17RoundRect,0.203704X-0.346296X0.596296X-0.346296X-0.596296X0.346296X-0.596296X0.346296X0.596296X0*%
%TD*%
%TA.AperFunction,SMDPad,CuDef*%
%ADD18RoundRect,0.203704X0.346296X-0.596296X0.346296X0.596296X-0.346296X0.596296X-0.346296X-0.596296X0*%
%TD*%
%TA.AperFunction,ComponentPad*%
%ADD19RoundRect,0.250000X0.550000X-0.550000X0.550000X0.550000X-0.550000X0.550000X-0.550000X-0.550000X0*%
%TD*%
%TA.AperFunction,ComponentPad*%
%ADD20C,1.600000*%
%TD*%
%TA.AperFunction,ViaPad*%
%ADD21C,0.800000*%
%TD*%
%TA.AperFunction,Conductor*%
%ADD22C,0.250000*%
%TD*%
G04 APERTURE END LIST*
D10*
D11*
X75809523Y-31082380D02*
X75761904Y-31130000D01*
X75761904Y-31130000D02*
X75619047Y-31177619D01*
X75619047Y-31177619D02*
X75523809Y-31177619D01*
X75523809Y-31177619D02*
X75380952Y-31130000D01*
X75380952Y-31130000D02*
X75285714Y-31034761D01*
X75285714Y-31034761D02*
X75238095Y-30939523D01*
X75238095Y-30939523D02*
X75190476Y-30749047D01*
X75190476Y-30749047D02*
X75190476Y-30606190D01*
X75190476Y-30606190D02*
X75238095Y-30415714D01*
X75238095Y-30415714D02*
X75285714Y-30320476D01*
X75285714Y-30320476D02*
X75380952Y-30225238D01*
X75380952Y-30225238D02*
X75523809Y-30177619D01*
X75523809Y-30177619D02*
X75619047Y-30177619D01*
X75619047Y-30177619D02*
X75761904Y-30225238D01*
X75761904Y-30225238D02*
X75809523Y-30272857D01*
X76133333Y-31173333D02*
X76466666Y-31173333D01*
X76066666Y-31373333D02*
X76300000Y-30673333D01*
X76300000Y-30673333D02*
X76533333Y-31373333D01*
X76866666Y-31373333D02*
X76800000Y-31340000D01*
X76800000Y-31340000D02*
X76766666Y-31273333D01*
X76766666Y-31273333D02*
X76766666Y-30673333D01*
X77133333Y-31373333D02*
X77133333Y-30906666D01*
X77133333Y-30673333D02*
X77100000Y-30706666D01*
X77100000Y-30706666D02*
X77133333Y-30740000D01*
X77133333Y-30740000D02*
X77166667Y-30706666D01*
X77166667Y-30706666D02*
X77133333Y-30673333D01*
X77133333Y-30673333D02*
X77133333Y-30740000D01*
X77400000Y-30906666D02*
X77566666Y-31373333D01*
X77566666Y-31373333D02*
X77733333Y-30906666D01*
X78266666Y-31340000D02*
X78199999Y-31373333D01*
X78199999Y-31373333D02*
X78066666Y-31373333D01*
X78066666Y-31373333D02*
X77999999Y-31340000D01*
X77999999Y-31340000D02*
X77966666Y-31273333D01*
X77966666Y-31273333D02*
X77966666Y-31006666D01*
X77966666Y-31006666D02*
X77999999Y-30940000D01*
X77999999Y-30940000D02*
X78066666Y-30906666D01*
X78066666Y-30906666D02*
X78199999Y-30906666D01*
X78199999Y-30906666D02*
X78266666Y-30940000D01*
X78266666Y-30940000D02*
X78299999Y-31006666D01*
X78299999Y-31006666D02*
X78299999Y-31073333D01*
X78299999Y-31073333D02*
X77966666Y-31140000D01*
D12*
%TO.P,21MTC1,1,Input_1*%
%TO.N,unconnected-(21MTC1-Input_1-Pad1)*%
X85762000Y-26924000D03*
%TO.P,21MTC1,2,Input_2*%
%TO.N,unconnected-(21MTC1-Input_2-Pad2)*%
X85762000Y-28194000D03*
%TO.P,21MTC1,3,Aux_6*%
%TO.N,unconnected-(21MTC1-Aux_6-Pad3)*%
X85762000Y-29464000D03*
%TO.P,21MTC1,4,Aux_4*%
%TO.N,Net-(21MTC1-Aux_4)*%
X85762000Y-30734000D03*
%TO.P,21MTC1,5,Bus_Clock*%
%TO.N,unconnected-(21MTC1-Bus_Clock-Pad5)*%
X85762000Y-32004000D03*
%TO.P,21MTC1,6,Bus_Data*%
%TO.N,unconnected-(21MTC1-Bus_Data-Pad6)*%
X85762000Y-33274000D03*
%TO.P,21MTC1,7,Rearlight*%
%TO.N,Net-(21MTC1-Rearlight)*%
X85762000Y-34544000D03*
%TO.P,21MTC1,8,Frontlight*%
%TO.N,Net-(21MTC1-Frontlight)*%
X85762000Y-35814000D03*
%TO.P,21MTC1,9,Speaker_1*%
%TO.N,Net-(Speaker_{2}1-Pin_1)*%
X85762000Y-37084000D03*
%TO.P,21MTC1,10,Speaker_1*%
%TO.N,Net-(Speaker_{1}1-Pin_1)*%
X85762000Y-38354000D03*
%TO.P,21MTC1,11,Not_Connected*%
%TO.N,unconnected-(21MTC1-Not_Connected-Pad11)*%
X85762000Y-39624000D03*
%TO.P,21MTC1,12,Vcc*%
%TO.N,Net-(+3.3V1-Pin_1)*%
X89662000Y-26924000D03*
%TO.P,21MTC1,13,Aux_3*%
%TO.N,Net-(21MTC1-Aux_3)*%
X89662000Y-28194000D03*
%TO.P,21MTC1,14,Aux_2*%
%TO.N,Net-(21MTC1-Aux_2)*%
X89662000Y-29464000D03*
%TO.P,21MTC1,15,Aux_1*%
%TO.N,Net-(21MTC1-Aux_1)*%
X89662000Y-30734000D03*
%TO.P,21MTC1,16,V+*%
%TO.N,+12V*%
X89662000Y-32004000D03*
%TO.P,21MTC1,17,Aux_5*%
%TO.N,unconnected-(21MTC1-Aux_5-Pad17)*%
X89662000Y-33274000D03*
%TO.P,21MTC1,18,Motor_2*%
%TO.N,Net-(21MTC1-Motor_2)*%
X89662000Y-34544000D03*
%TO.P,21MTC1,19,Motor_1*%
%TO.N,Net-(21MTC1-Motor_1)*%
X89662000Y-35814000D03*
%TO.P,21MTC1,20,GND*%
%TO.N,GND*%
X89662000Y-37084000D03*
%TO.P,21MTC1,21,Rail_Left*%
%TO.N,Net-(21MTC1-Rail_Left)*%
X89662000Y-38354000D03*
%TO.P,21MTC1,22,Rail_Right*%
%TO.N,Net-(21MTC1-Rail_Right)*%
X89662000Y-39624000D03*
%TD*%
D13*
%TO.P,R_{Front_Right}1,1*%
%TO.N,Net-(21MTC1-Aux_1)*%
X115900000Y-38800000D03*
%TO.P,R_{Front_Right}1,2*%
%TO.N,Net-(LED_{Front_Right}1-K)*%
X115900000Y-36975000D03*
%TD*%
D14*
%TO.P,Speaker_{2}1,1,Pin_1*%
%TO.N,Net-(Speaker_{2}1-Pin_1)*%
X81700000Y-28100000D03*
%TD*%
D15*
%TO.P,MOS1,1,S*%
%TO.N,GND*%
X74000000Y-37700000D03*
%TO.P,MOS1,2,G*%
%TO.N,Net-(21MTC1-Aux_3)*%
X74000000Y-38200000D03*
%TO.P,MOS1,3,D*%
%TO.N,Net-(MOS1B-D)*%
X74000000Y-38700000D03*
%TO.P,MOS1,4,S*%
%TO.N,GND*%
X75500000Y-38700000D03*
%TO.P,MOS1,5,G*%
%TO.N,Net-(21MTC1-Aux_4)*%
X75500000Y-38200000D03*
%TO.P,MOS1,6,D*%
%TO.N,Net-(MOS1A-D)*%
X75500000Y-37700000D03*
%TD*%
D16*
%TO.P,Rail_{Right}1,1,Pin_1*%
%TO.N,Net-(21MTC1-Rail_Right)*%
X80500000Y-36400000D03*
%TD*%
D13*
%TO.P,R_{Rear}1,1*%
%TO.N,Net-(21MTC1-Rearlight)*%
X71100000Y-34300000D03*
%TO.P,R_{Rear}1,2*%
%TO.N,Net-(LED_{Rear}1-K)*%
X71100000Y-32475000D03*
%TD*%
D17*
%TO.P,LED_{Front}1,1,K*%
%TO.N,Net-(LED_{Front}1-K)*%
X120070000Y-35300000D03*
%TO.P,LED_{Front}1,2,A*%
%TO.N,+12V*%
X120070000Y-31600000D03*
%TD*%
D14*
%TO.P,Speaker_{1}1,1,Pin_1*%
%TO.N,Net-(Speaker_{1}1-Pin_1)*%
X79100000Y-28100000D03*
%TD*%
D16*
%TO.P,Rail_{Left}1,1,Pin_1*%
%TO.N,Net-(21MTC1-Rail_Left)*%
X106000000Y-30400000D03*
%TD*%
D14*
%TO.P,Motor_{2}1,1,Pin_1*%
%TO.N,Net-(21MTC1-Motor_2)*%
X76000000Y-28100000D03*
%TD*%
%TO.P,GND1,1,Pin_1*%
%TO.N,GND*%
X107500000Y-38200000D03*
%TD*%
D13*
%TO.P,R_{Front}1,1*%
%TO.N,Net-(21MTC1-Frontlight)*%
X115900000Y-34300000D03*
%TO.P,R_{Front}1,2*%
%TO.N,Net-(LED_{Front}1-K)*%
X115900000Y-32475000D03*
%TD*%
D14*
%TO.P,Motor_{1}1,1,Pin_1*%
%TO.N,Net-(21MTC1-Motor_1)*%
X73500000Y-28100000D03*
%TD*%
D13*
%TO.P,R_{Rear_Left}1,1*%
%TO.N,Net-(21MTC1-Aux_2)*%
X71100000Y-29612500D03*
%TO.P,R_{Rear_Left}1,2*%
%TO.N,Net-(LED_{Rear_Left}1-K)*%
X71100000Y-27787500D03*
%TD*%
D18*
%TO.P,LED_{Rear}1,1,K*%
%TO.N,Net-(LED_{Rear}1-K)*%
X66430000Y-31500000D03*
%TO.P,LED_{Rear}1,2,A*%
%TO.N,+12V*%
X66430000Y-35200000D03*
%TD*%
D19*
%TO.P,C_{Alive}1,1*%
%TO.N,GND*%
X73900000Y-34800000D03*
D20*
%TO.P,C_{Alive}1,2*%
%TO.N,+12V*%
X73900000Y-31200000D03*
%TD*%
D13*
%TO.P,R_{Front_Left}1,1*%
%TO.N,Net-(MOS1A-D)*%
X115900000Y-29700000D03*
%TO.P,R_{Front_Left}1,2*%
%TO.N,Net-(LED_{Front_Left}1-K)*%
X115900000Y-27875000D03*
%TD*%
%TO.P,R_{Rear_Right}1,1*%
%TO.N,Net-(MOS1B-D)*%
X71100000Y-39012500D03*
%TO.P,R_{Rear_Right}1,2*%
%TO.N,Net-(LED_{Rear_Right}1-K)*%
X71100000Y-37187500D03*
%TD*%
D14*
%TO.P,+3.3V1,1,Pin_1*%
%TO.N,Net-(+3.3V1-Pin_1)*%
X102900000Y-38200000D03*
%TD*%
%TO.P,+12V1,1,Pin_1*%
%TO.N,+12V*%
X98300000Y-38200000D03*
%TD*%
D21*
%TO.N,Net-(21MTC1-Aux_4)*%
X83299500Y-32100000D03*
X76700000Y-37950500D03*
%TO.N,GND*%
X105200000Y-38600000D03*
X75500000Y-39800000D03*
%TO.N,Net-(21MTC1-Rearlight)*%
X83300000Y-33100000D03*
X80900000Y-33100000D03*
%TO.N,+12V*%
X69700000Y-35000000D03*
X94650000Y-34550000D03*
X117400000Y-32000000D03*
%TO.N,Net-(21MTC1-Aux_3)*%
X91700000Y-28200000D03*
X72600000Y-37975500D03*
%TO.N,Net-(21MTC1-Aux_2)*%
X77400000Y-30000000D03*
X91600000Y-29500000D03*
%TO.N,Net-(21MTC1-Aux_1)*%
X96100000Y-30700000D03*
X97850000Y-29650000D03*
%TO.N,Net-(21MTC1-Motor_2)*%
X91800000Y-34600000D03*
X77400000Y-28100000D03*
%TO.N,Net-(21MTC1-Motor_1)*%
X74700000Y-28100000D03*
X91800000Y-35900000D03*
%TO.N,Net-(LED_{Front_Left}1-K)*%
X117700000Y-27100000D03*
%TO.N,Net-(LED_{Front_Right}1-K)*%
X118800000Y-36975000D03*
%TO.N,Net-(LED_{Rear_Left}1-K)*%
X67568623Y-30771963D03*
%TO.N,Net-(LED_{Rear_Right}1-K)*%
X68400000Y-39700000D03*
%TO.N,Net-(MOS1A-D)*%
X77600000Y-39500000D03*
X112100000Y-29700000D03*
%TD*%
D22*
%TO.N,Net-(21MTC1-Aux_4)*%
X84665500Y-30734000D02*
X85762000Y-30734000D01*
X76450500Y-38200000D02*
X75500000Y-38200000D01*
X83299500Y-32100000D02*
X84665500Y-30734000D01*
X76700000Y-37950500D02*
X76450500Y-38200000D01*
%TO.N,GND*%
X107500000Y-38200000D02*
X106175000Y-39525000D01*
X91084000Y-37084000D02*
X89662000Y-37084000D01*
X93525000Y-39525000D02*
X91084000Y-37084000D01*
X74830000Y-38700000D02*
X74675000Y-38545000D01*
X105200000Y-39525000D02*
X93525000Y-39525000D01*
X106175000Y-39525000D02*
X105200000Y-39525000D01*
X75500000Y-39800000D02*
X75500000Y-38700000D01*
X75500000Y-38700000D02*
X74830000Y-38700000D01*
X74500000Y-37700000D02*
X74000000Y-37700000D01*
X105200000Y-39525000D02*
X105200000Y-38600000D01*
X74675000Y-37875000D02*
X74500000Y-37700000D01*
X74000000Y-37700000D02*
X74000000Y-34900000D01*
X74675000Y-38545000D02*
X74675000Y-37875000D01*
X74000000Y-34900000D02*
X73900000Y-34800000D01*
%TO.N,Net-(21MTC1-Rearlight)*%
X72300000Y-33100000D02*
X71100000Y-34300000D01*
X83300000Y-33100000D02*
X84744000Y-34544000D01*
X80900000Y-33100000D02*
X72300000Y-33100000D01*
X84744000Y-34544000D02*
X85762000Y-34544000D01*
%TO.N,Net-(21MTC1-Frontlight)*%
X86712000Y-35814000D02*
X87287000Y-35239000D01*
X107603695Y-26229000D02*
X115674695Y-34300000D01*
X87287000Y-26600000D02*
X87658000Y-26229000D01*
X85762000Y-35814000D02*
X86712000Y-35814000D01*
X115674695Y-34300000D02*
X115900000Y-34300000D01*
X87287000Y-35239000D02*
X87287000Y-26600000D01*
X87658000Y-26229000D02*
X107603695Y-26229000D01*
%TO.N,+12V*%
X98300000Y-38200000D02*
X92104000Y-32004000D01*
X66630000Y-35000000D02*
X66430000Y-35200000D01*
X117400000Y-32000000D02*
X119670000Y-32000000D01*
X69700000Y-35000000D02*
X66630000Y-35000000D01*
X92104000Y-32004000D02*
X89662000Y-32004000D01*
X119670000Y-32000000D02*
X120070000Y-31600000D01*
%TO.N,Net-(21MTC1-Aux_3)*%
X72824500Y-38200000D02*
X72600000Y-37975500D01*
X90492000Y-28194000D02*
X89662000Y-28194000D01*
X91700000Y-28200000D02*
X90498000Y-28200000D01*
X90498000Y-28200000D02*
X90492000Y-28194000D01*
X74000000Y-38200000D02*
X72824500Y-38200000D01*
%TO.N,Net-(21MTC1-Aux_2)*%
X91564000Y-29464000D02*
X89662000Y-29464000D01*
X77012500Y-29612500D02*
X77400000Y-30000000D01*
X91600000Y-29500000D02*
X91564000Y-29464000D01*
X71100000Y-29612500D02*
X77012500Y-29612500D01*
%TO.N,Net-(21MTC1-Aux_1)*%
X107113172Y-27300000D02*
X109700000Y-29886828D01*
X97850000Y-29650000D02*
X100200000Y-27300000D01*
X100200000Y-27300000D02*
X107113172Y-27300000D01*
X96066000Y-30734000D02*
X96100000Y-30700000D01*
X89662000Y-30734000D02*
X96066000Y-30734000D01*
X109700000Y-32600000D02*
X115900000Y-38800000D01*
X109700000Y-29886828D02*
X109700000Y-32600000D01*
%TO.N,Net-(21MTC1-Motor_2)*%
X91800000Y-34600000D02*
X89718000Y-34600000D01*
X89718000Y-34600000D02*
X89662000Y-34544000D01*
X76000000Y-28100000D02*
X77400000Y-28100000D01*
%TO.N,Net-(21MTC1-Motor_1)*%
X89662000Y-35814000D02*
X91714000Y-35814000D01*
X73500000Y-28100000D02*
X74700000Y-28100000D01*
X91714000Y-35814000D02*
X91800000Y-35900000D01*
%TO.N,Net-(21MTC1-Rail_Left)*%
X108325000Y-32725000D02*
X106000000Y-30400000D01*
X89662000Y-38354000D02*
X90492000Y-38354000D01*
X92113000Y-39975000D02*
X107538173Y-39975000D01*
X108325000Y-39188173D02*
X108325000Y-32725000D01*
X107538173Y-39975000D02*
X108325000Y-39188173D01*
X90492000Y-38354000D02*
X92113000Y-39975000D01*
%TO.N,Net-(21MTC1-Rail_Right)*%
X84419000Y-40319000D02*
X80500000Y-36400000D01*
X88967000Y-40319000D02*
X84419000Y-40319000D01*
X89662000Y-39624000D02*
X88967000Y-40319000D01*
%TO.N,Net-(LED_{Front}1-K)*%
X118725000Y-35300000D02*
X115900000Y-32475000D01*
X120070000Y-35300000D02*
X118725000Y-35300000D01*
%TO.N,Net-(LED_{Rear}1-K)*%
X71100000Y-32475000D02*
X67405000Y-32475000D01*
X67405000Y-32475000D02*
X66430000Y-31500000D01*
%TO.N,Net-(+3.3V1-Pin_1)*%
X89662000Y-26924000D02*
X93724000Y-26924000D01*
X93724000Y-26924000D02*
X102900000Y-36100000D01*
X102900000Y-36100000D02*
X102900000Y-38200000D01*
%TO.N,Net-(Speaker_{2}1-Pin_1)*%
X83225000Y-35497000D02*
X84812000Y-37084000D01*
X84812000Y-37084000D02*
X85762000Y-37084000D01*
X82575000Y-33400305D02*
X82575000Y-28975000D01*
X83225000Y-35497000D02*
X83225000Y-34050305D01*
X82575000Y-28975000D02*
X81700000Y-28100000D01*
X83225000Y-34050305D02*
X82575000Y-33400305D01*
%TO.N,Net-(LED_{Front_Left}1-K)*%
X115900000Y-27875000D02*
X116925000Y-27875000D01*
X116925000Y-27875000D02*
X117700000Y-27100000D01*
%TO.N,Net-(LED_{Front_Right}1-K)*%
X115900000Y-36975000D02*
X118800000Y-36975000D01*
%TO.N,Net-(LED_{Rear_Left}1-K)*%
X70553086Y-27787500D02*
X67568623Y-30771963D01*
X71100000Y-27787500D02*
X70553086Y-27787500D01*
%TO.N,Net-(LED_{Rear_Right}1-K)*%
X68587500Y-39700000D02*
X68400000Y-39700000D01*
X71100000Y-37187500D02*
X68587500Y-39700000D01*
%TO.N,Net-(MOS1A-D)*%
X112100000Y-29700000D02*
X115900000Y-29700000D01*
X77425000Y-39325000D02*
X77425000Y-37650195D01*
X77000305Y-37225500D02*
X75974500Y-37225500D01*
X77600000Y-39500000D02*
X77425000Y-39325000D01*
X75974500Y-37225500D02*
X75500000Y-37700000D01*
X77425000Y-37650195D02*
X77000305Y-37225500D01*
%TO.N,Net-(MOS1B-D)*%
X71412500Y-38700000D02*
X74000000Y-38700000D01*
X71100000Y-39012500D02*
X71412500Y-38700000D01*
%TO.N,Net-(Speaker_{1}1-Pin_1)*%
X82775000Y-36317000D02*
X82775000Y-34461828D01*
X85762000Y-38354000D02*
X84812000Y-38354000D01*
X84812000Y-38354000D02*
X82775000Y-36317000D01*
X81625000Y-30625000D02*
X79100000Y-28100000D01*
X82775000Y-34461828D02*
X81625000Y-33311828D01*
X81625000Y-33311828D02*
X81625000Y-30625000D01*
%TD*%
M02*
