%TF.GenerationSoftware,KiCad,Pcbnew,7.0.1*%
%TF.CreationDate,2023-04-18T16:42:21+09:00*%
%TF.ProjectId,dcc-adapter-board-kato-1.310-21mtc,6463632d-6164-4617-9074-65722d626f61,rev?*%
%TF.SameCoordinates,Original*%
%TF.FileFunction,Copper,L2,Bot*%
%TF.FilePolarity,Positive*%
%FSLAX46Y46*%
G04 Gerber Fmt 4.6, Leading zero omitted, Abs format (unit mm)*
G04 Created by KiCad (PCBNEW 7.0.1) date 2023-04-18 16:42:21*
%MOMM*%
%LPD*%
G01*
G04 APERTURE LIST*
G04 Aperture macros list*
%AMRoundRect*
0 Rectangle with rounded corners*
0 $1 Rounding radius*
0 $2 $3 $4 $5 $6 $7 $8 $9 X,Y pos of 4 corners*
0 Add a 4 corners polygon primitive as box body*
4,1,4,$2,$3,$4,$5,$6,$7,$8,$9,$2,$3,0*
0 Add four circle primitives for the rounded corners*
1,1,$1+$1,$2,$3*
1,1,$1+$1,$4,$5*
1,1,$1+$1,$6,$7*
1,1,$1+$1,$8,$9*
0 Add four rect primitives between the rounded corners*
20,1,$1+$1,$2,$3,$4,$5,0*
20,1,$1+$1,$4,$5,$6,$7,0*
20,1,$1+$1,$6,$7,$8,$9,0*
20,1,$1+$1,$8,$9,$2,$3,0*%
G04 Aperture macros list end*
%TA.AperFunction,ComponentPad*%
%ADD10RoundRect,0.250002X-1.699998X-1.699998X1.699998X-1.699998X1.699998X1.699998X-1.699998X1.699998X0*%
%TD*%
%TA.AperFunction,ComponentPad*%
%ADD11RoundRect,0.250000X0.550000X-0.550000X0.550000X0.550000X-0.550000X0.550000X-0.550000X-0.550000X0*%
%TD*%
%TA.AperFunction,ComponentPad*%
%ADD12C,1.600000*%
%TD*%
%TA.AperFunction,SMDPad,CuDef*%
%ADD13RoundRect,0.203704X-0.346296X0.596296X-0.346296X-0.596296X0.346296X-0.596296X0.346296X0.596296X0*%
%TD*%
%TA.AperFunction,SMDPad,CuDef*%
%ADD14RoundRect,0.203704X0.346296X-0.596296X0.346296X0.596296X-0.346296X0.596296X-0.346296X-0.596296X0*%
%TD*%
%TA.AperFunction,ViaPad*%
%ADD15C,0.800000*%
%TD*%
%TA.AperFunction,Conductor*%
%ADD16C,0.250000*%
%TD*%
G04 APERTURE END LIST*
D10*
%TO.P,Rail_{Right}1,1,Pin_1*%
%TO.N,Net-(21MTC1-Rail_Right)*%
X80500000Y-36400000D03*
%TD*%
%TO.P,Rail_{Left}1,1,Pin_1*%
%TO.N,Net-(21MTC1-Rail_Left)*%
X106000000Y-30400000D03*
%TD*%
D11*
%TO.P,C_{Alive}1,1*%
%TO.N,GND*%
X73900000Y-34800000D03*
D12*
%TO.P,C_{Alive}1,2*%
%TO.N,+12V*%
X73900000Y-31200000D03*
%TD*%
D13*
%TO.P,LED_{Rear_Left}1,1,K*%
%TO.N,Net-(LED_{Rear_Left}1-K)*%
X66430000Y-30800000D03*
%TO.P,LED_{Rear_Left}1,2,A*%
%TO.N,+12V*%
X66430000Y-27100000D03*
%TD*%
D14*
%TO.P,LED_{Front_Left}1,1,K*%
%TO.N,Net-(LED_{Front_Left}1-K)*%
X120070000Y-27100000D03*
%TO.P,LED_{Front_Left}1,2,A*%
%TO.N,+12V*%
X120070000Y-30800000D03*
%TD*%
%TO.P,LED_{Front_Right}1,1,K*%
%TO.N,Net-(LED_{Front_Right}1-K)*%
X120070000Y-36000000D03*
%TO.P,LED_{Front_Right}1,2,A*%
%TO.N,+12V*%
X120070000Y-39700000D03*
%TD*%
D13*
%TO.P,LED_{Rear_Right}1,1,K*%
%TO.N,Net-(LED_{Rear_Right}1-K)*%
X66430000Y-39700000D03*
%TO.P,LED_{Rear_Right}1,2,A*%
%TO.N,+12V*%
X66430000Y-36000000D03*
%TD*%
D15*
%TO.N,+12V*%
X117400000Y-32000000D03*
X69700000Y-35000000D03*
%TO.N,Net-(21MTC1-Aux_4)*%
X83299500Y-32100000D03*
X76700000Y-37950500D03*
%TO.N,GND*%
X105200000Y-38600000D03*
X75500000Y-39800000D03*
%TO.N,Net-(21MTC1-Rearlight)*%
X83300000Y-33100000D03*
X80900000Y-33100000D03*
%TO.N,+12V*%
X94650000Y-34550000D03*
%TO.N,Net-(21MTC1-Aux_3)*%
X91700000Y-28200000D03*
X72600000Y-37975500D03*
%TO.N,Net-(21MTC1-Aux_2)*%
X77400000Y-30000000D03*
X91600000Y-29500000D03*
%TO.N,Net-(21MTC1-Aux_1)*%
X96100000Y-30700000D03*
X97850000Y-29650000D03*
%TO.N,Net-(21MTC1-Motor_2)*%
X91800000Y-34600000D03*
X77400000Y-28100000D03*
%TO.N,Net-(21MTC1-Motor_1)*%
X74700000Y-28100000D03*
X91800000Y-35900000D03*
%TO.N,Net-(LED_{Front_Left}1-K)*%
X117700000Y-27100000D03*
%TO.N,Net-(LED_{Front_Right}1-K)*%
X118800000Y-36975000D03*
%TO.N,Net-(LED_{Rear_Left}1-K)*%
X67568623Y-30771963D03*
%TO.N,Net-(LED_{Rear_Right}1-K)*%
X68400000Y-39700000D03*
%TO.N,Net-(MOS1A-D)*%
X77600000Y-39500000D03*
X112100000Y-29700000D03*
%TD*%
D16*
%TO.N,+12V*%
X118600000Y-30800000D02*
X117400000Y-32000000D01*
X120070000Y-30800000D02*
X118600000Y-30800000D01*
X117400000Y-33470000D02*
X117400000Y-32000000D01*
X68700000Y-36000000D02*
X69700000Y-35000000D01*
X66430000Y-36000000D02*
X68700000Y-36000000D01*
X70530000Y-34170000D02*
X69700000Y-35000000D01*
X70530000Y-31200000D02*
X70530000Y-34170000D01*
X70530000Y-31200000D02*
X73900000Y-31200000D01*
X73900000Y-27800000D02*
X73900000Y-31200000D01*
%TO.N,Net-(21MTC1-Aux_4)*%
X80586828Y-32100000D02*
X83299500Y-32100000D01*
X76825000Y-35861828D02*
X80586828Y-32100000D01*
X76825000Y-37825500D02*
X76825000Y-35861828D01*
X76700000Y-37950500D02*
X76825000Y-37825500D01*
%TO.N,GND*%
X103575000Y-40225000D02*
X105200000Y-38600000D01*
X75925000Y-40225000D02*
X103575000Y-40225000D01*
X75500000Y-39800000D02*
X75925000Y-40225000D01*
%TO.N,Net-(21MTC1-Rearlight)*%
X83300000Y-33100000D02*
X80900000Y-33100000D01*
%TO.N,+12V*%
X70530000Y-31200000D02*
X66430000Y-27100000D01*
X74325000Y-27375000D02*
X73900000Y-27800000D01*
X94650000Y-34550000D02*
X94650000Y-29950000D01*
X118874695Y-39700000D02*
X112825000Y-33650305D01*
X92075000Y-27375000D02*
X74325000Y-27375000D01*
X101100000Y-28100000D02*
X94650000Y-34550000D01*
X112825000Y-33650305D02*
X112825000Y-29325000D01*
X94650000Y-29950000D02*
X92075000Y-27375000D01*
X120070000Y-39700000D02*
X118874695Y-39700000D01*
X117400000Y-37030000D02*
X120070000Y-39700000D01*
X111600000Y-28100000D02*
X101100000Y-28100000D01*
X117400000Y-33470000D02*
X117400000Y-37030000D01*
X112825000Y-29325000D02*
X111600000Y-28100000D01*
%TO.N,Net-(21MTC1-Aux_3)*%
X73299500Y-38675000D02*
X90686701Y-38675000D01*
X93500000Y-30000000D02*
X91700000Y-28200000D01*
X72600000Y-37975500D02*
X73299500Y-38675000D01*
X90686701Y-38675000D02*
X93500000Y-35861701D01*
X93500000Y-35861701D02*
X93500000Y-30000000D01*
%TO.N,Net-(21MTC1-Aux_2)*%
X92525000Y-36200305D02*
X92025305Y-36700000D01*
X92025305Y-36700000D02*
X89200000Y-36700000D01*
X82500000Y-30000000D02*
X77400000Y-30000000D01*
X92525000Y-30425000D02*
X92525000Y-36200305D01*
X89200000Y-36700000D02*
X82500000Y-30000000D01*
X91600000Y-29500000D02*
X92525000Y-30425000D01*
%TO.N,Net-(21MTC1-Aux_1)*%
X96100000Y-30700000D02*
X96800000Y-30700000D01*
X96800000Y-30700000D02*
X97850000Y-29650000D01*
%TO.N,Net-(21MTC1-Motor_2)*%
X77400000Y-28100000D02*
X85300000Y-28100000D01*
X85300000Y-28100000D02*
X91800000Y-34600000D01*
%TO.N,Net-(21MTC1-Motor_1)*%
X75600000Y-29000000D02*
X84800000Y-29000000D01*
X84900000Y-29000000D02*
X91800000Y-35900000D01*
X74700000Y-28100000D02*
X75600000Y-29000000D01*
%TO.N,Net-(LED_{Front_Left}1-K)*%
X117700000Y-27100000D02*
X120070000Y-27100000D01*
%TO.N,Net-(LED_{Front_Right}1-K)*%
X118800000Y-36975000D02*
X119095000Y-36975000D01*
X119095000Y-36975000D02*
X120070000Y-36000000D01*
%TO.N,Net-(LED_{Rear_Left}1-K)*%
X67568623Y-30771963D02*
X66458037Y-30771963D01*
X66458037Y-30771963D02*
X66430000Y-30800000D01*
%TO.N,Net-(LED_{Rear_Right}1-K)*%
X68400000Y-39700000D02*
X66430000Y-39700000D01*
%TO.N,Net-(MOS1A-D)*%
X102300000Y-39500000D02*
X112100000Y-29700000D01*
X77600000Y-39500000D02*
X102300000Y-39500000D01*
%TD*%
M02*
