%TF.GenerationSoftware,KiCad,Pcbnew,7.0.1*%
%TF.CreationDate,2023-06-14T02:20:09+09:00*%
%TF.ProjectId,dcc-adapter-board-kato-1.310-21mtc,6463632d-6164-4617-9074-65722d626f61,rev?*%
%TF.SameCoordinates,Original*%
%TF.FileFunction,Copper,L2,Bot*%
%TF.FilePolarity,Positive*%
%FSLAX46Y46*%
G04 Gerber Fmt 4.6, Leading zero omitted, Abs format (unit mm)*
G04 Created by KiCad (PCBNEW 7.0.1) date 2023-06-14 02:20:09*
%MOMM*%
%LPD*%
G01*
G04 APERTURE LIST*
G04 Aperture macros list*
%AMRoundRect*
0 Rectangle with rounded corners*
0 $1 Rounding radius*
0 $2 $3 $4 $5 $6 $7 $8 $9 X,Y pos of 4 corners*
0 Add a 4 corners polygon primitive as box body*
4,1,4,$2,$3,$4,$5,$6,$7,$8,$9,$2,$3,0*
0 Add four circle primitives for the rounded corners*
1,1,$1+$1,$2,$3*
1,1,$1+$1,$4,$5*
1,1,$1+$1,$6,$7*
1,1,$1+$1,$8,$9*
0 Add four rect primitives between the rounded corners*
20,1,$1+$1,$2,$3,$4,$5,0*
20,1,$1+$1,$4,$5,$6,$7,0*
20,1,$1+$1,$6,$7,$8,$9,0*
20,1,$1+$1,$8,$9,$2,$3,0*%
G04 Aperture macros list end*
%TA.AperFunction,ComponentPad*%
%ADD10RoundRect,0.250002X-1.699998X-1.699998X1.699998X-1.699998X1.699998X1.699998X-1.699998X1.699998X0*%
%TD*%
%TA.AperFunction,SMDPad,CuDef*%
%ADD11RoundRect,0.203704X-0.346296X0.596296X-0.346296X-0.596296X0.346296X-0.596296X0.346296X0.596296X0*%
%TD*%
%TA.AperFunction,SMDPad,CuDef*%
%ADD12RoundRect,0.203704X0.346296X-0.596296X0.346296X0.596296X-0.346296X0.596296X-0.346296X-0.596296X0*%
%TD*%
%TA.AperFunction,ViaPad*%
%ADD13C,0.800000*%
%TD*%
%TA.AperFunction,Conductor*%
%ADD14C,0.250000*%
%TD*%
G04 APERTURE END LIST*
D10*
%TO.P,Rail_{Right}1,1,Pin_1*%
%TO.N,Net-(21MTC1-Rail_Right)*%
X80500000Y-36000000D03*
%TD*%
%TO.P,Rail_{Left}1,1,Pin_1*%
%TO.N,Net-(21MTC1-Rail_Left)*%
X106000000Y-30800000D03*
%TD*%
D11*
%TO.P,LED_{Rear_Left}1,1,K*%
%TO.N,Net-(LED_{Rear_Left}1-K)*%
X66430000Y-30800000D03*
%TO.P,LED_{Rear_Left}1,2,A*%
%TO.N,+12V*%
X66430000Y-27100000D03*
%TD*%
D12*
%TO.P,LED_{Front_Left}1,1,K*%
%TO.N,Net-(LED_{Front_Left}1-K)*%
X120070000Y-27100000D03*
%TO.P,LED_{Front_Left}1,2,A*%
%TO.N,+12V*%
X120070000Y-30800000D03*
%TD*%
%TO.P,LED_{Front_Right}1,1,K*%
%TO.N,Net-(LED_{Front_Right}1-K)*%
X120070000Y-36000000D03*
%TO.P,LED_{Front_Right}1,2,A*%
%TO.N,+12V*%
X120070000Y-39700000D03*
%TD*%
D11*
%TO.P,LED_{Rear_Right}1,1,K*%
%TO.N,Net-(LED_{Rear_Right}1-K)*%
X66430000Y-39700000D03*
%TO.P,LED_{Rear_Right}1,2,A*%
%TO.N,+12V*%
X66430000Y-36000000D03*
%TD*%
D13*
%TO.N,Net-(21MTC1-Aux_4)*%
X83400000Y-31524500D03*
X80554082Y-31532084D03*
%TO.N,GND*%
X72962500Y-37987500D03*
X87925789Y-40262105D03*
%TO.N,Net-(21MTC1-Rearlight)*%
X83962498Y-32350694D03*
X81113907Y-32360094D03*
X76700000Y-36066424D03*
X71100000Y-35700000D03*
%TO.N,+12V*%
X91800000Y-34544000D03*
X75025000Y-30800000D03*
X69700000Y-35000000D03*
X99900000Y-32100000D03*
X117400000Y-32000000D03*
%TO.N,Net-(21MTC1-Aux_3)*%
X92600000Y-37800000D03*
X75875000Y-33140835D03*
%TO.N,Net-(21MTC1-Aux_2)*%
X72925500Y-30000000D03*
X92500000Y-36700000D03*
%TO.N,Net-(21MTC1-Aux_1)*%
X94700000Y-35800000D03*
X97850000Y-29650000D03*
%TO.N,Net-(21MTC1-Motor_2)*%
X91900000Y-32000000D03*
X79875000Y-28100000D03*
%TO.N,Net-(21MTC1-Motor_1)*%
X79875000Y-29099503D03*
X91866000Y-30734000D03*
%TO.N,Net-(21MTC1-Rail_Right)*%
X91700000Y-27100000D03*
%TO.N,Net-(LED_{Front_Left}1-K)*%
X117700000Y-27100000D03*
%TO.N,Net-(LED_{Front_Right}1-K)*%
X118800000Y-36975000D03*
%TO.N,Net-(LED_{Rear_Left}1-K)*%
X67568623Y-30771963D03*
%TO.N,Net-(LED_{Rear_Right}1-K)*%
X68400000Y-39700000D03*
%TO.N,Net-(Q1-D)*%
X74799500Y-35085153D03*
X112100000Y-29700000D03*
%TD*%
D14*
%TO.N,Net-(21MTC1-Aux_4)*%
X83392416Y-31532084D02*
X83400000Y-31524500D01*
X80554082Y-31532084D02*
X83392416Y-31532084D01*
%TO.N,GND*%
X72962500Y-37987500D02*
X75200000Y-40225000D01*
X75200000Y-40225000D02*
X87888684Y-40225000D01*
X87888684Y-40225000D02*
X87925789Y-40262105D01*
%TO.N,Net-(21MTC1-Rearlight)*%
X76700000Y-36066424D02*
X76699500Y-36066924D01*
X83860804Y-32249000D02*
X83962498Y-32350694D01*
X76699500Y-36066924D02*
X71466924Y-36066924D01*
X71466924Y-36066924D02*
X71100000Y-35700000D01*
X81225001Y-32249000D02*
X83860804Y-32249000D01*
X81113907Y-32360094D02*
X81225001Y-32249000D01*
%TO.N,+12V*%
X70530000Y-31200000D02*
X66430000Y-27100000D01*
X70530000Y-34170000D02*
X69700000Y-35000000D01*
X112825000Y-29325000D02*
X112825000Y-33650305D01*
X120070000Y-30800000D02*
X118600000Y-30800000D01*
X118874695Y-39700000D02*
X120070000Y-39700000D01*
X75025000Y-30800000D02*
X88056000Y-30800000D01*
X111600000Y-28100000D02*
X112825000Y-29325000D01*
X118600000Y-30800000D02*
X117400000Y-32000000D01*
X112825000Y-33650305D02*
X118874695Y-39700000D01*
X70930000Y-30800000D02*
X73200000Y-30800000D01*
X99900000Y-32100000D02*
X103900000Y-28100000D01*
X66430000Y-36000000D02*
X68700000Y-36000000D01*
X117400000Y-37030000D02*
X120070000Y-39700000D01*
X68700000Y-36000000D02*
X69700000Y-35000000D01*
X117400000Y-33470000D02*
X117400000Y-37030000D01*
X88056000Y-30800000D02*
X91800000Y-34544000D01*
X70530000Y-31200000D02*
X70530000Y-34170000D01*
X103900000Y-28100000D02*
X111600000Y-28100000D01*
X117400000Y-33470000D02*
X117400000Y-32000000D01*
X70530000Y-31200000D02*
X70930000Y-30800000D01*
X73200000Y-30800000D02*
X75025000Y-30800000D01*
%TO.N,Net-(21MTC1-Aux_3)*%
X88214807Y-37800000D02*
X92600000Y-37800000D01*
X83555642Y-33140835D02*
X88214807Y-37800000D01*
X75875000Y-33140835D02*
X83555642Y-33140835D01*
%TO.N,Net-(21MTC1-Aux_2)*%
X72925500Y-30000000D02*
X88874695Y-30000000D01*
X88874695Y-30000000D02*
X92525000Y-33650305D01*
X92525000Y-36675000D02*
X92500000Y-36700000D01*
X92525000Y-33650305D02*
X92525000Y-36675000D01*
%TO.N,Net-(21MTC1-Aux_1)*%
X97850000Y-29650000D02*
X97850000Y-32650000D01*
X97850000Y-32650000D02*
X94700000Y-35800000D01*
%TO.N,Net-(21MTC1-Motor_2)*%
X92591000Y-31309000D02*
X91900000Y-32000000D01*
X90257305Y-28100000D02*
X92591000Y-30433695D01*
X79875000Y-28100000D02*
X90257305Y-28100000D01*
X92591000Y-30433695D02*
X92591000Y-31309000D01*
%TO.N,Net-(21MTC1-Motor_1)*%
X79875000Y-29099503D02*
X79974503Y-29000000D01*
X90132000Y-29000000D02*
X91866000Y-30734000D01*
X79974503Y-29000000D02*
X90132000Y-29000000D01*
%TO.N,Net-(21MTC1-Rail_Right)*%
X81000000Y-36000000D02*
X80500000Y-36000000D01*
X83525000Y-38525000D02*
X81000000Y-36000000D01*
X93325000Y-28725000D02*
X93325000Y-38225000D01*
X91700000Y-27100000D02*
X93325000Y-28725000D01*
X93325000Y-38225000D02*
X93025000Y-38525000D01*
X93025000Y-38525000D02*
X83525000Y-38525000D01*
%TO.N,Net-(LED_{Front_Left}1-K)*%
X117700000Y-27100000D02*
X120070000Y-27100000D01*
%TO.N,Net-(LED_{Front_Right}1-K)*%
X118800000Y-36975000D02*
X119095000Y-36975000D01*
X119095000Y-36975000D02*
X120070000Y-36000000D01*
%TO.N,Net-(LED_{Rear_Left}1-K)*%
X67568623Y-30771963D02*
X66458037Y-30771963D01*
X66458037Y-30771963D02*
X66430000Y-30800000D01*
%TO.N,Net-(LED_{Rear_Right}1-K)*%
X68400000Y-39700000D02*
X66430000Y-39700000D01*
%TO.N,Net-(Q1-D)*%
X74799500Y-35085153D02*
X75056271Y-35341924D01*
X75056271Y-35341924D02*
X77066924Y-35341924D01*
X77600000Y-35875000D02*
X77600000Y-37313172D01*
X102300000Y-39500000D02*
X112100000Y-29700000D01*
X79786828Y-39500000D02*
X102300000Y-39500000D01*
X77600000Y-37313172D02*
X79786828Y-39500000D01*
X77066924Y-35341924D02*
X77600000Y-35875000D01*
%TD*%
M02*
